<?xml version="1.0" encoding="UTF-8" ?>
<svg version="1.1" width="100" height="60" xmlns="http://www.w3.org/2000/svg" shape-rendering="crispEdges">
<rect x="29" y="0" width="1" height="1" fill="#4B692F" />
<rect x="30" y="0" width="1" height="1" fill="#6ABE30" />
<rect x="31" y="0" width="1" height="1" fill="#6ABE30" />
<rect x="32" y="0" width="1" height="1" fill="#99E550" />
<rect x="33" y="0" width="1" height="1" fill="#99E550" />
<rect x="34" y="0" width="1" height="1" fill="#4B692F" />
<rect x="29" y="1" width="1" height="1" fill="#4B692F" />
<rect x="30" y="1" width="1" height="1" fill="#6ABE30" />
<rect x="31" y="1" width="1" height="1" fill="#99E550" />
<rect x="32" y="1" width="1" height="1" fill="#99E550" />
<rect x="33" y="1" width="1" height="1" fill="#4B692F" />
<rect x="28" y="2" width="1" height="1" fill="#4B692F" />
<rect x="29" y="2" width="1" height="1" fill="#4B692F" />
<rect x="30" y="2" width="1" height="1" fill="#6ABE30" />
<rect x="31" y="2" width="1" height="1" fill="#99E550" />
<rect x="32" y="2" width="1" height="1" fill="#99E550" />
<rect x="33" y="2" width="1" height="1" fill="#4B692F" />
<rect x="28" y="3" width="1" height="1" fill="#4B692F" />
<rect x="29" y="3" width="1" height="1" fill="#99E550" />
<rect x="30" y="3" width="1" height="1" fill="#99E550" />
<rect x="31" y="3" width="1" height="1" fill="#99E550" />
<rect x="32" y="3" width="1" height="1" fill="#4B692F" />
<rect x="28" y="4" width="1" height="1" fill="#4B692F" />
<rect x="29" y="4" width="1" height="1" fill="#99E550" />
<rect x="30" y="4" width="1" height="1" fill="#6ABE30" />
<rect x="31" y="4" width="1" height="1" fill="#4B692F" />
<rect x="28" y="5" width="1" height="1" fill="#4B692F" />
<rect x="29" y="5" width="1" height="1" fill="#99E550" />
<rect x="30" y="5" width="1" height="1" fill="#6ABE30" />
<rect x="31" y="5" width="1" height="1" fill="#4B692F" />
<rect x="28" y="6" width="1" height="1" fill="#4B692F" />
<rect x="29" y="6" width="1" height="1" fill="#99E550" />
<rect x="30" y="6" width="1" height="1" fill="#6ABE30" />
<rect x="31" y="6" width="1" height="1" fill="#4B692F" />
<rect x="28" y="7" width="1" height="1" fill="#4B692F" />
<rect x="29" y="7" width="1" height="1" fill="#99E550" />
<rect x="30" y="7" width="1" height="1" fill="#99E550" />
<rect x="31" y="7" width="1" height="1" fill="#6ABE30" />
<rect x="32" y="7" width="1" height="1" fill="#4B692F" />
<rect x="28" y="8" width="1" height="1" fill="#4B692F" />
<rect x="29" y="8" width="1" height="1" fill="#4B692F" />
<rect x="30" y="8" width="1" height="1" fill="#99E550" />
<rect x="31" y="8" width="1" height="1" fill="#6ABE30" />
<rect x="32" y="8" width="1" height="1" fill="#4B692F" />
<rect x="29" y="9" width="1" height="1" fill="#4B692F" />
<rect x="30" y="9" width="1" height="1" fill="#4B692F" />
<rect x="31" y="9" width="1" height="1" fill="#99E550" />
<rect x="32" y="9" width="1" height="1" fill="#6ABE30" />
<rect x="33" y="9" width="1" height="1" fill="#4B692F" />
<rect x="30" y="10" width="1" height="1" fill="#4B692F" />
<rect x="31" y="10" width="1" height="1" fill="#4B692F" />
<rect x="32" y="10" width="1" height="1" fill="#99E550" />
<rect x="33" y="10" width="1" height="1" fill="#4B692F" />
<rect x="34" y="10" width="1" height="1" fill="#4B692F" />
<rect x="31" y="11" width="1" height="1" fill="#4B692F" />
<rect x="32" y="11" width="1" height="1" fill="#4B692F" />
<rect x="33" y="11" width="1" height="1" fill="#4B692F" />
<rect x="88" y="30" width="1" height="1" fill="#4B692F" />
<rect x="89" y="30" width="1" height="1" fill="#4B692F" />
<rect x="88" y="31" width="1" height="1" fill="#4B692F" />
<rect x="89" y="31" width="1" height="1" fill="#99E550" />
<rect x="90" y="31" width="1" height="1" fill="#4B692F" />
<rect x="88" y="32" width="1" height="1" fill="#4B692F" />
<rect x="89" y="32" width="1" height="1" fill="#99E550" />
<rect x="90" y="32" width="1" height="1" fill="#4B692F" />
<rect x="99" y="32" width="1" height="1" fill="#4B692F" />
<rect x="88" y="33" width="1" height="1" fill="#4B692F" />
<rect x="89" y="33" width="1" height="1" fill="#99E550" />
<rect x="90" y="33" width="1" height="1" fill="#4B692F" />
<rect x="91" y="33" width="1" height="1" fill="#4B692F" />
<rect x="97" y="33" width="1" height="1" fill="#4B692F" />
<rect x="98" y="33" width="1" height="1" fill="#4B692F" />
<rect x="99" y="33" width="1" height="1" fill="#99E550" />
<rect x="88" y="34" width="1" height="1" fill="#4B692F" />
<rect x="89" y="34" width="1" height="1" fill="#99E550" />
<rect x="90" y="34" width="1" height="1" fill="#6ABE30" />
<rect x="91" y="34" width="1" height="1" fill="#4B692F" />
<rect x="92" y="34" width="1" height="1" fill="#4B692F" />
<rect x="96" y="34" width="1" height="1" fill="#4B692F" />
<rect x="97" y="34" width="1" height="1" fill="#99E550" />
<rect x="98" y="34" width="1" height="1" fill="#99E550" />
<rect x="99" y="34" width="1" height="1" fill="#99E550" />
<rect x="88" y="35" width="1" height="1" fill="#4B692F" />
<rect x="89" y="35" width="1" height="1" fill="#4B692F" />
<rect x="90" y="35" width="1" height="1" fill="#99E550" />
<rect x="91" y="35" width="1" height="1" fill="#6ABE30" />
<rect x="92" y="35" width="1" height="1" fill="#6ABE30" />
<rect x="93" y="35" width="1" height="1" fill="#4B692F" />
<rect x="94" y="35" width="1" height="1" fill="#4B692F" />
<rect x="95" y="35" width="1" height="1" fill="#4B692F" />
<rect x="96" y="35" width="1" height="1" fill="#99E550" />
<rect x="97" y="35" width="1" height="1" fill="#99E550" />
<rect x="98" y="35" width="1" height="1" fill="#99E550" />
<rect x="99" y="35" width="1" height="1" fill="#6ABE30" />
<rect x="89" y="36" width="1" height="1" fill="#4B692F" />
<rect x="90" y="36" width="1" height="1" fill="#4B692F" />
<rect x="91" y="36" width="1" height="1" fill="#99E550" />
<rect x="92" y="36" width="1" height="1" fill="#99E550" />
<rect x="93" y="36" width="1" height="1" fill="#6ABE30" />
<rect x="94" y="36" width="1" height="1" fill="#6ABE30" />
<rect x="95" y="36" width="1" height="1" fill="#6ABE30" />
<rect x="96" y="36" width="1" height="1" fill="#99E550" />
<rect x="97" y="36" width="1" height="1" fill="#6ABE30" />
<rect x="98" y="36" width="1" height="1" fill="#6ABE30" />
<rect x="99" y="36" width="1" height="1" fill="#6ABE30" />
<rect x="90" y="37" width="1" height="1" fill="#4B692F" />
<rect x="91" y="37" width="1" height="1" fill="#4B692F" />
<rect x="92" y="37" width="1" height="1" fill="#99E550" />
<rect x="93" y="37" width="1" height="1" fill="#99E550" />
<rect x="94" y="37" width="1" height="1" fill="#99E550" />
<rect x="95" y="37" width="1" height="1" fill="#99E550" />
<rect x="96" y="37" width="1" height="1" fill="#99E550" />
<rect x="97" y="37" width="1" height="1" fill="#4B692F" />
<rect x="98" y="37" width="1" height="1" fill="#4B692F" />
<rect x="99" y="37" width="1" height="1" fill="#4B692F" />
<rect x="91" y="38" width="1" height="1" fill="#4B692F" />
<rect x="92" y="38" width="1" height="1" fill="#4B692F" />
<rect x="93" y="38" width="1" height="1" fill="#4B692F" />
<rect x="94" y="38" width="1" height="1" fill="#4B692F" />
<rect x="95" y="38" width="1" height="1" fill="#4B692F" />
<rect x="96" y="38" width="1" height="1" fill="#4B692F" />
<rect x="97" y="38" width="1" height="1" fill="#4B692F" />
<rect x="11" y="56" width="1" height="1" fill="#4B692F" />
<rect x="12" y="56" width="1" height="1" fill="#4B692F" />
<rect x="13" y="56" width="1" height="1" fill="#4B692F" />
<rect x="14" y="56" width="1" height="1" fill="#4B692F" />
<rect x="11" y="57" width="1" height="1" fill="#4B692F" />
<rect x="12" y="57" width="1" height="1" fill="#99E550" />
<rect x="13" y="57" width="1" height="1" fill="#99E550" />
<rect x="14" y="57" width="1" height="1" fill="#4B692F" />
<rect x="15" y="57" width="1" height="1" fill="#4B692F" />
<rect x="3" y="58" width="1" height="1" fill="#8FD032" />
<rect x="4" y="58" width="1" height="1" fill="#8FD032" />
<rect x="12" y="58" width="1" height="1" fill="#4B692F" />
<rect x="13" y="58" width="1" height="1" fill="#6ABE30" />
<rect x="14" y="58" width="1" height="1" fill="#99E550" />
<rect x="15" y="58" width="1" height="1" fill="#4B692F" />
<rect x="16" y="58" width="1" height="1" fill="#4B692F" />
<rect x="31" y="58" width="1" height="1" fill="#99E550" />
<rect x="32" y="58" width="1" height="1" fill="#99E550" />
<rect x="37" y="58" width="1" height="1" fill="#99E550" />
<rect x="38" y="58" width="1" height="1" fill="#99E550" />
<rect x="97" y="58" width="1" height="1" fill="#8FD032" />
<rect x="98" y="58" width="1" height="1" fill="#8FD032" />
<rect x="99" y="58" width="1" height="1" fill="#8FD032" />
<rect x="0" y="59" width="1" height="1" fill="#8FD032" />
<rect x="1" y="59" width="1" height="1" fill="#8FD032" />
<rect x="2" y="59" width="1" height="1" fill="#8FD032" />
<rect x="3" y="59" width="1" height="1" fill="#8FD032" />
<rect x="4" y="59" width="1" height="1" fill="#8FD032" />
<rect x="12" y="59" width="1" height="1" fill="#4B692F" />
<rect x="13" y="59" width="1" height="1" fill="#4B692F" />
<rect x="14" y="59" width="1" height="1" fill="#6ABE30" />
<rect x="15" y="59" width="1" height="1" fill="#99E550" />
<rect x="16" y="59" width="1" height="1" fill="#4B692F" />
<rect x="17" y="59" width="1" height="1" fill="#4B692F" />
<rect x="30" y="59" width="1" height="1" fill="#99E550" />
<rect x="31" y="59" width="1" height="1" fill="#99E550" />
<rect x="32" y="59" width="1" height="1" fill="#99E550" />
<rect x="36" y="59" width="1" height="1" fill="#99E550" />
<rect x="37" y="59" width="1" height="1" fill="#99E550" />
<rect x="42" y="59" width="1" height="1" fill="#99E550" />
<rect x="43" y="59" width="1" height="1" fill="#99E550" />
<rect x="44" y="59" width="1" height="1" fill="#99E550" />
<rect x="50" y="59" width="1" height="1" fill="#8FD032" />
<rect x="51" y="59" width="1" height="1" fill="#8FD032" />
<rect x="52" y="59" width="1" height="1" fill="#8FD032" />
<rect x="53" y="59" width="1" height="1" fill="#8FD032" />
<rect x="56" y="59" width="1" height="1" fill="#8FD032" />
<rect x="57" y="59" width="1" height="1" fill="#8FD032" />
<rect x="74" y="59" width="1" height="1" fill="#99E550" />
<rect x="75" y="59" width="1" height="1" fill="#99E550" />
<rect x="78" y="59" width="1" height="1" fill="#99E550" />
<rect x="79" y="59" width="1" height="1" fill="#99E550" />
<rect x="84" y="59" width="1" height="1" fill="#99E550" />
<rect x="85" y="59" width="1" height="1" fill="#99E550" />
<rect x="94" y="59" width="1" height="1" fill="#8FD032" />
<rect x="95" y="59" width="1" height="1" fill="#8FD032" />
<rect x="96" y="59" width="1" height="1" fill="#8FD032" />
<rect x="97" y="59" width="1" height="1" fill="#8FD032" />
<rect x="98" y="59" width="1" height="1" fill="#8FD032" />
<rect x="99" y="59" width="1" height="1" fill="#8FD032" />
</svg>