<svg xmlns="http://www.w3.org/2000/svg" width="500" height="265" shape-rendering="crispEdges"><path fill="#4B692F" d="M480 120h1v1h-1zM481 120h1v1h-1zM482 120h1v1h-1zM483 120h1v1h-1zM484 120h1v1h-1zM485 120h1v1h-1zM486 120h1v1h-1zM487 120h1v1h-1zM488 120h1v1h-1zM489 120h1v1h-1zM480 121h1v1h-1zM481 121h1v1h-1zM482 121h1v1h-1zM483 121h1v1h-1zM484 121h1v1h-1zM485 121h1v1h-1zM486 121h1v1h-1zM487 121h1v1h-1zM488 121h1v1h-1zM489 121h1v1h-1zM480 122h1v1h-1zM481 122h1v1h-1zM482 122h1v1h-1zM483 122h1v1h-1zM484 122h1v1h-1zM485 122h1v1h-1zM486 122h1v1h-1zM487 122h1v1h-1zM488 122h1v1h-1zM489 122h1v1h-1zM480 123h1v1h-1zM481 123h1v1h-1zM482 123h1v1h-1zM483 123h1v1h-1zM484 123h1v1h-1zM485 123h1v1h-1zM486 123h1v1h-1zM487 123h1v1h-1zM488 123h1v1h-1zM489 123h1v1h-1zM480 124h1v1h-1zM481 124h1v1h-1zM482 124h1v1h-1zM483 124h1v1h-1zM484 124h1v1h-1zM485 124h1v1h-1zM486 124h1v1h-1zM487 124h1v1h-1zM488 124h1v1h-1zM489 124h1v1h-1zM480 125h1v1h-1zM481 125h1v1h-1zM482 125h1v1h-1zM483 125h1v1h-1zM484 125h1v1h-1z"/><path fill="#99E550" d="M485 125h1v1h-1zM486 125h1v1h-1zM487 125h1v1h-1zM488 125h1v1h-1zM489 125h1v1h-1z"/><path fill="#4B692F" d="M490 125h1v1h-1zM491 125h1v1h-1zM492 125h1v1h-1zM493 125h1v1h-1zM494 125h1v1h-1zM480 126h1v1h-1zM481 126h1v1h-1zM482 126h1v1h-1zM483 126h1v1h-1zM484 126h1v1h-1z"/><path fill="#99E550" d="M485 126h1v1h-1zM486 126h1v1h-1zM487 126h1v1h-1zM488 126h1v1h-1zM489 126h1v1h-1z"/><path fill="#4B692F" d="M490 126h1v1h-1zM491 126h1v1h-1zM492 126h1v1h-1zM493 126h1v1h-1zM494 126h1v1h-1zM480 127h1v1h-1zM481 127h1v1h-1zM482 127h1v1h-1zM483 127h1v1h-1zM484 127h1v1h-1z"/><path fill="#99E550" d="M485 127h1v1h-1zM486 127h1v1h-1zM487 127h1v1h-1zM488 127h1v1h-1zM489 127h1v1h-1z"/><path fill="#4B692F" d="M490 127h1v1h-1zM491 127h1v1h-1zM492 127h1v1h-1zM493 127h1v1h-1zM494 127h1v1h-1zM480 128h1v1h-1zM481 128h1v1h-1zM482 128h1v1h-1zM483 128h1v1h-1zM484 128h1v1h-1z"/><path fill="#99E550" d="M485 128h1v1h-1zM486 128h1v1h-1zM487 128h1v1h-1zM488 128h1v1h-1zM489 128h1v1h-1z"/><path fill="#4B692F" d="M490 128h1v1h-1zM491 128h1v1h-1zM492 128h1v1h-1zM493 128h1v1h-1zM494 128h1v1h-1zM480 129h1v1h-1zM481 129h1v1h-1zM482 129h1v1h-1zM483 129h1v1h-1zM484 129h1v1h-1z"/><path fill="#99E550" d="M485 129h1v1h-1zM486 129h1v1h-1zM487 129h1v1h-1zM488 129h1v1h-1zM489 129h1v1h-1z"/><path fill="#4B692F" d="M490 129h1v1h-1zM491 129h1v1h-1zM492 129h1v1h-1zM493 129h1v1h-1zM494 129h1v1h-1zM480 130h1v1h-1zM481 130h1v1h-1zM482 130h1v1h-1zM483 130h1v1h-1zM484 130h1v1h-1z"/><path fill="#99E550" d="M485 130h1v1h-1zM486 130h1v1h-1zM487 130h1v1h-1zM488 130h1v1h-1zM489 130h1v1h-1z"/><path fill="#4B692F" d="M490 130h1v1h-1zM491 130h1v1h-1zM492 130h1v1h-1zM493 130h1v1h-1zM494 130h1v1h-1zM480 131h1v1h-1zM481 131h1v1h-1zM482 131h1v1h-1zM483 131h1v1h-1zM484 131h1v1h-1z"/><path fill="#99E550" d="M485 131h1v1h-1zM486 131h1v1h-1zM487 131h1v1h-1zM488 131h1v1h-1zM489 131h1v1h-1z"/><path fill="#4B692F" d="M490 131h1v1h-1zM491 131h1v1h-1zM492 131h1v1h-1zM493 131h1v1h-1zM494 131h1v1h-1zM480 132h1v1h-1zM481 132h1v1h-1zM482 132h1v1h-1zM483 132h1v1h-1zM484 132h1v1h-1z"/><path fill="#99E550" d="M485 132h1v1h-1zM486 132h1v1h-1zM487 132h1v1h-1zM488 132h1v1h-1zM489 132h1v1h-1z"/><path fill="#4B692F" d="M490 132h1v1h-1zM491 132h1v1h-1zM492 132h1v1h-1zM493 132h1v1h-1zM494 132h1v1h-1zM480 133h1v1h-1zM481 133h1v1h-1zM482 133h1v1h-1zM483 133h1v1h-1zM484 133h1v1h-1z"/><path fill="#99E550" d="M485 133h1v1h-1zM486 133h1v1h-1zM487 133h1v1h-1zM488 133h1v1h-1zM489 133h1v1h-1z"/><path fill="#4B692F" d="M490 133h1v1h-1zM491 133h1v1h-1zM492 133h1v1h-1zM493 133h1v1h-1zM494 133h1v1h-1zM480 134h1v1h-1zM481 134h1v1h-1zM482 134h1v1h-1zM483 134h1v1h-1zM484 134h1v1h-1z"/><path fill="#99E550" d="M485 134h1v1h-1zM486 134h1v1h-1zM487 134h1v1h-1zM488 134h1v1h-1zM489 134h1v1h-1z"/><path fill="#4B692F" d="M490 134h1v1h-1zM491 134h1v1h-1zM492 134h1v1h-1zM493 134h1v1h-1zM494 134h1v1h-1zM480 135h1v1h-1zM481 135h1v1h-1zM482 135h1v1h-1zM483 135h1v1h-1zM484 135h1v1h-1z"/><path fill="#99E550" d="M485 135h1v1h-1zM486 135h1v1h-1zM487 135h1v1h-1zM488 135h1v1h-1zM489 135h1v1h-1z"/><path fill="#4B692F" d="M490 135h1v1h-1zM491 135h1v1h-1zM492 135h1v1h-1zM493 135h1v1h-1zM494 135h1v1h-1zM495 135h1v1h-1zM496 135h1v1h-1zM497 135h1v1h-1zM498 135h1v1h-1zM499 135h1v1h-1zM480 136h1v1h-1zM481 136h1v1h-1zM482 136h1v1h-1zM483 136h1v1h-1zM484 136h1v1h-1z"/><path fill="#99E550" d="M485 136h1v1h-1zM486 136h1v1h-1zM487 136h1v1h-1zM488 136h1v1h-1zM489 136h1v1h-1z"/><path fill="#4B692F" d="M490 136h1v1h-1zM491 136h1v1h-1zM492 136h1v1h-1zM493 136h1v1h-1zM494 136h1v1h-1zM495 136h1v1h-1zM496 136h1v1h-1zM497 136h1v1h-1zM498 136h1v1h-1zM499 136h1v1h-1zM480 137h1v1h-1zM481 137h1v1h-1zM482 137h1v1h-1zM483 137h1v1h-1zM484 137h1v1h-1z"/><path fill="#99E550" d="M485 137h1v1h-1zM486 137h1v1h-1zM487 137h1v1h-1zM488 137h1v1h-1zM489 137h1v1h-1z"/><path fill="#4B692F" d="M490 137h1v1h-1zM491 137h1v1h-1zM492 137h1v1h-1zM493 137h1v1h-1zM494 137h1v1h-1zM495 137h1v1h-1zM496 137h1v1h-1zM497 137h1v1h-1zM498 137h1v1h-1zM499 137h1v1h-1zM480 138h1v1h-1zM481 138h1v1h-1zM482 138h1v1h-1zM483 138h1v1h-1zM484 138h1v1h-1z"/><path fill="#99E550" d="M485 138h1v1h-1zM486 138h1v1h-1zM487 138h1v1h-1zM488 138h1v1h-1zM489 138h1v1h-1z"/><path fill="#4B692F" d="M490 138h1v1h-1zM491 138h1v1h-1zM492 138h1v1h-1zM493 138h1v1h-1zM494 138h1v1h-1zM495 138h1v1h-1zM496 138h1v1h-1zM497 138h1v1h-1zM498 138h1v1h-1zM499 138h1v1h-1zM480 139h1v1h-1zM481 139h1v1h-1zM482 139h1v1h-1zM483 139h1v1h-1zM484 139h1v1h-1z"/><path fill="#99E550" d="M485 139h1v1h-1zM486 139h1v1h-1zM487 139h1v1h-1zM488 139h1v1h-1zM489 139h1v1h-1z"/><path fill="#4B692F" d="M490 139h1v1h-1zM491 139h1v1h-1zM492 139h1v1h-1zM493 139h1v1h-1zM494 139h1v1h-1zM495 139h1v1h-1zM496 139h1v1h-1zM497 139h1v1h-1zM498 139h1v1h-1zM499 139h1v1h-1zM480 140h1v1h-1zM481 140h1v1h-1zM482 140h1v1h-1zM483 140h1v1h-1zM484 140h1v1h-1z"/><path fill="#99E550" d="M485 140h1v1h-1zM486 140h1v1h-1zM487 140h1v1h-1zM488 140h1v1h-1zM489 140h1v1h-1z"/><path fill="#6ABE30" d="M490 140h1v1h-1zM491 140h1v1h-1zM492 140h1v1h-1zM493 140h1v1h-1zM494 140h1v1h-1z"/><path fill="#4B692F" d="M495 140h1v1h-1zM496 140h1v1h-1zM497 140h1v1h-1zM498 140h1v1h-1zM499 140h1v1h-1zM480 141h1v1h-1zM481 141h1v1h-1zM482 141h1v1h-1zM483 141h1v1h-1zM484 141h1v1h-1z"/><path fill="#99E550" d="M485 141h1v1h-1zM486 141h1v1h-1zM487 141h1v1h-1zM488 141h1v1h-1zM489 141h1v1h-1z"/><path fill="#6ABE30" d="M490 141h1v1h-1zM491 141h1v1h-1zM492 141h1v1h-1zM493 141h1v1h-1zM494 141h1v1h-1z"/><path fill="#4B692F" d="M495 141h1v1h-1zM496 141h1v1h-1zM497 141h1v1h-1zM498 141h1v1h-1zM499 141h1v1h-1zM480 142h1v1h-1zM481 142h1v1h-1zM482 142h1v1h-1zM483 142h1v1h-1zM484 142h1v1h-1z"/><path fill="#99E550" d="M485 142h1v1h-1zM486 142h1v1h-1zM487 142h1v1h-1zM488 142h1v1h-1zM489 142h1v1h-1z"/><path fill="#6ABE30" d="M490 142h1v1h-1zM491 142h1v1h-1zM492 142h1v1h-1zM493 142h1v1h-1zM494 142h1v1h-1z"/><path fill="#4B692F" d="M495 142h1v1h-1zM496 142h1v1h-1zM497 142h1v1h-1zM498 142h1v1h-1zM499 142h1v1h-1zM480 143h1v1h-1zM481 143h1v1h-1zM482 143h1v1h-1zM483 143h1v1h-1zM484 143h1v1h-1z"/><path fill="#99E550" d="M485 143h1v1h-1zM486 143h1v1h-1zM487 143h1v1h-1zM488 143h1v1h-1zM489 143h1v1h-1z"/><path fill="#6ABE30" d="M490 143h1v1h-1zM491 143h1v1h-1zM492 143h1v1h-1zM493 143h1v1h-1zM494 143h1v1h-1z"/><path fill="#4B692F" d="M495 143h1v1h-1zM496 143h1v1h-1zM497 143h1v1h-1zM498 143h1v1h-1zM499 143h1v1h-1zM480 144h1v1h-1zM481 144h1v1h-1zM482 144h1v1h-1zM483 144h1v1h-1zM484 144h1v1h-1z"/><path fill="#99E550" d="M485 144h1v1h-1zM486 144h1v1h-1zM487 144h1v1h-1zM488 144h1v1h-1zM489 144h1v1h-1z"/><path fill="#6ABE30" d="M490 144h1v1h-1zM491 144h1v1h-1zM492 144h1v1h-1zM493 144h1v1h-1zM494 144h1v1h-1z"/><path fill="#4B692F" d="M495 144h1v1h-1zM496 144h1v1h-1zM497 144h1v1h-1zM498 144h1v1h-1zM499 144h1v1h-1zM480 145h1v1h-1zM481 145h1v1h-1zM482 145h1v1h-1zM483 145h1v1h-1zM484 145h1v1h-1zM485 145h1v1h-1zM486 145h1v1h-1zM487 145h1v1h-1zM488 145h1v1h-1zM489 145h1v1h-1z"/><path fill="#99E550" d="M490 145h1v1h-1zM491 145h1v1h-1zM492 145h1v1h-1zM493 145h1v1h-1zM494 145h1v1h-1z"/><path fill="#6ABE30" d="M495 145h1v1h-1zM496 145h1v1h-1zM497 145h1v1h-1zM498 145h1v1h-1zM499 145h1v1h-1z"/><path fill="#4B692F" d="M480 146h1v1h-1zM481 146h1v1h-1zM482 146h1v1h-1zM483 146h1v1h-1zM484 146h1v1h-1zM485 146h1v1h-1zM486 146h1v1h-1zM487 146h1v1h-1zM488 146h1v1h-1zM489 146h1v1h-1z"/><path fill="#99E550" d="M490 146h1v1h-1zM491 146h1v1h-1zM492 146h1v1h-1zM493 146h1v1h-1zM494 146h1v1h-1z"/><path fill="#6ABE30" d="M495 146h1v1h-1zM496 146h1v1h-1zM497 146h1v1h-1zM498 146h1v1h-1zM499 146h1v1h-1z"/><path fill="#4B692F" d="M480 147h1v1h-1zM481 147h1v1h-1zM482 147h1v1h-1zM483 147h1v1h-1zM484 147h1v1h-1zM485 147h1v1h-1zM486 147h1v1h-1zM487 147h1v1h-1zM488 147h1v1h-1zM489 147h1v1h-1z"/><path fill="#99E550" d="M490 147h1v1h-1zM491 147h1v1h-1zM492 147h1v1h-1zM493 147h1v1h-1zM494 147h1v1h-1z"/><path fill="#6ABE30" d="M495 147h1v1h-1zM496 147h1v1h-1zM497 147h1v1h-1zM498 147h1v1h-1zM499 147h1v1h-1z"/><path fill="#4B692F" d="M480 148h1v1h-1zM481 148h1v1h-1zM482 148h1v1h-1zM483 148h1v1h-1zM484 148h1v1h-1zM485 148h1v1h-1zM486 148h1v1h-1zM487 148h1v1h-1zM488 148h1v1h-1zM489 148h1v1h-1z"/><path fill="#99E550" d="M490 148h1v1h-1zM491 148h1v1h-1zM492 148h1v1h-1zM493 148h1v1h-1zM494 148h1v1h-1z"/><path fill="#6ABE30" d="M495 148h1v1h-1zM496 148h1v1h-1zM497 148h1v1h-1zM498 148h1v1h-1zM499 148h1v1h-1z"/><path fill="#4B692F" d="M480 149h1v1h-1zM481 149h1v1h-1zM482 149h1v1h-1zM483 149h1v1h-1zM484 149h1v1h-1zM485 149h1v1h-1zM486 149h1v1h-1zM487 149h1v1h-1zM488 149h1v1h-1zM489 149h1v1h-1z"/><path fill="#99E550" d="M490 149h1v1h-1zM491 149h1v1h-1zM492 149h1v1h-1zM493 149h1v1h-1zM494 149h1v1h-1z"/><path fill="#6ABE30" d="M495 149h1v1h-1zM496 149h1v1h-1zM497 149h1v1h-1zM498 149h1v1h-1zM499 149h1v1h-1z"/><path fill="#4B692F" d="M485 150h1v1h-1zM486 150h1v1h-1zM487 150h1v1h-1zM488 150h1v1h-1zM489 150h1v1h-1zM490 150h1v1h-1zM491 150h1v1h-1zM492 150h1v1h-1zM493 150h1v1h-1zM494 150h1v1h-1z"/><path fill="#99E550" d="M495 150h1v1h-1zM496 150h1v1h-1zM497 150h1v1h-1zM498 150h1v1h-1zM499 150h1v1h-1z"/><path fill="#4B692F" d="M485 151h1v1h-1zM486 151h1v1h-1zM487 151h1v1h-1zM488 151h1v1h-1zM489 151h1v1h-1zM490 151h1v1h-1zM491 151h1v1h-1zM492 151h1v1h-1zM493 151h1v1h-1zM494 151h1v1h-1z"/><path fill="#99E550" d="M495 151h1v1h-1zM496 151h1v1h-1zM497 151h1v1h-1zM498 151h1v1h-1zM499 151h1v1h-1z"/><path fill="#4B692F" d="M485 152h1v1h-1zM486 152h1v1h-1zM487 152h1v1h-1zM488 152h1v1h-1zM489 152h1v1h-1zM490 152h1v1h-1zM491 152h1v1h-1zM492 152h1v1h-1zM493 152h1v1h-1zM494 152h1v1h-1z"/><path fill="#99E550" d="M495 152h1v1h-1zM496 152h1v1h-1zM497 152h1v1h-1zM498 152h1v1h-1zM499 152h1v1h-1z"/><path fill="#4B692F" d="M485 153h1v1h-1zM486 153h1v1h-1zM487 153h1v1h-1zM488 153h1v1h-1zM489 153h1v1h-1zM490 153h1v1h-1zM491 153h1v1h-1zM492 153h1v1h-1zM493 153h1v1h-1zM494 153h1v1h-1z"/><path fill="#99E550" d="M495 153h1v1h-1zM496 153h1v1h-1zM497 153h1v1h-1zM498 153h1v1h-1zM499 153h1v1h-1z"/><path fill="#4B692F" d="M485 154h1v1h-1zM486 154h1v1h-1zM487 154h1v1h-1zM488 154h1v1h-1zM489 154h1v1h-1zM490 154h1v1h-1zM491 154h1v1h-1zM492 154h1v1h-1zM493 154h1v1h-1zM494 154h1v1h-1z"/><path fill="#99E550" d="M495 154h1v1h-1zM496 154h1v1h-1zM497 154h1v1h-1zM498 154h1v1h-1zM499 154h1v1h-1z"/><path fill="#4B692F" d="M490 155h1v1h-1zM491 155h1v1h-1zM492 155h1v1h-1zM493 155h1v1h-1zM494 155h1v1h-1zM495 155h1v1h-1zM496 155h1v1h-1zM497 155h1v1h-1zM498 155h1v1h-1zM499 155h1v1h-1zM490 156h1v1h-1zM491 156h1v1h-1zM492 156h1v1h-1zM493 156h1v1h-1zM494 156h1v1h-1zM495 156h1v1h-1zM496 156h1v1h-1zM497 156h1v1h-1zM498 156h1v1h-1zM499 156h1v1h-1zM490 157h1v1h-1zM491 157h1v1h-1zM492 157h1v1h-1zM493 157h1v1h-1zM494 157h1v1h-1zM495 157h1v1h-1zM496 157h1v1h-1zM497 157h1v1h-1zM498 157h1v1h-1zM499 157h1v1h-1zM490 158h1v1h-1zM491 158h1v1h-1zM492 158h1v1h-1zM493 158h1v1h-1zM494 158h1v1h-1zM495 158h1v1h-1zM496 158h1v1h-1zM497 158h1v1h-1zM498 158h1v1h-1zM499 158h1v1h-1zM490 159h1v1h-1zM491 159h1v1h-1zM492 159h1v1h-1zM493 159h1v1h-1zM494 159h1v1h-1zM495 159h1v1h-1zM496 159h1v1h-1zM497 159h1v1h-1zM498 159h1v1h-1zM499 159h1v1h-1zM495 160h1v1h-1zM496 160h1v1h-1zM497 160h1v1h-1zM498 160h1v1h-1zM499 160h1v1h-1zM495 161h1v1h-1zM496 161h1v1h-1zM497 161h1v1h-1zM498 161h1v1h-1zM499 161h1v1h-1zM495 162h1v1h-1zM496 162h1v1h-1zM497 162h1v1h-1zM498 162h1v1h-1zM499 162h1v1h-1zM495 163h1v1h-1zM496 163h1v1h-1zM497 163h1v1h-1zM498 163h1v1h-1zM499 163h1v1h-1zM495 164h1v1h-1zM496 164h1v1h-1zM497 164h1v1h-1zM498 164h1v1h-1zM499 164h1v1h-1zM55 245h1v1h-1zM56 245h1v1h-1zM57 245h1v1h-1zM58 245h1v1h-1zM59 245h1v1h-1zM60 245h1v1h-1zM61 245h1v1h-1zM62 245h1v1h-1zM63 245h1v1h-1zM64 245h1v1h-1zM65 245h1v1h-1zM66 245h1v1h-1zM67 245h1v1h-1zM68 245h1v1h-1zM69 245h1v1h-1zM70 245h1v1h-1zM71 245h1v1h-1zM72 245h1v1h-1zM73 245h1v1h-1zM74 245h1v1h-1zM55 246h1v1h-1zM56 246h1v1h-1zM57 246h1v1h-1zM58 246h1v1h-1zM59 246h1v1h-1zM60 246h1v1h-1zM61 246h1v1h-1zM62 246h1v1h-1zM63 246h1v1h-1zM64 246h1v1h-1zM65 246h1v1h-1zM66 246h1v1h-1zM67 246h1v1h-1zM68 246h1v1h-1zM69 246h1v1h-1zM70 246h1v1h-1zM71 246h1v1h-1zM72 246h1v1h-1zM73 246h1v1h-1zM74 246h1v1h-1zM55 247h1v1h-1zM56 247h1v1h-1zM57 247h1v1h-1zM58 247h1v1h-1zM59 247h1v1h-1zM60 247h1v1h-1zM61 247h1v1h-1zM62 247h1v1h-1zM63 247h1v1h-1zM64 247h1v1h-1zM65 247h1v1h-1zM66 247h1v1h-1zM67 247h1v1h-1zM68 247h1v1h-1zM69 247h1v1h-1zM70 247h1v1h-1zM71 247h1v1h-1zM72 247h1v1h-1zM73 247h1v1h-1zM74 247h1v1h-1zM55 248h1v1h-1zM56 248h1v1h-1zM57 248h1v1h-1zM58 248h1v1h-1zM59 248h1v1h-1zM60 248h1v1h-1zM61 248h1v1h-1zM62 248h1v1h-1zM63 248h1v1h-1zM64 248h1v1h-1zM65 248h1v1h-1zM66 248h1v1h-1zM67 248h1v1h-1zM68 248h1v1h-1zM69 248h1v1h-1zM70 248h1v1h-1zM71 248h1v1h-1zM72 248h1v1h-1zM73 248h1v1h-1zM74 248h1v1h-1zM55 249h1v1h-1zM56 249h1v1h-1zM57 249h1v1h-1zM58 249h1v1h-1zM59 249h1v1h-1zM60 249h1v1h-1zM61 249h1v1h-1zM62 249h1v1h-1zM63 249h1v1h-1zM64 249h1v1h-1zM65 249h1v1h-1zM66 249h1v1h-1zM67 249h1v1h-1zM68 249h1v1h-1zM69 249h1v1h-1zM70 249h1v1h-1zM71 249h1v1h-1zM72 249h1v1h-1zM73 249h1v1h-1zM74 249h1v1h-1zM55 250h1v1h-1zM56 250h1v1h-1zM57 250h1v1h-1zM58 250h1v1h-1zM59 250h1v1h-1z"/><path fill="#99E550" d="M60 250h1v1h-1zM61 250h1v1h-1zM62 250h1v1h-1zM63 250h1v1h-1zM64 250h1v1h-1zM65 250h1v1h-1zM66 250h1v1h-1zM67 250h1v1h-1zM68 250h1v1h-1zM69 250h1v1h-1z"/><path fill="#4B692F" d="M70 250h1v1h-1zM71 250h1v1h-1zM72 250h1v1h-1zM73 250h1v1h-1zM74 250h1v1h-1zM75 250h1v1h-1zM76 250h1v1h-1zM77 250h1v1h-1zM78 250h1v1h-1zM79 250h1v1h-1zM55 251h1v1h-1zM56 251h1v1h-1zM57 251h1v1h-1zM58 251h1v1h-1zM59 251h1v1h-1z"/><path fill="#99E550" d="M60 251h1v1h-1zM61 251h1v1h-1zM62 251h1v1h-1zM63 251h1v1h-1zM64 251h1v1h-1zM65 251h1v1h-1zM66 251h1v1h-1zM67 251h1v1h-1zM68 251h1v1h-1zM69 251h1v1h-1z"/><path fill="#4B692F" d="M70 251h1v1h-1zM71 251h1v1h-1zM72 251h1v1h-1zM73 251h1v1h-1zM74 251h1v1h-1zM75 251h1v1h-1zM76 251h1v1h-1zM77 251h1v1h-1zM78 251h1v1h-1zM79 251h1v1h-1zM55 252h1v1h-1zM56 252h1v1h-1zM57 252h1v1h-1zM58 252h1v1h-1zM59 252h1v1h-1z"/><path fill="#99E550" d="M60 252h1v1h-1zM61 252h1v1h-1zM62 252h1v1h-1zM63 252h1v1h-1zM64 252h1v1h-1zM65 252h1v1h-1zM66 252h1v1h-1zM67 252h1v1h-1zM68 252h1v1h-1zM69 252h1v1h-1z"/><path fill="#4B692F" d="M70 252h1v1h-1zM71 252h1v1h-1zM72 252h1v1h-1zM73 252h1v1h-1zM74 252h1v1h-1zM75 252h1v1h-1zM76 252h1v1h-1zM77 252h1v1h-1zM78 252h1v1h-1zM79 252h1v1h-1zM55 253h1v1h-1zM56 253h1v1h-1zM57 253h1v1h-1zM58 253h1v1h-1zM59 253h1v1h-1z"/><path fill="#99E550" d="M60 253h1v1h-1zM61 253h1v1h-1zM62 253h1v1h-1zM63 253h1v1h-1zM64 253h1v1h-1zM65 253h1v1h-1zM66 253h1v1h-1zM67 253h1v1h-1zM68 253h1v1h-1zM69 253h1v1h-1z"/><path fill="#4B692F" d="M70 253h1v1h-1zM71 253h1v1h-1zM72 253h1v1h-1zM73 253h1v1h-1zM74 253h1v1h-1zM75 253h1v1h-1zM76 253h1v1h-1zM77 253h1v1h-1zM78 253h1v1h-1zM79 253h1v1h-1zM55 254h1v1h-1zM56 254h1v1h-1zM57 254h1v1h-1zM58 254h1v1h-1zM59 254h1v1h-1z"/><path fill="#99E550" d="M60 254h1v1h-1zM61 254h1v1h-1zM62 254h1v1h-1zM63 254h1v1h-1zM64 254h1v1h-1zM65 254h1v1h-1zM66 254h1v1h-1zM67 254h1v1h-1zM68 254h1v1h-1zM69 254h1v1h-1z"/><path fill="#4B692F" d="M70 254h1v1h-1zM71 254h1v1h-1zM72 254h1v1h-1zM73 254h1v1h-1zM74 254h1v1h-1zM75 254h1v1h-1zM76 254h1v1h-1zM77 254h1v1h-1zM78 254h1v1h-1zM79 254h1v1h-1z"/><path fill="#8FD032" d="M15 255h1v1h-1zM16 255h1v1h-1zM17 255h1v1h-1zM18 255h1v1h-1zM19 255h1v1h-1zM20 255h1v1h-1zM21 255h1v1h-1zM22 255h1v1h-1zM23 255h1v1h-1zM24 255h1v1h-1z"/><path fill="#4B692F" d="M60 255h1v1h-1zM61 255h1v1h-1zM62 255h1v1h-1zM63 255h1v1h-1zM64 255h1v1h-1z"/><path fill="#6ABE30" d="M65 255h1v1h-1zM66 255h1v1h-1zM67 255h1v1h-1zM68 255h1v1h-1zM69 255h1v1h-1z"/><path fill="#99E550" d="M70 255h1v1h-1zM71 255h1v1h-1zM72 255h1v1h-1zM73 255h1v1h-1zM74 255h1v1h-1z"/><path fill="#4B692F" d="M75 255h1v1h-1zM76 255h1v1h-1zM77 255h1v1h-1zM78 255h1v1h-1zM79 255h1v1h-1zM80 255h1v1h-1zM81 255h1v1h-1zM82 255h1v1h-1zM83 255h1v1h-1zM84 255h1v1h-1z"/><path fill="#99E550" d="M155 255h1v1h-1zM156 255h1v1h-1zM157 255h1v1h-1zM158 255h1v1h-1zM159 255h1v1h-1zM160 255h1v1h-1zM161 255h1v1h-1zM162 255h1v1h-1zM163 255h1v1h-1zM164 255h1v1h-1zM185 255h1v1h-1zM186 255h1v1h-1zM187 255h1v1h-1zM188 255h1v1h-1zM189 255h1v1h-1zM190 255h1v1h-1zM191 255h1v1h-1zM192 255h1v1h-1zM193 255h1v1h-1zM194 255h1v1h-1z"/><path fill="#8FD032" d="M485 255h1v1h-1zM486 255h1v1h-1zM487 255h1v1h-1zM488 255h1v1h-1zM489 255h1v1h-1zM490 255h1v1h-1zM491 255h1v1h-1zM492 255h1v1h-1zM493 255h1v1h-1zM494 255h1v1h-1zM495 255h1v1h-1zM496 255h1v1h-1zM497 255h1v1h-1zM498 255h1v1h-1zM499 255h1v1h-1zM15 256h1v1h-1zM16 256h1v1h-1zM17 256h1v1h-1zM18 256h1v1h-1zM19 256h1v1h-1zM20 256h1v1h-1zM21 256h1v1h-1zM22 256h1v1h-1zM23 256h1v1h-1zM24 256h1v1h-1z"/><path fill="#4B692F" d="M60 256h1v1h-1zM61 256h1v1h-1zM62 256h1v1h-1zM63 256h1v1h-1zM64 256h1v1h-1z"/><path fill="#6ABE30" d="M65 256h1v1h-1zM66 256h1v1h-1zM67 256h1v1h-1zM68 256h1v1h-1zM69 256h1v1h-1z"/><path fill="#99E550" d="M70 256h1v1h-1zM71 256h1v1h-1zM72 256h1v1h-1zM73 256h1v1h-1zM74 256h1v1h-1z"/><path fill="#4B692F" d="M75 256h1v1h-1zM76 256h1v1h-1zM77 256h1v1h-1zM78 256h1v1h-1zM79 256h1v1h-1zM80 256h1v1h-1zM81 256h1v1h-1zM82 256h1v1h-1zM83 256h1v1h-1zM84 256h1v1h-1z"/><path fill="#99E550" d="M155 256h1v1h-1zM156 256h1v1h-1zM157 256h1v1h-1zM158 256h1v1h-1zM159 256h1v1h-1zM160 256h1v1h-1zM161 256h1v1h-1zM162 256h1v1h-1zM163 256h1v1h-1zM164 256h1v1h-1zM185 256h1v1h-1zM186 256h1v1h-1zM187 256h1v1h-1zM188 256h1v1h-1zM189 256h1v1h-1zM190 256h1v1h-1zM191 256h1v1h-1zM192 256h1v1h-1zM193 256h1v1h-1zM194 256h1v1h-1z"/><path fill="#8FD032" d="M485 256h1v1h-1zM486 256h1v1h-1zM487 256h1v1h-1zM488 256h1v1h-1zM489 256h1v1h-1zM490 256h1v1h-1zM491 256h1v1h-1zM492 256h1v1h-1zM493 256h1v1h-1zM494 256h1v1h-1zM495 256h1v1h-1zM496 256h1v1h-1zM497 256h1v1h-1zM498 256h1v1h-1zM499 256h1v1h-1zM15 257h1v1h-1zM16 257h1v1h-1zM17 257h1v1h-1zM18 257h1v1h-1zM19 257h1v1h-1zM20 257h1v1h-1zM21 257h1v1h-1zM22 257h1v1h-1zM23 257h1v1h-1zM24 257h1v1h-1z"/><path fill="#4B692F" d="M60 257h1v1h-1zM61 257h1v1h-1zM62 257h1v1h-1zM63 257h1v1h-1zM64 257h1v1h-1z"/><path fill="#6ABE30" d="M65 257h1v1h-1zM66 257h1v1h-1zM67 257h1v1h-1zM68 257h1v1h-1zM69 257h1v1h-1z"/><path fill="#99E550" d="M70 257h1v1h-1zM71 257h1v1h-1zM72 257h1v1h-1zM73 257h1v1h-1zM74 257h1v1h-1z"/><path fill="#4B692F" d="M75 257h1v1h-1zM76 257h1v1h-1zM77 257h1v1h-1zM78 257h1v1h-1zM79 257h1v1h-1zM80 257h1v1h-1zM81 257h1v1h-1zM82 257h1v1h-1zM83 257h1v1h-1zM84 257h1v1h-1z"/><path fill="#99E550" d="M155 257h1v1h-1zM156 257h1v1h-1zM157 257h1v1h-1zM158 257h1v1h-1zM159 257h1v1h-1zM160 257h1v1h-1zM161 257h1v1h-1zM162 257h1v1h-1zM163 257h1v1h-1zM164 257h1v1h-1zM185 257h1v1h-1zM186 257h1v1h-1zM187 257h1v1h-1zM188 257h1v1h-1zM189 257h1v1h-1zM190 257h1v1h-1zM191 257h1v1h-1zM192 257h1v1h-1zM193 257h1v1h-1zM194 257h1v1h-1z"/><path fill="#8FD032" d="M485 257h1v1h-1zM486 257h1v1h-1zM487 257h1v1h-1zM488 257h1v1h-1zM489 257h1v1h-1zM490 257h1v1h-1zM491 257h1v1h-1zM492 257h1v1h-1zM493 257h1v1h-1zM494 257h1v1h-1zM495 257h1v1h-1zM496 257h1v1h-1zM497 257h1v1h-1zM498 257h1v1h-1zM499 257h1v1h-1zM15 258h1v1h-1zM16 258h1v1h-1zM17 258h1v1h-1zM18 258h1v1h-1zM19 258h1v1h-1zM20 258h1v1h-1zM21 258h1v1h-1zM22 258h1v1h-1zM23 258h1v1h-1zM24 258h1v1h-1z"/><path fill="#4B692F" d="M60 258h1v1h-1zM61 258h1v1h-1zM62 258h1v1h-1zM63 258h1v1h-1zM64 258h1v1h-1z"/><path fill="#6ABE30" d="M65 258h1v1h-1zM66 258h1v1h-1zM67 258h1v1h-1zM68 258h1v1h-1zM69 258h1v1h-1z"/><path fill="#99E550" d="M70 258h1v1h-1zM71 258h1v1h-1zM72 258h1v1h-1zM73 258h1v1h-1zM74 258h1v1h-1z"/><path fill="#4B692F" d="M75 258h1v1h-1zM76 258h1v1h-1zM77 258h1v1h-1zM78 258h1v1h-1zM79 258h1v1h-1zM80 258h1v1h-1zM81 258h1v1h-1zM82 258h1v1h-1zM83 258h1v1h-1zM84 258h1v1h-1z"/><path fill="#99E550" d="M155 258h1v1h-1zM156 258h1v1h-1zM157 258h1v1h-1zM158 258h1v1h-1zM159 258h1v1h-1zM160 258h1v1h-1zM161 258h1v1h-1zM162 258h1v1h-1zM163 258h1v1h-1zM164 258h1v1h-1zM185 258h1v1h-1zM186 258h1v1h-1zM187 258h1v1h-1zM188 258h1v1h-1zM189 258h1v1h-1zM190 258h1v1h-1zM191 258h1v1h-1zM192 258h1v1h-1zM193 258h1v1h-1zM194 258h1v1h-1z"/><path fill="#8FD032" d="M485 258h1v1h-1zM486 258h1v1h-1zM487 258h1v1h-1zM488 258h1v1h-1zM489 258h1v1h-1zM490 258h1v1h-1zM491 258h1v1h-1zM492 258h1v1h-1zM493 258h1v1h-1zM494 258h1v1h-1zM495 258h1v1h-1zM496 258h1v1h-1zM497 258h1v1h-1zM498 258h1v1h-1zM499 258h1v1h-1zM15 259h1v1h-1zM16 259h1v1h-1zM17 259h1v1h-1zM18 259h1v1h-1zM19 259h1v1h-1zM20 259h1v1h-1zM21 259h1v1h-1zM22 259h1v1h-1zM23 259h1v1h-1zM24 259h1v1h-1z"/><path fill="#4B692F" d="M60 259h1v1h-1zM61 259h1v1h-1zM62 259h1v1h-1zM63 259h1v1h-1zM64 259h1v1h-1z"/><path fill="#6ABE30" d="M65 259h1v1h-1zM66 259h1v1h-1zM67 259h1v1h-1zM68 259h1v1h-1zM69 259h1v1h-1z"/><path fill="#99E550" d="M70 259h1v1h-1zM71 259h1v1h-1zM72 259h1v1h-1zM73 259h1v1h-1zM74 259h1v1h-1z"/><path fill="#4B692F" d="M75 259h1v1h-1zM76 259h1v1h-1zM77 259h1v1h-1zM78 259h1v1h-1zM79 259h1v1h-1zM80 259h1v1h-1zM81 259h1v1h-1zM82 259h1v1h-1zM83 259h1v1h-1zM84 259h1v1h-1z"/><path fill="#99E550" d="M155 259h1v1h-1zM156 259h1v1h-1zM157 259h1v1h-1zM158 259h1v1h-1zM159 259h1v1h-1zM160 259h1v1h-1zM161 259h1v1h-1zM162 259h1v1h-1zM163 259h1v1h-1zM164 259h1v1h-1zM185 259h1v1h-1zM186 259h1v1h-1zM187 259h1v1h-1zM188 259h1v1h-1zM189 259h1v1h-1zM190 259h1v1h-1zM191 259h1v1h-1zM192 259h1v1h-1zM193 259h1v1h-1zM194 259h1v1h-1z"/><path fill="#8FD032" d="M485 259h1v1h-1zM486 259h1v1h-1zM487 259h1v1h-1zM488 259h1v1h-1zM489 259h1v1h-1zM490 259h1v1h-1zM491 259h1v1h-1zM492 259h1v1h-1zM493 259h1v1h-1zM494 259h1v1h-1zM495 259h1v1h-1zM496 259h1v1h-1zM497 259h1v1h-1zM498 259h1v1h-1zM499 259h1v1h-1zM0 260h1v1H0zM1 260h1v1H1zM2 260h1v1H2zM3 260h1v1H3zM4 260h1v1H4zM5 260h1v1H5zM6 260h1v1H6zM7 260h1v1H7zM8 260h1v1H8zM9 260h1v1H9zM10 260h1v1h-1zM11 260h1v1h-1zM12 260h1v1h-1zM13 260h1v1h-1zM14 260h1v1h-1zM15 260h1v1h-1zM16 260h1v1h-1zM17 260h1v1h-1zM18 260h1v1h-1zM19 260h1v1h-1zM20 260h1v1h-1zM21 260h1v1h-1zM22 260h1v1h-1zM23 260h1v1h-1zM24 260h1v1h-1z"/><path fill="#4B692F" d="M60 260h1v1h-1zM61 260h1v1h-1zM62 260h1v1h-1zM63 260h1v1h-1zM64 260h1v1h-1zM65 260h1v1h-1zM66 260h1v1h-1zM67 260h1v1h-1zM68 260h1v1h-1zM69 260h1v1h-1z"/><path fill="#6ABE30" d="M70 260h1v1h-1zM71 260h1v1h-1zM72 260h1v1h-1zM73 260h1v1h-1zM74 260h1v1h-1z"/><path fill="#99E550" d="M75 260h1v1h-1zM76 260h1v1h-1zM77 260h1v1h-1zM78 260h1v1h-1zM79 260h1v1h-1z"/><path fill="#4B692F" d="M80 260h1v1h-1zM81 260h1v1h-1zM82 260h1v1h-1zM83 260h1v1h-1zM84 260h1v1h-1zM85 260h1v1h-1zM86 260h1v1h-1zM87 260h1v1h-1zM88 260h1v1h-1zM89 260h1v1h-1z"/><path fill="#99E550" d="M150 260h1v1h-1zM151 260h1v1h-1zM152 260h1v1h-1zM153 260h1v1h-1zM154 260h1v1h-1zM155 260h1v1h-1zM156 260h1v1h-1zM157 260h1v1h-1zM158 260h1v1h-1zM159 260h1v1h-1zM160 260h1v1h-1zM161 260h1v1h-1zM162 260h1v1h-1zM163 260h1v1h-1zM164 260h1v1h-1zM180 260h1v1h-1zM181 260h1v1h-1zM182 260h1v1h-1zM183 260h1v1h-1zM184 260h1v1h-1zM185 260h1v1h-1zM186 260h1v1h-1zM187 260h1v1h-1zM188 260h1v1h-1zM189 260h1v1h-1zM210 260h1v1h-1zM211 260h1v1h-1zM212 260h1v1h-1zM213 260h1v1h-1zM214 260h1v1h-1zM215 260h1v1h-1zM216 260h1v1h-1zM217 260h1v1h-1zM218 260h1v1h-1zM219 260h1v1h-1zM220 260h1v1h-1zM221 260h1v1h-1zM222 260h1v1h-1zM223 260h1v1h-1zM224 260h1v1h-1z"/><path fill="#8FD032" d="M250 260h1v1h-1zM251 260h1v1h-1zM252 260h1v1h-1zM253 260h1v1h-1zM254 260h1v1h-1zM255 260h1v1h-1zM256 260h1v1h-1zM257 260h1v1h-1zM258 260h1v1h-1zM259 260h1v1h-1zM260 260h1v1h-1zM261 260h1v1h-1zM262 260h1v1h-1zM263 260h1v1h-1zM264 260h1v1h-1zM265 260h1v1h-1zM266 260h1v1h-1zM267 260h1v1h-1zM268 260h1v1h-1zM269 260h1v1h-1zM280 260h1v1h-1zM281 260h1v1h-1zM282 260h1v1h-1zM283 260h1v1h-1zM284 260h1v1h-1zM285 260h1v1h-1zM286 260h1v1h-1zM287 260h1v1h-1zM288 260h1v1h-1zM289 260h1v1h-1z"/><path fill="#99E550" d="M370 260h1v1h-1zM371 260h1v1h-1zM372 260h1v1h-1zM373 260h1v1h-1zM374 260h1v1h-1zM375 260h1v1h-1zM376 260h1v1h-1zM377 260h1v1h-1zM378 260h1v1h-1zM379 260h1v1h-1zM390 260h1v1h-1zM391 260h1v1h-1zM392 260h1v1h-1zM393 260h1v1h-1zM394 260h1v1h-1zM395 260h1v1h-1zM396 260h1v1h-1zM397 260h1v1h-1zM398 260h1v1h-1zM399 260h1v1h-1zM420 260h1v1h-1zM421 260h1v1h-1zM422 260h1v1h-1zM423 260h1v1h-1zM424 260h1v1h-1zM425 260h1v1h-1zM426 260h1v1h-1zM427 260h1v1h-1zM428 260h1v1h-1zM429 260h1v1h-1z"/><path fill="#8FD032" d="M470 260h1v1h-1zM471 260h1v1h-1zM472 260h1v1h-1zM473 260h1v1h-1zM474 260h1v1h-1zM475 260h1v1h-1zM476 260h1v1h-1zM477 260h1v1h-1zM478 260h1v1h-1zM479 260h1v1h-1zM480 260h1v1h-1zM481 260h1v1h-1zM482 260h1v1h-1zM483 260h1v1h-1zM484 260h1v1h-1zM485 260h1v1h-1zM486 260h1v1h-1zM487 260h1v1h-1zM488 260h1v1h-1zM489 260h1v1h-1zM490 260h1v1h-1zM491 260h1v1h-1zM492 260h1v1h-1zM493 260h1v1h-1zM494 260h1v1h-1zM495 260h1v1h-1zM496 260h1v1h-1zM497 260h1v1h-1zM498 260h1v1h-1zM499 260h1v1h-1zM0 261h1v1H0zM1 261h1v1H1zM2 261h1v1H2zM3 261h1v1H3zM4 261h1v1H4zM5 261h1v1H5zM6 261h1v1H6zM7 261h1v1H7zM8 261h1v1H8zM9 261h1v1H9zM10 261h1v1h-1zM11 261h1v1h-1zM12 261h1v1h-1zM13 261h1v1h-1zM14 261h1v1h-1zM15 261h1v1h-1zM16 261h1v1h-1zM17 261h1v1h-1zM18 261h1v1h-1zM19 261h1v1h-1zM20 261h1v1h-1zM21 261h1v1h-1zM22 261h1v1h-1zM23 261h1v1h-1zM24 261h1v1h-1z"/><path fill="#4B692F" d="M60 261h1v1h-1zM61 261h1v1h-1zM62 261h1v1h-1zM63 261h1v1h-1zM64 261h1v1h-1zM65 261h1v1h-1zM66 261h1v1h-1zM67 261h1v1h-1zM68 261h1v1h-1zM69 261h1v1h-1z"/><path fill="#6ABE30" d="M70 261h1v1h-1zM71 261h1v1h-1zM72 261h1v1h-1zM73 261h1v1h-1zM74 261h1v1h-1z"/><path fill="#99E550" d="M75 261h1v1h-1zM76 261h1v1h-1zM77 261h1v1h-1zM78 261h1v1h-1zM79 261h1v1h-1z"/><path fill="#4B692F" d="M80 261h1v1h-1zM81 261h1v1h-1zM82 261h1v1h-1zM83 261h1v1h-1zM84 261h1v1h-1zM85 261h1v1h-1zM86 261h1v1h-1zM87 261h1v1h-1zM88 261h1v1h-1zM89 261h1v1h-1z"/><path fill="#99E550" d="M150 261h1v1h-1zM151 261h1v1h-1zM152 261h1v1h-1zM153 261h1v1h-1zM154 261h1v1h-1zM155 261h1v1h-1zM156 261h1v1h-1zM157 261h1v1h-1zM158 261h1v1h-1zM159 261h1v1h-1zM160 261h1v1h-1zM161 261h1v1h-1zM162 261h1v1h-1zM163 261h1v1h-1zM164 261h1v1h-1zM180 261h1v1h-1zM181 261h1v1h-1zM182 261h1v1h-1zM183 261h1v1h-1zM184 261h1v1h-1zM185 261h1v1h-1zM186 261h1v1h-1zM187 261h1v1h-1zM188 261h1v1h-1zM189 261h1v1h-1zM210 261h1v1h-1zM211 261h1v1h-1zM212 261h1v1h-1zM213 261h1v1h-1zM214 261h1v1h-1zM215 261h1v1h-1zM216 261h1v1h-1zM217 261h1v1h-1zM218 261h1v1h-1zM219 261h1v1h-1zM220 261h1v1h-1zM221 261h1v1h-1zM222 261h1v1h-1zM223 261h1v1h-1zM224 261h1v1h-1z"/><path fill="#8FD032" d="M250 261h1v1h-1zM251 261h1v1h-1zM252 261h1v1h-1zM253 261h1v1h-1zM254 261h1v1h-1zM255 261h1v1h-1zM256 261h1v1h-1zM257 261h1v1h-1zM258 261h1v1h-1zM259 261h1v1h-1zM260 261h1v1h-1zM261 261h1v1h-1zM262 261h1v1h-1zM263 261h1v1h-1zM264 261h1v1h-1zM265 261h1v1h-1zM266 261h1v1h-1zM267 261h1v1h-1zM268 261h1v1h-1zM269 261h1v1h-1zM280 261h1v1h-1zM281 261h1v1h-1zM282 261h1v1h-1zM283 261h1v1h-1zM284 261h1v1h-1zM285 261h1v1h-1zM286 261h1v1h-1zM287 261h1v1h-1zM288 261h1v1h-1zM289 261h1v1h-1z"/><path fill="#99E550" d="M370 261h1v1h-1zM371 261h1v1h-1zM372 261h1v1h-1zM373 261h1v1h-1zM374 261h1v1h-1zM375 261h1v1h-1zM376 261h1v1h-1zM377 261h1v1h-1zM378 261h1v1h-1zM379 261h1v1h-1zM390 261h1v1h-1zM391 261h1v1h-1zM392 261h1v1h-1zM393 261h1v1h-1zM394 261h1v1h-1zM395 261h1v1h-1zM396 261h1v1h-1zM397 261h1v1h-1zM398 261h1v1h-1zM399 261h1v1h-1zM420 261h1v1h-1zM421 261h1v1h-1zM422 261h1v1h-1zM423 261h1v1h-1zM424 261h1v1h-1zM425 261h1v1h-1zM426 261h1v1h-1zM427 261h1v1h-1zM428 261h1v1h-1zM429 261h1v1h-1z"/><path fill="#8FD032" d="M470 261h1v1h-1zM471 261h1v1h-1zM472 261h1v1h-1zM473 261h1v1h-1zM474 261h1v1h-1zM475 261h1v1h-1zM476 261h1v1h-1zM477 261h1v1h-1zM478 261h1v1h-1zM479 261h1v1h-1zM480 261h1v1h-1zM481 261h1v1h-1zM482 261h1v1h-1zM483 261h1v1h-1zM484 261h1v1h-1zM485 261h1v1h-1zM486 261h1v1h-1zM487 261h1v1h-1zM488 261h1v1h-1zM489 261h1v1h-1zM490 261h1v1h-1zM491 261h1v1h-1zM492 261h1v1h-1zM493 261h1v1h-1zM494 261h1v1h-1zM495 261h1v1h-1zM496 261h1v1h-1zM497 261h1v1h-1zM498 261h1v1h-1zM499 261h1v1h-1zM0 262h1v1H0zM1 262h1v1H1zM2 262h1v1H2zM3 262h1v1H3zM4 262h1v1H4zM5 262h1v1H5zM6 262h1v1H6zM7 262h1v1H7zM8 262h1v1H8zM9 262h1v1H9zM10 262h1v1h-1zM11 262h1v1h-1zM12 262h1v1h-1zM13 262h1v1h-1zM14 262h1v1h-1zM15 262h1v1h-1zM16 262h1v1h-1zM17 262h1v1h-1zM18 262h1v1h-1zM19 262h1v1h-1zM20 262h1v1h-1zM21 262h1v1h-1zM22 262h1v1h-1zM23 262h1v1h-1zM24 262h1v1h-1z"/><path fill="#4B692F" d="M60 262h1v1h-1zM61 262h1v1h-1zM62 262h1v1h-1zM63 262h1v1h-1zM64 262h1v1h-1zM65 262h1v1h-1zM66 262h1v1h-1zM67 262h1v1h-1zM68 262h1v1h-1zM69 262h1v1h-1z"/><path fill="#6ABE30" d="M70 262h1v1h-1zM71 262h1v1h-1zM72 262h1v1h-1zM73 262h1v1h-1zM74 262h1v1h-1z"/><path fill="#99E550" d="M75 262h1v1h-1zM76 262h1v1h-1zM77 262h1v1h-1zM78 262h1v1h-1zM79 262h1v1h-1z"/><path fill="#4B692F" d="M80 262h1v1h-1zM81 262h1v1h-1zM82 262h1v1h-1zM83 262h1v1h-1zM84 262h1v1h-1zM85 262h1v1h-1zM86 262h1v1h-1zM87 262h1v1h-1zM88 262h1v1h-1zM89 262h1v1h-1z"/><path fill="#99E550" d="M150 262h1v1h-1zM151 262h1v1h-1zM152 262h1v1h-1zM153 262h1v1h-1zM154 262h1v1h-1zM155 262h1v1h-1zM156 262h1v1h-1zM157 262h1v1h-1zM158 262h1v1h-1zM159 262h1v1h-1zM160 262h1v1h-1zM161 262h1v1h-1zM162 262h1v1h-1zM163 262h1v1h-1zM164 262h1v1h-1zM180 262h1v1h-1zM181 262h1v1h-1zM182 262h1v1h-1zM183 262h1v1h-1zM184 262h1v1h-1zM185 262h1v1h-1zM186 262h1v1h-1zM187 262h1v1h-1zM188 262h1v1h-1zM189 262h1v1h-1zM210 262h1v1h-1zM211 262h1v1h-1zM212 262h1v1h-1zM213 262h1v1h-1zM214 262h1v1h-1zM215 262h1v1h-1zM216 262h1v1h-1zM217 262h1v1h-1zM218 262h1v1h-1zM219 262h1v1h-1zM220 262h1v1h-1zM221 262h1v1h-1zM222 262h1v1h-1zM223 262h1v1h-1zM224 262h1v1h-1z"/><path fill="#8FD032" d="M250 262h1v1h-1zM251 262h1v1h-1zM252 262h1v1h-1zM253 262h1v1h-1zM254 262h1v1h-1zM255 262h1v1h-1zM256 262h1v1h-1zM257 262h1v1h-1zM258 262h1v1h-1zM259 262h1v1h-1zM260 262h1v1h-1zM261 262h1v1h-1zM262 262h1v1h-1zM263 262h1v1h-1zM264 262h1v1h-1zM265 262h1v1h-1zM266 262h1v1h-1zM267 262h1v1h-1zM268 262h1v1h-1zM269 262h1v1h-1zM280 262h1v1h-1zM281 262h1v1h-1zM282 262h1v1h-1zM283 262h1v1h-1zM284 262h1v1h-1zM285 262h1v1h-1zM286 262h1v1h-1zM287 262h1v1h-1zM288 262h1v1h-1zM289 262h1v1h-1z"/><path fill="#99E550" d="M370 262h1v1h-1zM371 262h1v1h-1zM372 262h1v1h-1zM373 262h1v1h-1zM374 262h1v1h-1zM375 262h1v1h-1zM376 262h1v1h-1zM377 262h1v1h-1zM378 262h1v1h-1zM379 262h1v1h-1zM390 262h1v1h-1zM391 262h1v1h-1zM392 262h1v1h-1zM393 262h1v1h-1zM394 262h1v1h-1zM395 262h1v1h-1zM396 262h1v1h-1zM397 262h1v1h-1zM398 262h1v1h-1zM399 262h1v1h-1zM420 262h1v1h-1zM421 262h1v1h-1zM422 262h1v1h-1zM423 262h1v1h-1zM424 262h1v1h-1zM425 262h1v1h-1zM426 262h1v1h-1zM427 262h1v1h-1zM428 262h1v1h-1zM429 262h1v1h-1z"/><path fill="#8FD032" d="M470 262h1v1h-1zM471 262h1v1h-1zM472 262h1v1h-1zM473 262h1v1h-1zM474 262h1v1h-1zM475 262h1v1h-1zM476 262h1v1h-1zM477 262h1v1h-1zM478 262h1v1h-1zM479 262h1v1h-1zM480 262h1v1h-1zM481 262h1v1h-1zM482 262h1v1h-1zM483 262h1v1h-1zM484 262h1v1h-1zM485 262h1v1h-1zM486 262h1v1h-1zM487 262h1v1h-1zM488 262h1v1h-1zM489 262h1v1h-1zM490 262h1v1h-1zM491 262h1v1h-1zM492 262h1v1h-1zM493 262h1v1h-1zM494 262h1v1h-1zM495 262h1v1h-1zM496 262h1v1h-1zM497 262h1v1h-1zM498 262h1v1h-1zM499 262h1v1h-1zM0 263h1v1H0zM1 263h1v1H1zM2 263h1v1H2zM3 263h1v1H3zM4 263h1v1H4zM5 263h1v1H5zM6 263h1v1H6zM7 263h1v1H7zM8 263h1v1H8zM9 263h1v1H9zM10 263h1v1h-1zM11 263h1v1h-1zM12 263h1v1h-1zM13 263h1v1h-1zM14 263h1v1h-1zM15 263h1v1h-1zM16 263h1v1h-1zM17 263h1v1h-1zM18 263h1v1h-1zM19 263h1v1h-1zM20 263h1v1h-1zM21 263h1v1h-1zM22 263h1v1h-1zM23 263h1v1h-1zM24 263h1v1h-1z"/><path fill="#4B692F" d="M60 263h1v1h-1zM61 263h1v1h-1zM62 263h1v1h-1zM63 263h1v1h-1zM64 263h1v1h-1zM65 263h1v1h-1zM66 263h1v1h-1zM67 263h1v1h-1zM68 263h1v1h-1zM69 263h1v1h-1z"/><path fill="#6ABE30" d="M70 263h1v1h-1zM71 263h1v1h-1zM72 263h1v1h-1zM73 263h1v1h-1zM74 263h1v1h-1z"/><path fill="#99E550" d="M75 263h1v1h-1zM76 263h1v1h-1zM77 263h1v1h-1zM78 263h1v1h-1zM79 263h1v1h-1z"/><path fill="#4B692F" d="M80 263h1v1h-1zM81 263h1v1h-1zM82 263h1v1h-1zM83 263h1v1h-1zM84 263h1v1h-1zM85 263h1v1h-1zM86 263h1v1h-1zM87 263h1v1h-1zM88 263h1v1h-1zM89 263h1v1h-1z"/><path fill="#99E550" d="M150 263h1v1h-1zM151 263h1v1h-1zM152 263h1v1h-1zM153 263h1v1h-1zM154 263h1v1h-1zM155 263h1v1h-1zM156 263h1v1h-1zM157 263h1v1h-1zM158 263h1v1h-1zM159 263h1v1h-1zM160 263h1v1h-1zM161 263h1v1h-1zM162 263h1v1h-1zM163 263h1v1h-1zM164 263h1v1h-1zM180 263h1v1h-1zM181 263h1v1h-1zM182 263h1v1h-1zM183 263h1v1h-1zM184 263h1v1h-1zM185 263h1v1h-1zM186 263h1v1h-1zM187 263h1v1h-1zM188 263h1v1h-1zM189 263h1v1h-1zM210 263h1v1h-1zM211 263h1v1h-1zM212 263h1v1h-1zM213 263h1v1h-1zM214 263h1v1h-1zM215 263h1v1h-1zM216 263h1v1h-1zM217 263h1v1h-1zM218 263h1v1h-1zM219 263h1v1h-1zM220 263h1v1h-1zM221 263h1v1h-1zM222 263h1v1h-1zM223 263h1v1h-1zM224 263h1v1h-1z"/><path fill="#8FD032" d="M250 263h1v1h-1zM251 263h1v1h-1zM252 263h1v1h-1zM253 263h1v1h-1zM254 263h1v1h-1zM255 263h1v1h-1zM256 263h1v1h-1zM257 263h1v1h-1zM258 263h1v1h-1zM259 263h1v1h-1zM260 263h1v1h-1zM261 263h1v1h-1zM262 263h1v1h-1zM263 263h1v1h-1zM264 263h1v1h-1zM265 263h1v1h-1zM266 263h1v1h-1zM267 263h1v1h-1zM268 263h1v1h-1zM269 263h1v1h-1zM280 263h1v1h-1zM281 263h1v1h-1zM282 263h1v1h-1zM283 263h1v1h-1zM284 263h1v1h-1zM285 263h1v1h-1zM286 263h1v1h-1zM287 263h1v1h-1zM288 263h1v1h-1zM289 263h1v1h-1z"/><path fill="#99E550" d="M370 263h1v1h-1zM371 263h1v1h-1zM372 263h1v1h-1zM373 263h1v1h-1zM374 263h1v1h-1zM375 263h1v1h-1zM376 263h1v1h-1zM377 263h1v1h-1zM378 263h1v1h-1zM379 263h1v1h-1zM390 263h1v1h-1zM391 263h1v1h-1zM392 263h1v1h-1zM393 263h1v1h-1zM394 263h1v1h-1zM395 263h1v1h-1zM396 263h1v1h-1zM397 263h1v1h-1zM398 263h1v1h-1zM399 263h1v1h-1zM420 263h1v1h-1zM421 263h1v1h-1zM422 263h1v1h-1zM423 263h1v1h-1zM424 263h1v1h-1zM425 263h1v1h-1zM426 263h1v1h-1zM427 263h1v1h-1zM428 263h1v1h-1zM429 263h1v1h-1z"/><path fill="#8FD032" d="M470 263h1v1h-1zM471 263h1v1h-1zM472 263h1v1h-1zM473 263h1v1h-1zM474 263h1v1h-1zM475 263h1v1h-1zM476 263h1v1h-1zM477 263h1v1h-1zM478 263h1v1h-1zM479 263h1v1h-1zM480 263h1v1h-1zM481 263h1v1h-1zM482 263h1v1h-1zM483 263h1v1h-1zM484 263h1v1h-1zM485 263h1v1h-1zM486 263h1v1h-1zM487 263h1v1h-1zM488 263h1v1h-1zM489 263h1v1h-1zM490 263h1v1h-1zM491 263h1v1h-1zM492 263h1v1h-1zM493 263h1v1h-1zM494 263h1v1h-1zM495 263h1v1h-1zM496 263h1v1h-1zM497 263h1v1h-1zM498 263h1v1h-1zM499 263h1v1h-1zM0 264h1v1H0zM1 264h1v1H1zM2 264h1v1H2zM3 264h1v1H3zM4 264h1v1H4zM5 264h1v1H5zM6 264h1v1H6zM7 264h1v1H7zM8 264h1v1H8zM9 264h1v1H9zM10 264h1v1h-1zM11 264h1v1h-1zM12 264h1v1h-1zM13 264h1v1h-1zM14 264h1v1h-1zM15 264h1v1h-1zM16 264h1v1h-1zM17 264h1v1h-1zM18 264h1v1h-1zM19 264h1v1h-1zM20 264h1v1h-1zM21 264h1v1h-1zM22 264h1v1h-1zM23 264h1v1h-1zM24 264h1v1h-1z"/><path fill="#4B692F" d="M60 264h1v1h-1zM61 264h1v1h-1zM62 264h1v1h-1zM63 264h1v1h-1zM64 264h1v1h-1zM65 264h1v1h-1zM66 264h1v1h-1zM67 264h1v1h-1zM68 264h1v1h-1zM69 264h1v1h-1z"/><path fill="#6ABE30" d="M70 264h1v1h-1zM71 264h1v1h-1zM72 264h1v1h-1zM73 264h1v1h-1zM74 264h1v1h-1z"/><path fill="#99E550" d="M75 264h1v1h-1zM76 264h1v1h-1zM77 264h1v1h-1zM78 264h1v1h-1zM79 264h1v1h-1z"/><path fill="#4B692F" d="M80 264h1v1h-1zM81 264h1v1h-1zM82 264h1v1h-1zM83 264h1v1h-1zM84 264h1v1h-1zM85 264h1v1h-1zM86 264h1v1h-1zM87 264h1v1h-1zM88 264h1v1h-1zM89 264h1v1h-1z"/><path fill="#99E550" d="M150 264h1v1h-1zM151 264h1v1h-1zM152 264h1v1h-1zM153 264h1v1h-1zM154 264h1v1h-1zM155 264h1v1h-1zM156 264h1v1h-1zM157 264h1v1h-1zM158 264h1v1h-1zM159 264h1v1h-1zM160 264h1v1h-1zM161 264h1v1h-1zM162 264h1v1h-1zM163 264h1v1h-1zM164 264h1v1h-1zM180 264h1v1h-1zM181 264h1v1h-1zM182 264h1v1h-1zM183 264h1v1h-1zM184 264h1v1h-1zM185 264h1v1h-1zM186 264h1v1h-1zM187 264h1v1h-1zM188 264h1v1h-1zM189 264h1v1h-1zM210 264h1v1h-1zM211 264h1v1h-1zM212 264h1v1h-1zM213 264h1v1h-1zM214 264h1v1h-1zM215 264h1v1h-1zM216 264h1v1h-1zM217 264h1v1h-1zM218 264h1v1h-1zM219 264h1v1h-1zM220 264h1v1h-1zM221 264h1v1h-1zM222 264h1v1h-1zM223 264h1v1h-1zM224 264h1v1h-1z"/><path fill="#8FD032" d="M250 264h1v1h-1zM251 264h1v1h-1zM252 264h1v1h-1zM253 264h1v1h-1zM254 264h1v1h-1zM255 264h1v1h-1zM256 264h1v1h-1zM257 264h1v1h-1zM258 264h1v1h-1zM259 264h1v1h-1zM260 264h1v1h-1zM261 264h1v1h-1zM262 264h1v1h-1zM263 264h1v1h-1zM264 264h1v1h-1zM265 264h1v1h-1zM266 264h1v1h-1zM267 264h1v1h-1zM268 264h1v1h-1zM269 264h1v1h-1zM280 264h1v1h-1zM281 264h1v1h-1zM282 264h1v1h-1zM283 264h1v1h-1zM284 264h1v1h-1zM285 264h1v1h-1zM286 264h1v1h-1zM287 264h1v1h-1zM288 264h1v1h-1zM289 264h1v1h-1z"/><path fill="#99E550" d="M370 264h1v1h-1zM371 264h1v1h-1zM372 264h1v1h-1zM373 264h1v1h-1zM374 264h1v1h-1zM375 264h1v1h-1zM376 264h1v1h-1zM377 264h1v1h-1zM378 264h1v1h-1zM379 264h1v1h-1zM390 264h1v1h-1zM391 264h1v1h-1zM392 264h1v1h-1zM393 264h1v1h-1zM394 264h1v1h-1zM395 264h1v1h-1zM396 264h1v1h-1zM397 264h1v1h-1zM398 264h1v1h-1zM399 264h1v1h-1zM420 264h1v1h-1zM421 264h1v1h-1zM422 264h1v1h-1zM423 264h1v1h-1zM424 264h1v1h-1zM425 264h1v1h-1zM426 264h1v1h-1zM427 264h1v1h-1zM428 264h1v1h-1zM429 264h1v1h-1z"/><path fill="#8FD032" d="M470 264h1v1h-1zM471 264h1v1h-1zM472 264h1v1h-1zM473 264h1v1h-1zM474 264h1v1h-1zM475 264h1v1h-1zM476 264h1v1h-1zM477 264h1v1h-1zM478 264h1v1h-1zM479 264h1v1h-1zM480 264h1v1h-1zM481 264h1v1h-1zM482 264h1v1h-1zM483 264h1v1h-1zM484 264h1v1h-1zM485 264h1v1h-1zM486 264h1v1h-1zM487 264h1v1h-1zM488 264h1v1h-1zM489 264h1v1h-1zM490 264h1v1h-1zM491 264h1v1h-1zM492 264h1v1h-1zM493 264h1v1h-1zM494 264h1v1h-1zM495 264h1v1h-1zM496 264h1v1h-1zM497 264h1v1h-1zM498 264h1v1h-1zM499 264h1v1h-1z"/></svg>