<?xml version="1.0" encoding="UTF-8" ?>
<svg version="1.1" width="100" height="60" xmlns="http://www.w3.org/2000/svg" shape-rendering="crispEdges">
<rect x="29" y="0" width="1" height="1" fill="#4B692F" />
<rect x="30" y="0" width="1" height="1" fill="#99E550" />
<rect x="31" y="0" width="1" height="1" fill="#99E550" />
<rect x="32" y="0" width="1" height="1" fill="#6ABE30" />
<rect x="33" y="0" width="1" height="1" fill="#6ABE30" />
<rect x="34" y="0" width="1" height="1" fill="#4B692F" />
<rect x="30" y="1" width="1" height="1" fill="#4B692F" />
<rect x="31" y="1" width="1" height="1" fill="#99E550" />
<rect x="32" y="1" width="1" height="1" fill="#99E550" />
<rect x="33" y="1" width="1" height="1" fill="#6ABE30" />
<rect x="34" y="1" width="1" height="1" fill="#4B692F" />
<rect x="30" y="2" width="1" height="1" fill="#4B692F" />
<rect x="31" y="2" width="1" height="1" fill="#99E550" />
<rect x="32" y="2" width="1" height="1" fill="#99E550" />
<rect x="33" y="2" width="1" height="1" fill="#6ABE30" />
<rect x="34" y="2" width="1" height="1" fill="#4B692F" />
<rect x="35" y="2" width="1" height="1" fill="#4B692F" />
<rect x="31" y="3" width="1" height="1" fill="#4B692F" />
<rect x="32" y="3" width="1" height="1" fill="#99E550" />
<rect x="33" y="3" width="1" height="1" fill="#99E550" />
<rect x="34" y="3" width="1" height="1" fill="#99E550" />
<rect x="35" y="3" width="1" height="1" fill="#4B692F" />
<rect x="36" y="3" width="1" height="1" fill="#4B692F" />
<rect x="31" y="4" width="1" height="1" fill="#4B692F" />
<rect x="32" y="4" width="1" height="1" fill="#6ABE30" />
<rect x="33" y="4" width="1" height="1" fill="#99E550" />
<rect x="34" y="4" width="1" height="1" fill="#99E550" />
<rect x="35" y="4" width="1" height="1" fill="#4B692F" />
<rect x="30" y="5" width="1" height="1" fill="#4B692F" />
<rect x="31" y="5" width="1" height="1" fill="#4B692F" />
<rect x="32" y="5" width="1" height="1" fill="#6ABE30" />
<rect x="33" y="5" width="1" height="1" fill="#99E550" />
<rect x="34" y="5" width="1" height="1" fill="#99E550" />
<rect x="35" y="5" width="1" height="1" fill="#4B692F" />
<rect x="30" y="6" width="1" height="1" fill="#4B692F" />
<rect x="31" y="6" width="1" height="1" fill="#99E550" />
<rect x="32" y="6" width="1" height="1" fill="#99E550" />
<rect x="33" y="6" width="1" height="1" fill="#99E550" />
<rect x="34" y="6" width="1" height="1" fill="#4B692F" />
<rect x="30" y="7" width="1" height="1" fill="#4B692F" />
<rect x="31" y="7" width="1" height="1" fill="#99E550" />
<rect x="32" y="7" width="1" height="1" fill="#6ABE30" />
<rect x="33" y="7" width="1" height="1" fill="#4B692F" />
<rect x="37" y="7" width="1" height="1" fill="#4B692F" />
<rect x="38" y="7" width="1" height="1" fill="#4B692F" />
<rect x="39" y="7" width="1" height="1" fill="#4B692F" />
<rect x="40" y="7" width="1" height="1" fill="#4B692F" />
<rect x="41" y="7" width="1" height="1" fill="#4B692F" />
<rect x="30" y="8" width="1" height="1" fill="#4B692F" />
<rect x="31" y="8" width="1" height="1" fill="#99E550" />
<rect x="32" y="8" width="1" height="1" fill="#6ABE30" />
<rect x="33" y="8" width="1" height="1" fill="#4B692F" />
<rect x="37" y="8" width="1" height="1" fill="#4B692F" />
<rect x="38" y="8" width="1" height="1" fill="#6ABE30" />
<rect x="39" y="8" width="1" height="1" fill="#99E550" />
<rect x="40" y="8" width="1" height="1" fill="#99E550" />
<rect x="41" y="8" width="1" height="1" fill="#4B692F" />
<rect x="30" y="9" width="1" height="1" fill="#4B692F" />
<rect x="31" y="9" width="1" height="1" fill="#99E550" />
<rect x="32" y="9" width="1" height="1" fill="#6ABE30" />
<rect x="33" y="9" width="1" height="1" fill="#4B692F" />
<rect x="37" y="9" width="1" height="1" fill="#4B692F" />
<rect x="38" y="9" width="1" height="1" fill="#6ABE30" />
<rect x="39" y="9" width="1" height="1" fill="#99E550" />
<rect x="40" y="9" width="1" height="1" fill="#99E550" />
<rect x="41" y="9" width="1" height="1" fill="#4B692F" />
<rect x="30" y="10" width="1" height="1" fill="#4B692F" />
<rect x="31" y="10" width="1" height="1" fill="#99E550" />
<rect x="32" y="10" width="1" height="1" fill="#99E550" />
<rect x="33" y="10" width="1" height="1" fill="#6ABE30" />
<rect x="34" y="10" width="1" height="1" fill="#4B692F" />
<rect x="38" y="10" width="1" height="1" fill="#4B692F" />
<rect x="39" y="10" width="1" height="1" fill="#99E550" />
<rect x="40" y="10" width="1" height="1" fill="#99E550" />
<rect x="41" y="10" width="1" height="1" fill="#4B692F" />
<rect x="30" y="11" width="1" height="1" fill="#4B692F" />
<rect x="31" y="11" width="1" height="1" fill="#4B692F" />
<rect x="32" y="11" width="1" height="1" fill="#99E550" />
<rect x="33" y="11" width="1" height="1" fill="#6ABE30" />
<rect x="34" y="11" width="1" height="1" fill="#4B692F" />
<rect x="35" y="11" width="1" height="1" fill="#4B692F" />
<rect x="38" y="11" width="1" height="1" fill="#4B692F" />
<rect x="39" y="11" width="1" height="1" fill="#99E550" />
<rect x="40" y="11" width="1" height="1" fill="#99E550" />
<rect x="41" y="11" width="1" height="1" fill="#4B692F" />
<rect x="31" y="12" width="1" height="1" fill="#4B692F" />
<rect x="32" y="12" width="1" height="1" fill="#4B692F" />
<rect x="33" y="12" width="1" height="1" fill="#99E550" />
<rect x="34" y="12" width="1" height="1" fill="#6ABE30" />
<rect x="35" y="12" width="1" height="1" fill="#4B692F" />
<rect x="36" y="12" width="1" height="1" fill="#4B692F" />
<rect x="37" y="12" width="1" height="1" fill="#4B692F" />
<rect x="38" y="12" width="1" height="1" fill="#99E550" />
<rect x="39" y="12" width="1" height="1" fill="#99E550" />
<rect x="40" y="12" width="1" height="1" fill="#99E550" />
<rect x="41" y="12" width="1" height="1" fill="#4B692F" />
<rect x="32" y="13" width="1" height="1" fill="#4B692F" />
<rect x="33" y="13" width="1" height="1" fill="#4B692F" />
<rect x="34" y="13" width="1" height="1" fill="#99E550" />
<rect x="35" y="13" width="1" height="1" fill="#99E550" />
<rect x="36" y="13" width="1" height="1" fill="#99E550" />
<rect x="37" y="13" width="1" height="1" fill="#99E550" />
<rect x="38" y="13" width="1" height="1" fill="#99E550" />
<rect x="39" y="13" width="1" height="1" fill="#99E550" />
<rect x="40" y="13" width="1" height="1" fill="#4B692F" />
<rect x="41" y="13" width="1" height="1" fill="#4B692F" />
<rect x="33" y="14" width="1" height="1" fill="#4B692F" />
<rect x="34" y="14" width="1" height="1" fill="#4B692F" />
<rect x="35" y="14" width="1" height="1" fill="#4B692F" />
<rect x="36" y="14" width="1" height="1" fill="#4B692F" />
<rect x="37" y="14" width="1" height="1" fill="#4B692F" />
<rect x="38" y="14" width="1" height="1" fill="#4B692F" />
<rect x="39" y="14" width="1" height="1" fill="#4B692F" />
<rect x="40" y="14" width="1" height="1" fill="#4B692F" />
<rect x="86" y="30" width="1" height="1" fill="#4B692F" />
<rect x="87" y="30" width="1" height="1" fill="#4B692F" />
<rect x="88" y="30" width="1" height="1" fill="#4B692F" />
<rect x="89" y="30" width="1" height="1" fill="#4B692F" />
<rect x="90" y="30" width="1" height="1" fill="#4B692F" />
<rect x="91" y="30" width="1" height="1" fill="#4B692F" />
<rect x="92" y="30" width="1" height="1" fill="#4B692F" />
<rect x="85" y="31" width="1" height="1" fill="#4B692F" />
<rect x="86" y="31" width="1" height="1" fill="#4B692F" />
<rect x="87" y="31" width="1" height="1" fill="#99E550" />
<rect x="88" y="31" width="1" height="1" fill="#99E550" />
<rect x="89" y="31" width="1" height="1" fill="#99E550" />
<rect x="90" y="31" width="1" height="1" fill="#99E550" />
<rect x="91" y="31" width="1" height="1" fill="#99E550" />
<rect x="92" y="31" width="1" height="1" fill="#4B692F" />
<rect x="85" y="32" width="1" height="1" fill="#4B692F" />
<rect x="86" y="32" width="1" height="1" fill="#99E550" />
<rect x="87" y="32" width="1" height="1" fill="#99E550" />
<rect x="88" y="32" width="1" height="1" fill="#99E550" />
<rect x="89" y="32" width="1" height="1" fill="#99E550" />
<rect x="90" y="32" width="1" height="1" fill="#99E550" />
<rect x="91" y="32" width="1" height="1" fill="#99E550" />
<rect x="92" y="32" width="1" height="1" fill="#4B692F" />
<rect x="99" y="32" width="1" height="1" fill="#4B692F" />
<rect x="85" y="33" width="1" height="1" fill="#4B692F" />
<rect x="86" y="33" width="1" height="1" fill="#99E550" />
<rect x="87" y="33" width="1" height="1" fill="#99E550" />
<rect x="88" y="33" width="1" height="1" fill="#4B692F" />
<rect x="89" y="33" width="1" height="1" fill="#4B692F" />
<rect x="90" y="33" width="1" height="1" fill="#6ABE30" />
<rect x="91" y="33" width="1" height="1" fill="#6ABE30" />
<rect x="92" y="33" width="1" height="1" fill="#4B692F" />
<rect x="98" y="33" width="1" height="1" fill="#4B692F" />
<rect x="99" y="33" width="1" height="1" fill="#4B692F" />
<rect x="85" y="34" width="1" height="1" fill="#4B692F" />
<rect x="86" y="34" width="1" height="1" fill="#99E550" />
<rect x="87" y="34" width="1" height="1" fill="#4B692F" />
<rect x="90" y="34" width="1" height="1" fill="#4B692F" />
<rect x="91" y="34" width="1" height="1" fill="#4B692F" />
<rect x="92" y="34" width="1" height="1" fill="#4B692F" />
<rect x="96" y="34" width="1" height="1" fill="#4B692F" />
<rect x="97" y="34" width="1" height="1" fill="#4B692F" />
<rect x="98" y="34" width="1" height="1" fill="#99E550" />
<rect x="99" y="34" width="1" height="1" fill="#99E550" />
<rect x="85" y="35" width="1" height="1" fill="#4B692F" />
<rect x="86" y="35" width="1" height="1" fill="#99E550" />
<rect x="87" y="35" width="1" height="1" fill="#4B692F" />
<rect x="95" y="35" width="1" height="1" fill="#4B692F" />
<rect x="96" y="35" width="1" height="1" fill="#99E550" />
<rect x="97" y="35" width="1" height="1" fill="#99E550" />
<rect x="98" y="35" width="1" height="1" fill="#99E550" />
<rect x="99" y="35" width="1" height="1" fill="#99E550" />
<rect x="85" y="36" width="1" height="1" fill="#4B692F" />
<rect x="86" y="36" width="1" height="1" fill="#99E550" />
<rect x="87" y="36" width="1" height="1" fill="#4B692F" />
<rect x="88" y="36" width="1" height="1" fill="#4B692F" />
<rect x="94" y="36" width="1" height="1" fill="#4B692F" />
<rect x="95" y="36" width="1" height="1" fill="#99E550" />
<rect x="96" y="36" width="1" height="1" fill="#99E550" />
<rect x="97" y="36" width="1" height="1" fill="#99E550" />
<rect x="98" y="36" width="1" height="1" fill="#6ABE30" />
<rect x="99" y="36" width="1" height="1" fill="#6ABE30" />
<rect x="85" y="37" width="1" height="1" fill="#4B692F" />
<rect x="86" y="37" width="1" height="1" fill="#99E550" />
<rect x="87" y="37" width="1" height="1" fill="#6ABE30" />
<rect x="88" y="37" width="1" height="1" fill="#4B692F" />
<rect x="89" y="37" width="1" height="1" fill="#4B692F" />
<rect x="93" y="37" width="1" height="1" fill="#4B692F" />
<rect x="94" y="37" width="1" height="1" fill="#99E550" />
<rect x="95" y="37" width="1" height="1" fill="#99E550" />
<rect x="96" y="37" width="1" height="1" fill="#6ABE30" />
<rect x="97" y="37" width="1" height="1" fill="#6ABE30" />
<rect x="98" y="37" width="1" height="1" fill="#6ABE30" />
<rect x="99" y="37" width="1" height="1" fill="#4B692F" />
<rect x="85" y="38" width="1" height="1" fill="#4B692F" />
<rect x="86" y="38" width="1" height="1" fill="#4B692F" />
<rect x="87" y="38" width="1" height="1" fill="#99E550" />
<rect x="88" y="38" width="1" height="1" fill="#6ABE30" />
<rect x="89" y="38" width="1" height="1" fill="#6ABE30" />
<rect x="90" y="38" width="1" height="1" fill="#4B692F" />
<rect x="91" y="38" width="1" height="1" fill="#4B692F" />
<rect x="92" y="38" width="1" height="1" fill="#4B692F" />
<rect x="93" y="38" width="1" height="1" fill="#99E550" />
<rect x="94" y="38" width="1" height="1" fill="#99E550" />
<rect x="95" y="38" width="1" height="1" fill="#99E550" />
<rect x="96" y="38" width="1" height="1" fill="#4B692F" />
<rect x="97" y="38" width="1" height="1" fill="#4B692F" />
<rect x="98" y="38" width="1" height="1" fill="#4B692F" />
<rect x="99" y="38" width="1" height="1" fill="#4B692F" />
<rect x="86" y="39" width="1" height="1" fill="#4B692F" />
<rect x="87" y="39" width="1" height="1" fill="#4B692F" />
<rect x="88" y="39" width="1" height="1" fill="#99E550" />
<rect x="89" y="39" width="1" height="1" fill="#99E550" />
<rect x="90" y="39" width="1" height="1" fill="#6ABE30" />
<rect x="91" y="39" width="1" height="1" fill="#6ABE30" />
<rect x="92" y="39" width="1" height="1" fill="#6ABE30" />
<rect x="93" y="39" width="1" height="1" fill="#99E550" />
<rect x="94" y="39" width="1" height="1" fill="#6ABE30" />
<rect x="95" y="39" width="1" height="1" fill="#4B692F" />
<rect x="96" y="39" width="1" height="1" fill="#4B692F" />
<rect x="87" y="40" width="1" height="1" fill="#4B692F" />
<rect x="88" y="40" width="1" height="1" fill="#4B692F" />
<rect x="89" y="40" width="1" height="1" fill="#99E550" />
<rect x="90" y="40" width="1" height="1" fill="#99E550" />
<rect x="91" y="40" width="1" height="1" fill="#99E550" />
<rect x="92" y="40" width="1" height="1" fill="#99E550" />
<rect x="93" y="40" width="1" height="1" fill="#99E550" />
<rect x="94" y="40" width="1" height="1" fill="#4B692F" />
<rect x="95" y="40" width="1" height="1" fill="#4B692F" />
<rect x="96" y="40" width="1" height="1" fill="#4B692F" />
<rect x="88" y="41" width="1" height="1" fill="#4B692F" />
<rect x="89" y="41" width="1" height="1" fill="#4B692F" />
<rect x="90" y="41" width="1" height="1" fill="#4B692F" />
<rect x="91" y="41" width="1" height="1" fill="#4B692F" />
<rect x="92" y="41" width="1" height="1" fill="#4B692F" />
<rect x="93" y="41" width="1" height="1" fill="#4B692F" />
<rect x="94" y="41" width="1" height="1" fill="#4B692F" />
<rect x="7" y="43" width="1" height="1" fill="#4B692F" />
<rect x="8" y="43" width="1" height="1" fill="#4B692F" />
<rect x="9" y="43" width="1" height="1" fill="#4B692F" />
<rect x="10" y="43" width="1" height="1" fill="#4B692F" />
<rect x="11" y="43" width="1" height="1" fill="#4B692F" />
<rect x="12" y="43" width="1" height="1" fill="#4B692F" />
<rect x="13" y="43" width="1" height="1" fill="#4B692F" />
<rect x="14" y="43" width="1" height="1" fill="#4B692F" />
<rect x="6" y="44" width="1" height="1" fill="#4B692F" />
<rect x="7" y="44" width="1" height="1" fill="#4B692F" />
<rect x="8" y="44" width="1" height="1" fill="#99E550" />
<rect x="9" y="44" width="1" height="1" fill="#99E550" />
<rect x="10" y="44" width="1" height="1" fill="#99E550" />
<rect x="11" y="44" width="1" height="1" fill="#99E550" />
<rect x="12" y="44" width="1" height="1" fill="#99E550" />
<rect x="13" y="44" width="1" height="1" fill="#99E550" />
<rect x="14" y="44" width="1" height="1" fill="#4B692F" />
<rect x="15" y="44" width="1" height="1" fill="#4B692F" />
<rect x="6" y="45" width="1" height="1" fill="#4B692F" />
<rect x="7" y="45" width="1" height="1" fill="#99E550" />
<rect x="8" y="45" width="1" height="1" fill="#99E550" />
<rect x="9" y="45" width="1" height="1" fill="#99E550" />
<rect x="10" y="45" width="1" height="1" fill="#4B692F" />
<rect x="11" y="45" width="1" height="1" fill="#4B692F" />
<rect x="12" y="45" width="1" height="1" fill="#4B692F" />
<rect x="13" y="45" width="1" height="1" fill="#6ABE30" />
<rect x="14" y="45" width="1" height="1" fill="#99E550" />
<rect x="15" y="45" width="1" height="1" fill="#4B692F" />
<rect x="16" y="45" width="1" height="1" fill="#4B692F" />
<rect x="6" y="46" width="1" height="1" fill="#4B692F" />
<rect x="7" y="46" width="1" height="1" fill="#99E550" />
<rect x="8" y="46" width="1" height="1" fill="#99E550" />
<rect x="9" y="46" width="1" height="1" fill="#4B692F" />
<rect x="12" y="46" width="1" height="1" fill="#4B692F" />
<rect x="13" y="46" width="1" height="1" fill="#4B692F" />
<rect x="14" y="46" width="1" height="1" fill="#6ABE30" />
<rect x="15" y="46" width="1" height="1" fill="#99E550" />
<rect x="16" y="46" width="1" height="1" fill="#4B692F" />
<rect x="17" y="46" width="1" height="1" fill="#4B692F" />
<rect x="6" y="47" width="1" height="1" fill="#4B692F" />
<rect x="7" y="47" width="1" height="1" fill="#99E550" />
<rect x="8" y="47" width="1" height="1" fill="#99E550" />
<rect x="9" y="47" width="1" height="1" fill="#4B692F" />
<rect x="13" y="47" width="1" height="1" fill="#4B692F" />
<rect x="14" y="47" width="1" height="1" fill="#6ABE30" />
<rect x="15" y="47" width="1" height="1" fill="#99E550" />
<rect x="16" y="47" width="1" height="1" fill="#99E550" />
<rect x="17" y="47" width="1" height="1" fill="#4B692F" />
<rect x="6" y="48" width="1" height="1" fill="#4B692F" />
<rect x="7" y="48" width="1" height="1" fill="#99E550" />
<rect x="8" y="48" width="1" height="1" fill="#99E550" />
<rect x="9" y="48" width="1" height="1" fill="#6ABE30" />
<rect x="10" y="48" width="1" height="1" fill="#4B692F" />
<rect x="14" y="48" width="1" height="1" fill="#4B692F" />
<rect x="15" y="48" width="1" height="1" fill="#6ABE30" />
<rect x="16" y="48" width="1" height="1" fill="#99E550" />
<rect x="17" y="48" width="1" height="1" fill="#4B692F" />
<rect x="6" y="49" width="1" height="1" fill="#4B692F" />
<rect x="7" y="49" width="1" height="1" fill="#99E550" />
<rect x="8" y="49" width="1" height="1" fill="#99E550" />
<rect x="9" y="49" width="1" height="1" fill="#6ABE30" />
<rect x="10" y="49" width="1" height="1" fill="#4B692F" />
<rect x="14" y="49" width="1" height="1" fill="#4B692F" />
<rect x="15" y="49" width="1" height="1" fill="#6ABE30" />
<rect x="16" y="49" width="1" height="1" fill="#99E550" />
<rect x="17" y="49" width="1" height="1" fill="#4B692F" />
<rect x="6" y="50" width="1" height="1" fill="#4B692F" />
<rect x="7" y="50" width="1" height="1" fill="#4B692F" />
<rect x="8" y="50" width="1" height="1" fill="#4B692F" />
<rect x="9" y="50" width="1" height="1" fill="#4B692F" />
<rect x="10" y="50" width="1" height="1" fill="#4B692F" />
<rect x="14" y="50" width="1" height="1" fill="#4B692F" />
<rect x="15" y="50" width="1" height="1" fill="#6ABE30" />
<rect x="16" y="50" width="1" height="1" fill="#99E550" />
<rect x="17" y="50" width="1" height="1" fill="#4B692F" />
<rect x="13" y="51" width="1" height="1" fill="#4B692F" />
<rect x="14" y="51" width="1" height="1" fill="#99E550" />
<rect x="15" y="51" width="1" height="1" fill="#99E550" />
<rect x="16" y="51" width="1" height="1" fill="#99E550" />
<rect x="17" y="51" width="1" height="1" fill="#4B692F" />
<rect x="12" y="52" width="1" height="1" fill="#4B692F" />
<rect x="13" y="52" width="1" height="1" fill="#99E550" />
<rect x="14" y="52" width="1" height="1" fill="#99E550" />
<rect x="15" y="52" width="1" height="1" fill="#6ABE30" />
<rect x="16" y="52" width="1" height="1" fill="#4B692F" />
<rect x="17" y="52" width="1" height="1" fill="#4B692F" />
<rect x="12" y="53" width="1" height="1" fill="#4B692F" />
<rect x="13" y="53" width="1" height="1" fill="#99E550" />
<rect x="14" y="53" width="1" height="1" fill="#99E550" />
<rect x="15" y="53" width="1" height="1" fill="#99E550" />
<rect x="16" y="53" width="1" height="1" fill="#4B692F" />
<rect x="11" y="54" width="1" height="1" fill="#4B692F" />
<rect x="12" y="54" width="1" height="1" fill="#99E550" />
<rect x="13" y="54" width="1" height="1" fill="#99E550" />
<rect x="14" y="54" width="1" height="1" fill="#6ABE30" />
<rect x="15" y="54" width="1" height="1" fill="#4B692F" />
<rect x="16" y="54" width="1" height="1" fill="#4B692F" />
<rect x="10" y="55" width="1" height="1" fill="#4B692F" />
<rect x="11" y="55" width="1" height="1" fill="#4B692F" />
<rect x="12" y="55" width="1" height="1" fill="#99E550" />
<rect x="13" y="55" width="1" height="1" fill="#99E550" />
<rect x="14" y="55" width="1" height="1" fill="#6ABE30" />
<rect x="15" y="55" width="1" height="1" fill="#4B692F" />
<rect x="16" y="55" width="1" height="1" fill="#4B692F" />
<rect x="10" y="56" width="1" height="1" fill="#4B692F" />
<rect x="11" y="56" width="1" height="1" fill="#99E550" />
<rect x="12" y="56" width="1" height="1" fill="#99E550" />
<rect x="13" y="56" width="1" height="1" fill="#6ABE30" />
<rect x="14" y="56" width="1" height="1" fill="#6ABE30" />
<rect x="15" y="56" width="1" height="1" fill="#4B692F" />
<rect x="3" y="57" width="1" height="1" fill="#8FD032" />
<rect x="4" y="57" width="1" height="1" fill="#8FD032" />
<rect x="9" y="57" width="1" height="1" fill="#4B692F" />
<rect x="10" y="57" width="1" height="1" fill="#4B692F" />
<rect x="11" y="57" width="1" height="1" fill="#99E550" />
<rect x="12" y="57" width="1" height="1" fill="#99E550" />
<rect x="13" y="57" width="1" height="1" fill="#6ABE30" />
<rect x="14" y="57" width="1" height="1" fill="#4B692F" />
<rect x="15" y="57" width="1" height="1" fill="#4B692F" />
<rect x="31" y="57" width="1" height="1" fill="#99E550" />
<rect x="32" y="57" width="1" height="1" fill="#99E550" />
<rect x="37" y="57" width="1" height="1" fill="#99E550" />
<rect x="38" y="57" width="1" height="1" fill="#99E550" />
<rect x="97" y="57" width="1" height="1" fill="#8FD032" />
<rect x="98" y="57" width="1" height="1" fill="#8FD032" />
<rect x="99" y="57" width="1" height="1" fill="#8FD032" />
<rect x="0" y="58" width="1" height="1" fill="#8FD032" />
<rect x="1" y="58" width="1" height="1" fill="#8FD032" />
<rect x="2" y="58" width="1" height="1" fill="#8FD032" />
<rect x="3" y="58" width="1" height="1" fill="#8FD032" />
<rect x="4" y="58" width="1" height="1" fill="#8FD032" />
<rect x="8" y="58" width="1" height="1" fill="#4B692F" />
<rect x="9" y="58" width="1" height="1" fill="#99E550" />
<rect x="10" y="58" width="1" height="1" fill="#99E550" />
<rect x="11" y="58" width="1" height="1" fill="#99E550" />
<rect x="12" y="58" width="1" height="1" fill="#6ABE30" />
<rect x="13" y="58" width="1" height="1" fill="#6ABE30" />
<rect x="14" y="58" width="1" height="1" fill="#4B692F" />
<rect x="15" y="58" width="1" height="1" fill="#4B692F" />
<rect x="30" y="58" width="1" height="1" fill="#99E550" />
<rect x="31" y="58" width="1" height="1" fill="#99E550" />
<rect x="32" y="58" width="1" height="1" fill="#99E550" />
<rect x="36" y="58" width="1" height="1" fill="#99E550" />
<rect x="37" y="58" width="1" height="1" fill="#99E550" />
<rect x="42" y="58" width="1" height="1" fill="#99E550" />
<rect x="43" y="58" width="1" height="1" fill="#99E550" />
<rect x="44" y="58" width="1" height="1" fill="#99E550" />
<rect x="50" y="58" width="1" height="1" fill="#8FD032" />
<rect x="51" y="58" width="1" height="1" fill="#8FD032" />
<rect x="52" y="58" width="1" height="1" fill="#8FD032" />
<rect x="53" y="58" width="1" height="1" fill="#8FD032" />
<rect x="56" y="58" width="1" height="1" fill="#8FD032" />
<rect x="57" y="58" width="1" height="1" fill="#8FD032" />
<rect x="74" y="58" width="1" height="1" fill="#99E550" />
<rect x="75" y="58" width="1" height="1" fill="#99E550" />
<rect x="78" y="58" width="1" height="1" fill="#99E550" />
<rect x="79" y="58" width="1" height="1" fill="#99E550" />
<rect x="84" y="58" width="1" height="1" fill="#99E550" />
<rect x="85" y="58" width="1" height="1" fill="#99E550" />
<rect x="94" y="58" width="1" height="1" fill="#8FD032" />
<rect x="95" y="58" width="1" height="1" fill="#8FD032" />
<rect x="96" y="58" width="1" height="1" fill="#8FD032" />
<rect x="97" y="58" width="1" height="1" fill="#8FD032" />
<rect x="98" y="58" width="1" height="1" fill="#8FD032" />
<rect x="99" y="58" width="1" height="1" fill="#8FD032" />
<rect x="0" y="59" width="1" height="1" fill="#61A53F" />
<rect x="1" y="59" width="1" height="1" fill="#8FD032" />
<rect x="2" y="59" width="1" height="1" fill="#8FD032" />
<rect x="3" y="59" width="1" height="1" fill="#8FD032" />
<rect x="4" y="59" width="1" height="1" fill="#8FD032" />
<rect x="5" y="59" width="1" height="1" fill="#8FD032" />
<rect x="7" y="59" width="1" height="1" fill="#4B692F" />
<rect x="8" y="59" width="1" height="1" fill="#99E550" />
<rect x="9" y="59" width="1" height="1" fill="#99E550" />
<rect x="10" y="59" width="1" height="1" fill="#6ABE30" />
<rect x="11" y="59" width="1" height="1" fill="#6ABE30" />
<rect x="12" y="59" width="1" height="1" fill="#4B692F" />
<rect x="13" y="59" width="1" height="1" fill="#99E550" />
<rect x="14" y="59" width="1" height="1" fill="#99E550" />
<rect x="15" y="59" width="1" height="1" fill="#4B692F" />
<rect x="16" y="59" width="1" height="1" fill="#4B692F" />
<rect x="28" y="59" width="1" height="1" fill="#61A53F" />
<rect x="29" y="59" width="1" height="1" fill="#61A53F" />
<rect x="30" y="59" width="1" height="1" fill="#99E550" />
<rect x="31" y="59" width="1" height="1" fill="#8FD032" />
<rect x="32" y="59" width="1" height="1" fill="#99E550" />
<rect x="33" y="59" width="1" height="1" fill="#61A53F" />
<rect x="36" y="59" width="1" height="1" fill="#99E550" />
<rect x="37" y="59" width="1" height="1" fill="#8FD032" />
<rect x="38" y="59" width="1" height="1" fill="#61A53F" />
<rect x="39" y="59" width="1" height="1" fill="#61A53F" />
<rect x="41" y="59" width="1" height="1" fill="#99E550" />
<rect x="42" y="59" width="1" height="1" fill="#99E550" />
<rect x="43" y="59" width="1" height="1" fill="#99E550" />
<rect x="44" y="59" width="1" height="1" fill="#8FD032" />
<rect x="45" y="59" width="1" height="1" fill="#61A53F" />
<rect x="47" y="59" width="1" height="1" fill="#8FD032" />
<rect x="48" y="59" width="1" height="1" fill="#8FD032" />
<rect x="49" y="59" width="1" height="1" fill="#8FD032" />
<rect x="50" y="59" width="1" height="1" fill="#8FD032" />
<rect x="51" y="59" width="1" height="1" fill="#8FD032" />
<rect x="52" y="59" width="1" height="1" fill="#8FD032" />
<rect x="55" y="59" width="1" height="1" fill="#8FD032" />
<rect x="56" y="59" width="1" height="1" fill="#8FD032" />
<rect x="67" y="59" width="1" height="1" fill="#99E550" />
<rect x="68" y="59" width="1" height="1" fill="#99E550" />
<rect x="73" y="59" width="1" height="1" fill="#99E550" />
<rect x="74" y="59" width="1" height="1" fill="#99E550" />
<rect x="77" y="59" width="1" height="1" fill="#99E550" />
<rect x="78" y="59" width="1" height="1" fill="#99E550" />
<rect x="79" y="59" width="1" height="1" fill="#99E550" />
<rect x="83" y="59" width="1" height="1" fill="#99E550" />
<rect x="84" y="59" width="1" height="1" fill="#99E550" />
<rect x="89" y="59" width="1" height="1" fill="#99E550" />
<rect x="90" y="59" width="1" height="1" fill="#99E550" />
<rect x="91" y="59" width="1" height="1" fill="#99E550" />
<rect x="93" y="59" width="1" height="1" fill="#61A53F" />
<rect x="94" y="59" width="1" height="1" fill="#61A53F" />
<rect x="95" y="59" width="1" height="1" fill="#8FD032" />
<rect x="96" y="59" width="1" height="1" fill="#8FD032" />
<rect x="97" y="59" width="1" height="1" fill="#8FD032" />
<rect x="98" y="59" width="1" height="1" fill="#8FD032" />
<rect x="99" y="59" width="1" height="1" fill="#8FD032" />
</svg>