<svg xmlns="http://www.w3.org/2000/svg" width="500" height="265" shape-rendering="crispEdges"><path fill="#4B692F" d="M140 0h1v1h-1zM141 0h1v1h-1zM142 0h1v1h-1zM143 0h1v1h-1zM144 0h1v1h-1z"/><path fill="#99E550" d="M145 0h1v1h-1zM146 0h1v1h-1zM147 0h1v1h-1zM148 0h1v1h-1zM149 0h1v1h-1zM150 0h1v1h-1zM151 0h1v1h-1zM152 0h1v1h-1zM153 0h1v1h-1zM154 0h1v1h-1z"/><path fill="#6ABE30" d="M155 0h1v1h-1zM156 0h1v1h-1zM157 0h1v1h-1zM158 0h1v1h-1zM159 0h1v1h-1z"/><path fill="#4B692F" d="M160 0h1v1h-1zM161 0h1v1h-1zM162 0h1v1h-1zM163 0h1v1h-1zM164 0h1v1h-1zM140 1h1v1h-1zM141 1h1v1h-1zM142 1h1v1h-1zM143 1h1v1h-1zM144 1h1v1h-1z"/><path fill="#99E550" d="M145 1h1v1h-1zM146 1h1v1h-1zM147 1h1v1h-1zM148 1h1v1h-1zM149 1h1v1h-1zM150 1h1v1h-1zM151 1h1v1h-1zM152 1h1v1h-1zM153 1h1v1h-1zM154 1h1v1h-1z"/><path fill="#6ABE30" d="M155 1h1v1h-1zM156 1h1v1h-1zM157 1h1v1h-1zM158 1h1v1h-1zM159 1h1v1h-1z"/><path fill="#4B692F" d="M160 1h1v1h-1zM161 1h1v1h-1zM162 1h1v1h-1zM163 1h1v1h-1zM164 1h1v1h-1zM140 2h1v1h-1zM141 2h1v1h-1zM142 2h1v1h-1zM143 2h1v1h-1zM144 2h1v1h-1z"/><path fill="#99E550" d="M145 2h1v1h-1zM146 2h1v1h-1zM147 2h1v1h-1zM148 2h1v1h-1zM149 2h1v1h-1zM150 2h1v1h-1zM151 2h1v1h-1zM152 2h1v1h-1zM153 2h1v1h-1zM154 2h1v1h-1z"/><path fill="#6ABE30" d="M155 2h1v1h-1zM156 2h1v1h-1zM157 2h1v1h-1zM158 2h1v1h-1zM159 2h1v1h-1z"/><path fill="#4B692F" d="M160 2h1v1h-1zM161 2h1v1h-1zM162 2h1v1h-1zM163 2h1v1h-1zM164 2h1v1h-1zM140 3h1v1h-1zM141 3h1v1h-1zM142 3h1v1h-1zM143 3h1v1h-1zM144 3h1v1h-1z"/><path fill="#99E550" d="M145 3h1v1h-1zM146 3h1v1h-1zM147 3h1v1h-1zM148 3h1v1h-1zM149 3h1v1h-1zM150 3h1v1h-1zM151 3h1v1h-1zM152 3h1v1h-1zM153 3h1v1h-1zM154 3h1v1h-1z"/><path fill="#6ABE30" d="M155 3h1v1h-1zM156 3h1v1h-1zM157 3h1v1h-1zM158 3h1v1h-1zM159 3h1v1h-1z"/><path fill="#4B692F" d="M160 3h1v1h-1zM161 3h1v1h-1zM162 3h1v1h-1zM163 3h1v1h-1zM164 3h1v1h-1zM140 4h1v1h-1zM141 4h1v1h-1zM142 4h1v1h-1zM143 4h1v1h-1zM144 4h1v1h-1z"/><path fill="#99E550" d="M145 4h1v1h-1zM146 4h1v1h-1zM147 4h1v1h-1zM148 4h1v1h-1zM149 4h1v1h-1zM150 4h1v1h-1zM151 4h1v1h-1zM152 4h1v1h-1zM153 4h1v1h-1zM154 4h1v1h-1z"/><path fill="#6ABE30" d="M155 4h1v1h-1zM156 4h1v1h-1zM157 4h1v1h-1zM158 4h1v1h-1zM159 4h1v1h-1z"/><path fill="#4B692F" d="M160 4h1v1h-1zM161 4h1v1h-1zM162 4h1v1h-1zM163 4h1v1h-1zM164 4h1v1h-1zM140 5h1v1h-1zM141 5h1v1h-1zM142 5h1v1h-1zM143 5h1v1h-1zM144 5h1v1h-1zM145 5h1v1h-1zM146 5h1v1h-1zM147 5h1v1h-1zM148 5h1v1h-1zM149 5h1v1h-1z"/><path fill="#99E550" d="M150 5h1v1h-1zM151 5h1v1h-1zM152 5h1v1h-1zM153 5h1v1h-1zM154 5h1v1h-1z"/><path fill="#6ABE30" d="M155 5h1v1h-1zM156 5h1v1h-1zM157 5h1v1h-1zM158 5h1v1h-1zM159 5h1v1h-1z"/><path fill="#4B692F" d="M160 5h1v1h-1zM161 5h1v1h-1zM162 5h1v1h-1zM163 5h1v1h-1zM164 5h1v1h-1zM140 6h1v1h-1zM141 6h1v1h-1zM142 6h1v1h-1zM143 6h1v1h-1zM144 6h1v1h-1zM145 6h1v1h-1zM146 6h1v1h-1zM147 6h1v1h-1zM148 6h1v1h-1zM149 6h1v1h-1z"/><path fill="#99E550" d="M150 6h1v1h-1zM151 6h1v1h-1zM152 6h1v1h-1zM153 6h1v1h-1zM154 6h1v1h-1z"/><path fill="#6ABE30" d="M155 6h1v1h-1zM156 6h1v1h-1zM157 6h1v1h-1zM158 6h1v1h-1zM159 6h1v1h-1z"/><path fill="#4B692F" d="M160 6h1v1h-1zM161 6h1v1h-1zM162 6h1v1h-1zM163 6h1v1h-1zM164 6h1v1h-1zM140 7h1v1h-1zM141 7h1v1h-1zM142 7h1v1h-1zM143 7h1v1h-1zM144 7h1v1h-1zM145 7h1v1h-1zM146 7h1v1h-1zM147 7h1v1h-1zM148 7h1v1h-1zM149 7h1v1h-1z"/><path fill="#99E550" d="M150 7h1v1h-1zM151 7h1v1h-1zM152 7h1v1h-1zM153 7h1v1h-1zM154 7h1v1h-1z"/><path fill="#6ABE30" d="M155 7h1v1h-1zM156 7h1v1h-1zM157 7h1v1h-1zM158 7h1v1h-1zM159 7h1v1h-1z"/><path fill="#4B692F" d="M160 7h1v1h-1zM161 7h1v1h-1zM162 7h1v1h-1zM163 7h1v1h-1zM164 7h1v1h-1zM140 8h1v1h-1zM141 8h1v1h-1zM142 8h1v1h-1zM143 8h1v1h-1zM144 8h1v1h-1zM145 8h1v1h-1zM146 8h1v1h-1zM147 8h1v1h-1zM148 8h1v1h-1zM149 8h1v1h-1z"/><path fill="#99E550" d="M150 8h1v1h-1zM151 8h1v1h-1zM152 8h1v1h-1zM153 8h1v1h-1zM154 8h1v1h-1z"/><path fill="#6ABE30" d="M155 8h1v1h-1zM156 8h1v1h-1zM157 8h1v1h-1zM158 8h1v1h-1zM159 8h1v1h-1z"/><path fill="#4B692F" d="M160 8h1v1h-1zM161 8h1v1h-1zM162 8h1v1h-1zM163 8h1v1h-1zM164 8h1v1h-1zM140 9h1v1h-1zM141 9h1v1h-1zM142 9h1v1h-1zM143 9h1v1h-1zM144 9h1v1h-1zM145 9h1v1h-1zM146 9h1v1h-1zM147 9h1v1h-1zM148 9h1v1h-1zM149 9h1v1h-1z"/><path fill="#99E550" d="M150 9h1v1h-1zM151 9h1v1h-1zM152 9h1v1h-1zM153 9h1v1h-1zM154 9h1v1h-1z"/><path fill="#6ABE30" d="M155 9h1v1h-1zM156 9h1v1h-1zM157 9h1v1h-1zM158 9h1v1h-1zM159 9h1v1h-1z"/><path fill="#4B692F" d="M160 9h1v1h-1zM161 9h1v1h-1zM162 9h1v1h-1zM163 9h1v1h-1zM164 9h1v1h-1zM145 10h1v1h-1zM146 10h1v1h-1zM147 10h1v1h-1zM148 10h1v1h-1zM149 10h1v1h-1zM150 10h1v1h-1zM151 10h1v1h-1zM152 10h1v1h-1zM153 10h1v1h-1zM154 10h1v1h-1z"/><path fill="#99E550" d="M155 10h1v1h-1zM156 10h1v1h-1zM157 10h1v1h-1zM158 10h1v1h-1zM159 10h1v1h-1z"/><path fill="#6ABE30" d="M160 10h1v1h-1zM161 10h1v1h-1zM162 10h1v1h-1zM163 10h1v1h-1zM164 10h1v1h-1z"/><path fill="#4B692F" d="M165 10h1v1h-1zM166 10h1v1h-1zM167 10h1v1h-1zM168 10h1v1h-1zM169 10h1v1h-1zM145 11h1v1h-1zM146 11h1v1h-1zM147 11h1v1h-1zM148 11h1v1h-1zM149 11h1v1h-1zM150 11h1v1h-1zM151 11h1v1h-1zM152 11h1v1h-1zM153 11h1v1h-1zM154 11h1v1h-1z"/><path fill="#99E550" d="M155 11h1v1h-1zM156 11h1v1h-1zM157 11h1v1h-1zM158 11h1v1h-1zM159 11h1v1h-1z"/><path fill="#6ABE30" d="M160 11h1v1h-1zM161 11h1v1h-1zM162 11h1v1h-1zM163 11h1v1h-1zM164 11h1v1h-1z"/><path fill="#4B692F" d="M165 11h1v1h-1zM166 11h1v1h-1zM167 11h1v1h-1zM168 11h1v1h-1zM169 11h1v1h-1zM145 12h1v1h-1zM146 12h1v1h-1zM147 12h1v1h-1zM148 12h1v1h-1zM149 12h1v1h-1zM150 12h1v1h-1zM151 12h1v1h-1zM152 12h1v1h-1zM153 12h1v1h-1zM154 12h1v1h-1z"/><path fill="#99E550" d="M155 12h1v1h-1zM156 12h1v1h-1zM157 12h1v1h-1zM158 12h1v1h-1zM159 12h1v1h-1z"/><path fill="#6ABE30" d="M160 12h1v1h-1zM161 12h1v1h-1zM162 12h1v1h-1zM163 12h1v1h-1zM164 12h1v1h-1z"/><path fill="#4B692F" d="M165 12h1v1h-1zM166 12h1v1h-1zM167 12h1v1h-1zM168 12h1v1h-1zM169 12h1v1h-1zM145 13h1v1h-1zM146 13h1v1h-1zM147 13h1v1h-1zM148 13h1v1h-1zM149 13h1v1h-1zM150 13h1v1h-1zM151 13h1v1h-1zM152 13h1v1h-1zM153 13h1v1h-1zM154 13h1v1h-1z"/><path fill="#99E550" d="M155 13h1v1h-1zM156 13h1v1h-1zM157 13h1v1h-1zM158 13h1v1h-1zM159 13h1v1h-1z"/><path fill="#6ABE30" d="M160 13h1v1h-1zM161 13h1v1h-1zM162 13h1v1h-1zM163 13h1v1h-1zM164 13h1v1h-1z"/><path fill="#4B692F" d="M165 13h1v1h-1zM166 13h1v1h-1zM167 13h1v1h-1zM168 13h1v1h-1zM169 13h1v1h-1zM145 14h1v1h-1zM146 14h1v1h-1zM147 14h1v1h-1zM148 14h1v1h-1zM149 14h1v1h-1zM150 14h1v1h-1zM151 14h1v1h-1zM152 14h1v1h-1zM153 14h1v1h-1zM154 14h1v1h-1z"/><path fill="#99E550" d="M155 14h1v1h-1zM156 14h1v1h-1zM157 14h1v1h-1zM158 14h1v1h-1zM159 14h1v1h-1z"/><path fill="#6ABE30" d="M160 14h1v1h-1zM161 14h1v1h-1zM162 14h1v1h-1zM163 14h1v1h-1zM164 14h1v1h-1z"/><path fill="#4B692F" d="M165 14h1v1h-1zM166 14h1v1h-1zM167 14h1v1h-1zM168 14h1v1h-1zM169 14h1v1h-1zM150 15h1v1h-1zM151 15h1v1h-1zM152 15h1v1h-1zM153 15h1v1h-1zM154 15h1v1h-1zM155 15h1v1h-1zM156 15h1v1h-1zM157 15h1v1h-1zM158 15h1v1h-1zM159 15h1v1h-1z"/><path fill="#99E550" d="M160 15h1v1h-1zM161 15h1v1h-1zM162 15h1v1h-1zM163 15h1v1h-1zM164 15h1v1h-1z"/><path fill="#4B692F" d="M165 15h1v1h-1zM166 15h1v1h-1zM167 15h1v1h-1zM168 15h1v1h-1zM169 15h1v1h-1zM170 15h1v1h-1zM171 15h1v1h-1zM172 15h1v1h-1zM173 15h1v1h-1zM174 15h1v1h-1zM150 16h1v1h-1zM151 16h1v1h-1zM152 16h1v1h-1zM153 16h1v1h-1zM154 16h1v1h-1zM155 16h1v1h-1zM156 16h1v1h-1zM157 16h1v1h-1zM158 16h1v1h-1zM159 16h1v1h-1z"/><path fill="#99E550" d="M160 16h1v1h-1zM161 16h1v1h-1zM162 16h1v1h-1zM163 16h1v1h-1zM164 16h1v1h-1z"/><path fill="#4B692F" d="M165 16h1v1h-1zM166 16h1v1h-1zM167 16h1v1h-1zM168 16h1v1h-1zM169 16h1v1h-1zM170 16h1v1h-1zM171 16h1v1h-1zM172 16h1v1h-1zM173 16h1v1h-1zM174 16h1v1h-1zM150 17h1v1h-1zM151 17h1v1h-1zM152 17h1v1h-1zM153 17h1v1h-1zM154 17h1v1h-1zM155 17h1v1h-1zM156 17h1v1h-1zM157 17h1v1h-1zM158 17h1v1h-1zM159 17h1v1h-1z"/><path fill="#99E550" d="M160 17h1v1h-1zM161 17h1v1h-1zM162 17h1v1h-1zM163 17h1v1h-1zM164 17h1v1h-1z"/><path fill="#4B692F" d="M165 17h1v1h-1zM166 17h1v1h-1zM167 17h1v1h-1zM168 17h1v1h-1zM169 17h1v1h-1zM170 17h1v1h-1zM171 17h1v1h-1zM172 17h1v1h-1zM173 17h1v1h-1zM174 17h1v1h-1zM150 18h1v1h-1zM151 18h1v1h-1zM152 18h1v1h-1zM153 18h1v1h-1zM154 18h1v1h-1zM155 18h1v1h-1zM156 18h1v1h-1zM157 18h1v1h-1zM158 18h1v1h-1zM159 18h1v1h-1z"/><path fill="#99E550" d="M160 18h1v1h-1zM161 18h1v1h-1zM162 18h1v1h-1zM163 18h1v1h-1zM164 18h1v1h-1z"/><path fill="#4B692F" d="M165 18h1v1h-1zM166 18h1v1h-1zM167 18h1v1h-1zM168 18h1v1h-1zM169 18h1v1h-1zM170 18h1v1h-1zM171 18h1v1h-1zM172 18h1v1h-1zM173 18h1v1h-1zM174 18h1v1h-1zM150 19h1v1h-1zM151 19h1v1h-1zM152 19h1v1h-1zM153 19h1v1h-1zM154 19h1v1h-1zM155 19h1v1h-1zM156 19h1v1h-1zM157 19h1v1h-1zM158 19h1v1h-1zM159 19h1v1h-1z"/><path fill="#99E550" d="M160 19h1v1h-1zM161 19h1v1h-1zM162 19h1v1h-1zM163 19h1v1h-1zM164 19h1v1h-1z"/><path fill="#4B692F" d="M165 19h1v1h-1zM166 19h1v1h-1zM167 19h1v1h-1zM168 19h1v1h-1zM169 19h1v1h-1zM170 19h1v1h-1zM171 19h1v1h-1zM172 19h1v1h-1zM173 19h1v1h-1zM174 19h1v1h-1zM155 20h1v1h-1zM156 20h1v1h-1zM157 20h1v1h-1zM158 20h1v1h-1zM159 20h1v1h-1zM160 20h1v1h-1zM161 20h1v1h-1zM162 20h1v1h-1zM163 20h1v1h-1zM164 20h1v1h-1zM165 20h1v1h-1zM166 20h1v1h-1zM167 20h1v1h-1zM168 20h1v1h-1zM169 20h1v1h-1zM155 21h1v1h-1zM156 21h1v1h-1zM157 21h1v1h-1zM158 21h1v1h-1zM159 21h1v1h-1zM160 21h1v1h-1zM161 21h1v1h-1zM162 21h1v1h-1zM163 21h1v1h-1zM164 21h1v1h-1zM165 21h1v1h-1zM166 21h1v1h-1zM167 21h1v1h-1zM168 21h1v1h-1zM169 21h1v1h-1zM155 22h1v1h-1zM156 22h1v1h-1zM157 22h1v1h-1zM158 22h1v1h-1zM159 22h1v1h-1zM160 22h1v1h-1zM161 22h1v1h-1zM162 22h1v1h-1zM163 22h1v1h-1zM164 22h1v1h-1zM165 22h1v1h-1zM166 22h1v1h-1zM167 22h1v1h-1zM168 22h1v1h-1zM169 22h1v1h-1zM155 23h1v1h-1zM156 23h1v1h-1zM157 23h1v1h-1zM158 23h1v1h-1zM159 23h1v1h-1zM160 23h1v1h-1zM161 23h1v1h-1zM162 23h1v1h-1zM163 23h1v1h-1zM164 23h1v1h-1zM165 23h1v1h-1zM166 23h1v1h-1zM167 23h1v1h-1zM168 23h1v1h-1zM169 23h1v1h-1zM155 24h1v1h-1zM156 24h1v1h-1zM157 24h1v1h-1zM158 24h1v1h-1zM159 24h1v1h-1zM160 24h1v1h-1zM161 24h1v1h-1zM162 24h1v1h-1zM163 24h1v1h-1zM164 24h1v1h-1zM165 24h1v1h-1zM166 24h1v1h-1zM167 24h1v1h-1zM168 24h1v1h-1zM169 24h1v1h-1zM440 115h1v1h-1zM441 115h1v1h-1zM442 115h1v1h-1zM443 115h1v1h-1zM444 115h1v1h-1zM445 115h1v1h-1zM446 115h1v1h-1zM447 115h1v1h-1zM448 115h1v1h-1zM449 115h1v1h-1zM440 116h1v1h-1zM441 116h1v1h-1zM442 116h1v1h-1zM443 116h1v1h-1zM444 116h1v1h-1zM445 116h1v1h-1zM446 116h1v1h-1zM447 116h1v1h-1zM448 116h1v1h-1zM449 116h1v1h-1zM440 117h1v1h-1zM441 117h1v1h-1zM442 117h1v1h-1zM443 117h1v1h-1zM444 117h1v1h-1zM445 117h1v1h-1zM446 117h1v1h-1zM447 117h1v1h-1zM448 117h1v1h-1zM449 117h1v1h-1zM440 118h1v1h-1zM441 118h1v1h-1zM442 118h1v1h-1zM443 118h1v1h-1zM444 118h1v1h-1zM445 118h1v1h-1zM446 118h1v1h-1zM447 118h1v1h-1zM448 118h1v1h-1zM449 118h1v1h-1zM440 119h1v1h-1zM441 119h1v1h-1zM442 119h1v1h-1zM443 119h1v1h-1zM444 119h1v1h-1zM445 119h1v1h-1zM446 119h1v1h-1zM447 119h1v1h-1zM448 119h1v1h-1zM449 119h1v1h-1zM440 120h1v1h-1zM441 120h1v1h-1zM442 120h1v1h-1zM443 120h1v1h-1zM444 120h1v1h-1z"/><path fill="#99E550" d="M445 120h1v1h-1zM446 120h1v1h-1zM447 120h1v1h-1zM448 120h1v1h-1zM449 120h1v1h-1z"/><path fill="#4B692F" d="M450 120h1v1h-1zM451 120h1v1h-1zM452 120h1v1h-1zM453 120h1v1h-1zM454 120h1v1h-1zM440 121h1v1h-1zM441 121h1v1h-1zM442 121h1v1h-1zM443 121h1v1h-1zM444 121h1v1h-1z"/><path fill="#99E550" d="M445 121h1v1h-1zM446 121h1v1h-1zM447 121h1v1h-1zM448 121h1v1h-1zM449 121h1v1h-1z"/><path fill="#4B692F" d="M450 121h1v1h-1zM451 121h1v1h-1zM452 121h1v1h-1zM453 121h1v1h-1zM454 121h1v1h-1zM440 122h1v1h-1zM441 122h1v1h-1zM442 122h1v1h-1zM443 122h1v1h-1zM444 122h1v1h-1z"/><path fill="#99E550" d="M445 122h1v1h-1zM446 122h1v1h-1zM447 122h1v1h-1zM448 122h1v1h-1zM449 122h1v1h-1z"/><path fill="#4B692F" d="M450 122h1v1h-1zM451 122h1v1h-1zM452 122h1v1h-1zM453 122h1v1h-1zM454 122h1v1h-1zM440 123h1v1h-1zM441 123h1v1h-1zM442 123h1v1h-1zM443 123h1v1h-1zM444 123h1v1h-1z"/><path fill="#99E550" d="M445 123h1v1h-1zM446 123h1v1h-1zM447 123h1v1h-1zM448 123h1v1h-1zM449 123h1v1h-1z"/><path fill="#4B692F" d="M450 123h1v1h-1zM451 123h1v1h-1zM452 123h1v1h-1zM453 123h1v1h-1zM454 123h1v1h-1zM440 124h1v1h-1zM441 124h1v1h-1zM442 124h1v1h-1zM443 124h1v1h-1zM444 124h1v1h-1z"/><path fill="#99E550" d="M445 124h1v1h-1zM446 124h1v1h-1zM447 124h1v1h-1zM448 124h1v1h-1zM449 124h1v1h-1z"/><path fill="#4B692F" d="M450 124h1v1h-1zM451 124h1v1h-1zM452 124h1v1h-1zM453 124h1v1h-1zM454 124h1v1h-1zM440 125h1v1h-1zM441 125h1v1h-1zM442 125h1v1h-1zM443 125h1v1h-1zM444 125h1v1h-1z"/><path fill="#99E550" d="M445 125h1v1h-1zM446 125h1v1h-1zM447 125h1v1h-1zM448 125h1v1h-1zM449 125h1v1h-1z"/><path fill="#4B692F" d="M450 125h1v1h-1zM451 125h1v1h-1zM452 125h1v1h-1zM453 125h1v1h-1zM454 125h1v1h-1zM495 125h1v1h-1zM496 125h1v1h-1zM497 125h1v1h-1zM498 125h1v1h-1zM499 125h1v1h-1zM440 126h1v1h-1zM441 126h1v1h-1zM442 126h1v1h-1zM443 126h1v1h-1zM444 126h1v1h-1z"/><path fill="#99E550" d="M445 126h1v1h-1zM446 126h1v1h-1zM447 126h1v1h-1zM448 126h1v1h-1zM449 126h1v1h-1z"/><path fill="#4B692F" d="M450 126h1v1h-1zM451 126h1v1h-1zM452 126h1v1h-1zM453 126h1v1h-1zM454 126h1v1h-1zM495 126h1v1h-1zM496 126h1v1h-1zM497 126h1v1h-1zM498 126h1v1h-1zM499 126h1v1h-1zM440 127h1v1h-1zM441 127h1v1h-1zM442 127h1v1h-1zM443 127h1v1h-1zM444 127h1v1h-1z"/><path fill="#99E550" d="M445 127h1v1h-1zM446 127h1v1h-1zM447 127h1v1h-1zM448 127h1v1h-1zM449 127h1v1h-1z"/><path fill="#4B692F" d="M450 127h1v1h-1zM451 127h1v1h-1zM452 127h1v1h-1zM453 127h1v1h-1zM454 127h1v1h-1zM495 127h1v1h-1zM496 127h1v1h-1zM497 127h1v1h-1zM498 127h1v1h-1zM499 127h1v1h-1zM440 128h1v1h-1zM441 128h1v1h-1zM442 128h1v1h-1zM443 128h1v1h-1zM444 128h1v1h-1z"/><path fill="#99E550" d="M445 128h1v1h-1zM446 128h1v1h-1zM447 128h1v1h-1zM448 128h1v1h-1zM449 128h1v1h-1z"/><path fill="#4B692F" d="M450 128h1v1h-1zM451 128h1v1h-1zM452 128h1v1h-1zM453 128h1v1h-1zM454 128h1v1h-1zM495 128h1v1h-1zM496 128h1v1h-1zM497 128h1v1h-1zM498 128h1v1h-1zM499 128h1v1h-1zM440 129h1v1h-1zM441 129h1v1h-1zM442 129h1v1h-1zM443 129h1v1h-1zM444 129h1v1h-1z"/><path fill="#99E550" d="M445 129h1v1h-1zM446 129h1v1h-1zM447 129h1v1h-1zM448 129h1v1h-1zM449 129h1v1h-1z"/><path fill="#4B692F" d="M450 129h1v1h-1zM451 129h1v1h-1zM452 129h1v1h-1zM453 129h1v1h-1zM454 129h1v1h-1zM495 129h1v1h-1zM496 129h1v1h-1zM497 129h1v1h-1zM498 129h1v1h-1zM499 129h1v1h-1zM440 130h1v1h-1zM441 130h1v1h-1zM442 130h1v1h-1zM443 130h1v1h-1zM444 130h1v1h-1z"/><path fill="#99E550" d="M445 130h1v1h-1zM446 130h1v1h-1zM447 130h1v1h-1zM448 130h1v1h-1zM449 130h1v1h-1z"/><path fill="#4B692F" d="M450 130h1v1h-1zM451 130h1v1h-1zM452 130h1v1h-1zM453 130h1v1h-1zM454 130h1v1h-1zM455 130h1v1h-1zM456 130h1v1h-1zM457 130h1v1h-1zM458 130h1v1h-1zM459 130h1v1h-1zM485 130h1v1h-1zM486 130h1v1h-1zM487 130h1v1h-1zM488 130h1v1h-1zM489 130h1v1h-1zM490 130h1v1h-1zM491 130h1v1h-1zM492 130h1v1h-1zM493 130h1v1h-1zM494 130h1v1h-1z"/><path fill="#99E550" d="M495 130h1v1h-1zM496 130h1v1h-1zM497 130h1v1h-1zM498 130h1v1h-1zM499 130h1v1h-1z"/><path fill="#4B692F" d="M440 131h1v1h-1zM441 131h1v1h-1zM442 131h1v1h-1zM443 131h1v1h-1zM444 131h1v1h-1z"/><path fill="#99E550" d="M445 131h1v1h-1zM446 131h1v1h-1zM447 131h1v1h-1zM448 131h1v1h-1zM449 131h1v1h-1z"/><path fill="#4B692F" d="M450 131h1v1h-1zM451 131h1v1h-1zM452 131h1v1h-1zM453 131h1v1h-1zM454 131h1v1h-1zM455 131h1v1h-1zM456 131h1v1h-1zM457 131h1v1h-1zM458 131h1v1h-1zM459 131h1v1h-1zM485 131h1v1h-1zM486 131h1v1h-1zM487 131h1v1h-1zM488 131h1v1h-1zM489 131h1v1h-1zM490 131h1v1h-1zM491 131h1v1h-1zM492 131h1v1h-1zM493 131h1v1h-1zM494 131h1v1h-1z"/><path fill="#99E550" d="M495 131h1v1h-1zM496 131h1v1h-1zM497 131h1v1h-1zM498 131h1v1h-1zM499 131h1v1h-1z"/><path fill="#4B692F" d="M440 132h1v1h-1zM441 132h1v1h-1zM442 132h1v1h-1zM443 132h1v1h-1zM444 132h1v1h-1z"/><path fill="#99E550" d="M445 132h1v1h-1zM446 132h1v1h-1zM447 132h1v1h-1zM448 132h1v1h-1zM449 132h1v1h-1z"/><path fill="#4B692F" d="M450 132h1v1h-1zM451 132h1v1h-1zM452 132h1v1h-1zM453 132h1v1h-1zM454 132h1v1h-1zM455 132h1v1h-1zM456 132h1v1h-1zM457 132h1v1h-1zM458 132h1v1h-1zM459 132h1v1h-1zM485 132h1v1h-1zM486 132h1v1h-1zM487 132h1v1h-1zM488 132h1v1h-1zM489 132h1v1h-1zM490 132h1v1h-1zM491 132h1v1h-1zM492 132h1v1h-1zM493 132h1v1h-1zM494 132h1v1h-1z"/><path fill="#99E550" d="M495 132h1v1h-1zM496 132h1v1h-1zM497 132h1v1h-1zM498 132h1v1h-1zM499 132h1v1h-1z"/><path fill="#4B692F" d="M440 133h1v1h-1zM441 133h1v1h-1zM442 133h1v1h-1zM443 133h1v1h-1zM444 133h1v1h-1z"/><path fill="#99E550" d="M445 133h1v1h-1zM446 133h1v1h-1zM447 133h1v1h-1zM448 133h1v1h-1zM449 133h1v1h-1z"/><path fill="#4B692F" d="M450 133h1v1h-1zM451 133h1v1h-1zM452 133h1v1h-1zM453 133h1v1h-1zM454 133h1v1h-1zM455 133h1v1h-1zM456 133h1v1h-1zM457 133h1v1h-1zM458 133h1v1h-1zM459 133h1v1h-1zM485 133h1v1h-1zM486 133h1v1h-1zM487 133h1v1h-1zM488 133h1v1h-1zM489 133h1v1h-1zM490 133h1v1h-1zM491 133h1v1h-1zM492 133h1v1h-1zM493 133h1v1h-1zM494 133h1v1h-1z"/><path fill="#99E550" d="M495 133h1v1h-1zM496 133h1v1h-1zM497 133h1v1h-1zM498 133h1v1h-1zM499 133h1v1h-1z"/><path fill="#4B692F" d="M440 134h1v1h-1zM441 134h1v1h-1zM442 134h1v1h-1zM443 134h1v1h-1zM444 134h1v1h-1z"/><path fill="#99E550" d="M445 134h1v1h-1zM446 134h1v1h-1zM447 134h1v1h-1zM448 134h1v1h-1zM449 134h1v1h-1z"/><path fill="#4B692F" d="M450 134h1v1h-1zM451 134h1v1h-1zM452 134h1v1h-1zM453 134h1v1h-1zM454 134h1v1h-1zM455 134h1v1h-1zM456 134h1v1h-1zM457 134h1v1h-1zM458 134h1v1h-1zM459 134h1v1h-1zM485 134h1v1h-1zM486 134h1v1h-1zM487 134h1v1h-1zM488 134h1v1h-1zM489 134h1v1h-1zM490 134h1v1h-1zM491 134h1v1h-1zM492 134h1v1h-1zM493 134h1v1h-1zM494 134h1v1h-1z"/><path fill="#99E550" d="M495 134h1v1h-1zM496 134h1v1h-1zM497 134h1v1h-1zM498 134h1v1h-1zM499 134h1v1h-1z"/><path fill="#4B692F" d="M440 135h1v1h-1zM441 135h1v1h-1zM442 135h1v1h-1zM443 135h1v1h-1zM444 135h1v1h-1z"/><path fill="#99E550" d="M445 135h1v1h-1zM446 135h1v1h-1zM447 135h1v1h-1zM448 135h1v1h-1zM449 135h1v1h-1z"/><path fill="#6ABE30" d="M450 135h1v1h-1zM451 135h1v1h-1zM452 135h1v1h-1zM453 135h1v1h-1zM454 135h1v1h-1z"/><path fill="#4B692F" d="M455 135h1v1h-1zM456 135h1v1h-1zM457 135h1v1h-1zM458 135h1v1h-1zM459 135h1v1h-1zM460 135h1v1h-1zM461 135h1v1h-1zM462 135h1v1h-1zM463 135h1v1h-1zM464 135h1v1h-1zM480 135h1v1h-1zM481 135h1v1h-1zM482 135h1v1h-1zM483 135h1v1h-1zM484 135h1v1h-1z"/><path fill="#99E550" d="M485 135h1v1h-1zM486 135h1v1h-1zM487 135h1v1h-1zM488 135h1v1h-1zM489 135h1v1h-1zM490 135h1v1h-1zM491 135h1v1h-1zM492 135h1v1h-1zM493 135h1v1h-1zM494 135h1v1h-1zM495 135h1v1h-1zM496 135h1v1h-1zM497 135h1v1h-1zM498 135h1v1h-1zM499 135h1v1h-1z"/><path fill="#4B692F" d="M440 136h1v1h-1zM441 136h1v1h-1zM442 136h1v1h-1zM443 136h1v1h-1zM444 136h1v1h-1z"/><path fill="#99E550" d="M445 136h1v1h-1zM446 136h1v1h-1zM447 136h1v1h-1zM448 136h1v1h-1zM449 136h1v1h-1z"/><path fill="#6ABE30" d="M450 136h1v1h-1zM451 136h1v1h-1zM452 136h1v1h-1zM453 136h1v1h-1zM454 136h1v1h-1z"/><path fill="#4B692F" d="M455 136h1v1h-1zM456 136h1v1h-1zM457 136h1v1h-1zM458 136h1v1h-1zM459 136h1v1h-1zM460 136h1v1h-1zM461 136h1v1h-1zM462 136h1v1h-1zM463 136h1v1h-1zM464 136h1v1h-1zM480 136h1v1h-1zM481 136h1v1h-1zM482 136h1v1h-1zM483 136h1v1h-1zM484 136h1v1h-1z"/><path fill="#99E550" d="M485 136h1v1h-1zM486 136h1v1h-1zM487 136h1v1h-1zM488 136h1v1h-1zM489 136h1v1h-1zM490 136h1v1h-1zM491 136h1v1h-1zM492 136h1v1h-1zM493 136h1v1h-1zM494 136h1v1h-1zM495 136h1v1h-1zM496 136h1v1h-1zM497 136h1v1h-1zM498 136h1v1h-1zM499 136h1v1h-1z"/><path fill="#4B692F" d="M440 137h1v1h-1zM441 137h1v1h-1zM442 137h1v1h-1zM443 137h1v1h-1zM444 137h1v1h-1z"/><path fill="#99E550" d="M445 137h1v1h-1zM446 137h1v1h-1zM447 137h1v1h-1zM448 137h1v1h-1zM449 137h1v1h-1z"/><path fill="#6ABE30" d="M450 137h1v1h-1zM451 137h1v1h-1zM452 137h1v1h-1zM453 137h1v1h-1zM454 137h1v1h-1z"/><path fill="#4B692F" d="M455 137h1v1h-1zM456 137h1v1h-1zM457 137h1v1h-1zM458 137h1v1h-1zM459 137h1v1h-1zM460 137h1v1h-1zM461 137h1v1h-1zM462 137h1v1h-1zM463 137h1v1h-1zM464 137h1v1h-1zM480 137h1v1h-1zM481 137h1v1h-1zM482 137h1v1h-1zM483 137h1v1h-1zM484 137h1v1h-1z"/><path fill="#99E550" d="M485 137h1v1h-1zM486 137h1v1h-1zM487 137h1v1h-1zM488 137h1v1h-1zM489 137h1v1h-1zM490 137h1v1h-1zM491 137h1v1h-1zM492 137h1v1h-1zM493 137h1v1h-1zM494 137h1v1h-1zM495 137h1v1h-1zM496 137h1v1h-1zM497 137h1v1h-1zM498 137h1v1h-1zM499 137h1v1h-1z"/><path fill="#4B692F" d="M440 138h1v1h-1zM441 138h1v1h-1zM442 138h1v1h-1zM443 138h1v1h-1zM444 138h1v1h-1z"/><path fill="#99E550" d="M445 138h1v1h-1zM446 138h1v1h-1zM447 138h1v1h-1zM448 138h1v1h-1zM449 138h1v1h-1z"/><path fill="#6ABE30" d="M450 138h1v1h-1zM451 138h1v1h-1zM452 138h1v1h-1zM453 138h1v1h-1zM454 138h1v1h-1z"/><path fill="#4B692F" d="M455 138h1v1h-1zM456 138h1v1h-1zM457 138h1v1h-1zM458 138h1v1h-1zM459 138h1v1h-1zM460 138h1v1h-1zM461 138h1v1h-1zM462 138h1v1h-1zM463 138h1v1h-1zM464 138h1v1h-1zM480 138h1v1h-1zM481 138h1v1h-1zM482 138h1v1h-1zM483 138h1v1h-1zM484 138h1v1h-1z"/><path fill="#99E550" d="M485 138h1v1h-1zM486 138h1v1h-1zM487 138h1v1h-1zM488 138h1v1h-1zM489 138h1v1h-1zM490 138h1v1h-1zM491 138h1v1h-1zM492 138h1v1h-1zM493 138h1v1h-1zM494 138h1v1h-1zM495 138h1v1h-1zM496 138h1v1h-1zM497 138h1v1h-1zM498 138h1v1h-1zM499 138h1v1h-1z"/><path fill="#4B692F" d="M440 139h1v1h-1zM441 139h1v1h-1zM442 139h1v1h-1zM443 139h1v1h-1zM444 139h1v1h-1z"/><path fill="#99E550" d="M445 139h1v1h-1zM446 139h1v1h-1zM447 139h1v1h-1zM448 139h1v1h-1zM449 139h1v1h-1z"/><path fill="#6ABE30" d="M450 139h1v1h-1zM451 139h1v1h-1zM452 139h1v1h-1zM453 139h1v1h-1zM454 139h1v1h-1z"/><path fill="#4B692F" d="M455 139h1v1h-1zM456 139h1v1h-1zM457 139h1v1h-1zM458 139h1v1h-1zM459 139h1v1h-1zM460 139h1v1h-1zM461 139h1v1h-1zM462 139h1v1h-1zM463 139h1v1h-1zM464 139h1v1h-1zM480 139h1v1h-1zM481 139h1v1h-1zM482 139h1v1h-1zM483 139h1v1h-1zM484 139h1v1h-1z"/><path fill="#99E550" d="M485 139h1v1h-1zM486 139h1v1h-1zM487 139h1v1h-1zM488 139h1v1h-1zM489 139h1v1h-1zM490 139h1v1h-1zM491 139h1v1h-1zM492 139h1v1h-1zM493 139h1v1h-1zM494 139h1v1h-1zM495 139h1v1h-1zM496 139h1v1h-1zM497 139h1v1h-1zM498 139h1v1h-1zM499 139h1v1h-1z"/><path fill="#4B692F" d="M440 140h1v1h-1zM441 140h1v1h-1zM442 140h1v1h-1zM443 140h1v1h-1zM444 140h1v1h-1zM445 140h1v1h-1zM446 140h1v1h-1zM447 140h1v1h-1zM448 140h1v1h-1zM449 140h1v1h-1z"/><path fill="#99E550" d="M450 140h1v1h-1zM451 140h1v1h-1zM452 140h1v1h-1zM453 140h1v1h-1zM454 140h1v1h-1z"/><path fill="#6ABE30" d="M455 140h1v1h-1zM456 140h1v1h-1zM457 140h1v1h-1zM458 140h1v1h-1zM459 140h1v1h-1zM460 140h1v1h-1zM461 140h1v1h-1zM462 140h1v1h-1zM463 140h1v1h-1zM464 140h1v1h-1z"/><path fill="#4B692F" d="M465 140h1v1h-1zM466 140h1v1h-1zM467 140h1v1h-1zM468 140h1v1h-1zM469 140h1v1h-1zM470 140h1v1h-1zM471 140h1v1h-1zM472 140h1v1h-1zM473 140h1v1h-1zM474 140h1v1h-1zM475 140h1v1h-1zM476 140h1v1h-1zM477 140h1v1h-1zM478 140h1v1h-1zM479 140h1v1h-1z"/><path fill="#99E550" d="M480 140h1v1h-1zM481 140h1v1h-1zM482 140h1v1h-1zM483 140h1v1h-1zM484 140h1v1h-1zM485 140h1v1h-1zM486 140h1v1h-1zM487 140h1v1h-1zM488 140h1v1h-1zM489 140h1v1h-1zM490 140h1v1h-1zM491 140h1v1h-1zM492 140h1v1h-1zM493 140h1v1h-1zM494 140h1v1h-1z"/><path fill="#6ABE30" d="M495 140h1v1h-1zM496 140h1v1h-1zM497 140h1v1h-1zM498 140h1v1h-1zM499 140h1v1h-1z"/><path fill="#4B692F" d="M440 141h1v1h-1zM441 141h1v1h-1zM442 141h1v1h-1zM443 141h1v1h-1zM444 141h1v1h-1zM445 141h1v1h-1zM446 141h1v1h-1zM447 141h1v1h-1zM448 141h1v1h-1zM449 141h1v1h-1z"/><path fill="#99E550" d="M450 141h1v1h-1zM451 141h1v1h-1zM452 141h1v1h-1zM453 141h1v1h-1zM454 141h1v1h-1z"/><path fill="#6ABE30" d="M455 141h1v1h-1zM456 141h1v1h-1zM457 141h1v1h-1zM458 141h1v1h-1zM459 141h1v1h-1zM460 141h1v1h-1zM461 141h1v1h-1zM462 141h1v1h-1zM463 141h1v1h-1zM464 141h1v1h-1z"/><path fill="#4B692F" d="M465 141h1v1h-1zM466 141h1v1h-1zM467 141h1v1h-1zM468 141h1v1h-1zM469 141h1v1h-1zM470 141h1v1h-1zM471 141h1v1h-1zM472 141h1v1h-1zM473 141h1v1h-1zM474 141h1v1h-1zM475 141h1v1h-1zM476 141h1v1h-1zM477 141h1v1h-1zM478 141h1v1h-1zM479 141h1v1h-1z"/><path fill="#99E550" d="M480 141h1v1h-1zM481 141h1v1h-1zM482 141h1v1h-1zM483 141h1v1h-1zM484 141h1v1h-1zM485 141h1v1h-1zM486 141h1v1h-1zM487 141h1v1h-1zM488 141h1v1h-1zM489 141h1v1h-1zM490 141h1v1h-1zM491 141h1v1h-1zM492 141h1v1h-1zM493 141h1v1h-1zM494 141h1v1h-1z"/><path fill="#6ABE30" d="M495 141h1v1h-1zM496 141h1v1h-1zM497 141h1v1h-1zM498 141h1v1h-1zM499 141h1v1h-1z"/><path fill="#4B692F" d="M440 142h1v1h-1zM441 142h1v1h-1zM442 142h1v1h-1zM443 142h1v1h-1zM444 142h1v1h-1zM445 142h1v1h-1zM446 142h1v1h-1zM447 142h1v1h-1zM448 142h1v1h-1zM449 142h1v1h-1z"/><path fill="#99E550" d="M450 142h1v1h-1zM451 142h1v1h-1zM452 142h1v1h-1zM453 142h1v1h-1zM454 142h1v1h-1z"/><path fill="#6ABE30" d="M455 142h1v1h-1zM456 142h1v1h-1zM457 142h1v1h-1zM458 142h1v1h-1zM459 142h1v1h-1zM460 142h1v1h-1zM461 142h1v1h-1zM462 142h1v1h-1zM463 142h1v1h-1zM464 142h1v1h-1z"/><path fill="#4B692F" d="M465 142h1v1h-1zM466 142h1v1h-1zM467 142h1v1h-1zM468 142h1v1h-1zM469 142h1v1h-1zM470 142h1v1h-1zM471 142h1v1h-1zM472 142h1v1h-1zM473 142h1v1h-1zM474 142h1v1h-1zM475 142h1v1h-1zM476 142h1v1h-1zM477 142h1v1h-1zM478 142h1v1h-1zM479 142h1v1h-1z"/><path fill="#99E550" d="M480 142h1v1h-1zM481 142h1v1h-1zM482 142h1v1h-1zM483 142h1v1h-1zM484 142h1v1h-1zM485 142h1v1h-1zM486 142h1v1h-1zM487 142h1v1h-1zM488 142h1v1h-1zM489 142h1v1h-1zM490 142h1v1h-1zM491 142h1v1h-1zM492 142h1v1h-1zM493 142h1v1h-1zM494 142h1v1h-1z"/><path fill="#6ABE30" d="M495 142h1v1h-1zM496 142h1v1h-1zM497 142h1v1h-1zM498 142h1v1h-1zM499 142h1v1h-1z"/><path fill="#4B692F" d="M440 143h1v1h-1zM441 143h1v1h-1zM442 143h1v1h-1zM443 143h1v1h-1zM444 143h1v1h-1zM445 143h1v1h-1zM446 143h1v1h-1zM447 143h1v1h-1zM448 143h1v1h-1zM449 143h1v1h-1z"/><path fill="#99E550" d="M450 143h1v1h-1zM451 143h1v1h-1zM452 143h1v1h-1zM453 143h1v1h-1zM454 143h1v1h-1z"/><path fill="#6ABE30" d="M455 143h1v1h-1zM456 143h1v1h-1zM457 143h1v1h-1zM458 143h1v1h-1zM459 143h1v1h-1zM460 143h1v1h-1zM461 143h1v1h-1zM462 143h1v1h-1zM463 143h1v1h-1zM464 143h1v1h-1z"/><path fill="#4B692F" d="M465 143h1v1h-1zM466 143h1v1h-1zM467 143h1v1h-1zM468 143h1v1h-1zM469 143h1v1h-1zM470 143h1v1h-1zM471 143h1v1h-1zM472 143h1v1h-1zM473 143h1v1h-1zM474 143h1v1h-1zM475 143h1v1h-1zM476 143h1v1h-1zM477 143h1v1h-1zM478 143h1v1h-1zM479 143h1v1h-1z"/><path fill="#99E550" d="M480 143h1v1h-1zM481 143h1v1h-1zM482 143h1v1h-1zM483 143h1v1h-1zM484 143h1v1h-1zM485 143h1v1h-1zM486 143h1v1h-1zM487 143h1v1h-1zM488 143h1v1h-1zM489 143h1v1h-1zM490 143h1v1h-1zM491 143h1v1h-1zM492 143h1v1h-1zM493 143h1v1h-1zM494 143h1v1h-1z"/><path fill="#6ABE30" d="M495 143h1v1h-1zM496 143h1v1h-1zM497 143h1v1h-1zM498 143h1v1h-1zM499 143h1v1h-1z"/><path fill="#4B692F" d="M440 144h1v1h-1zM441 144h1v1h-1zM442 144h1v1h-1zM443 144h1v1h-1zM444 144h1v1h-1zM445 144h1v1h-1zM446 144h1v1h-1zM447 144h1v1h-1zM448 144h1v1h-1zM449 144h1v1h-1z"/><path fill="#99E550" d="M450 144h1v1h-1zM451 144h1v1h-1zM452 144h1v1h-1zM453 144h1v1h-1zM454 144h1v1h-1z"/><path fill="#6ABE30" d="M455 144h1v1h-1zM456 144h1v1h-1zM457 144h1v1h-1zM458 144h1v1h-1zM459 144h1v1h-1zM460 144h1v1h-1zM461 144h1v1h-1zM462 144h1v1h-1zM463 144h1v1h-1zM464 144h1v1h-1z"/><path fill="#4B692F" d="M465 144h1v1h-1zM466 144h1v1h-1zM467 144h1v1h-1zM468 144h1v1h-1zM469 144h1v1h-1zM470 144h1v1h-1zM471 144h1v1h-1zM472 144h1v1h-1zM473 144h1v1h-1zM474 144h1v1h-1zM475 144h1v1h-1zM476 144h1v1h-1zM477 144h1v1h-1zM478 144h1v1h-1zM479 144h1v1h-1z"/><path fill="#99E550" d="M480 144h1v1h-1zM481 144h1v1h-1zM482 144h1v1h-1zM483 144h1v1h-1zM484 144h1v1h-1zM485 144h1v1h-1zM486 144h1v1h-1zM487 144h1v1h-1zM488 144h1v1h-1zM489 144h1v1h-1zM490 144h1v1h-1zM491 144h1v1h-1zM492 144h1v1h-1zM493 144h1v1h-1zM494 144h1v1h-1z"/><path fill="#6ABE30" d="M495 144h1v1h-1zM496 144h1v1h-1zM497 144h1v1h-1zM498 144h1v1h-1zM499 144h1v1h-1z"/><path fill="#4B692F" d="M445 145h1v1h-1zM446 145h1v1h-1zM447 145h1v1h-1zM448 145h1v1h-1zM449 145h1v1h-1zM450 145h1v1h-1zM451 145h1v1h-1zM452 145h1v1h-1zM453 145h1v1h-1zM454 145h1v1h-1z"/><path fill="#99E550" d="M455 145h1v1h-1zM456 145h1v1h-1zM457 145h1v1h-1zM458 145h1v1h-1zM459 145h1v1h-1zM460 145h1v1h-1zM461 145h1v1h-1zM462 145h1v1h-1zM463 145h1v1h-1zM464 145h1v1h-1z"/><path fill="#6ABE30" d="M465 145h1v1h-1zM466 145h1v1h-1zM467 145h1v1h-1zM468 145h1v1h-1zM469 145h1v1h-1zM470 145h1v1h-1zM471 145h1v1h-1zM472 145h1v1h-1zM473 145h1v1h-1zM474 145h1v1h-1zM475 145h1v1h-1zM476 145h1v1h-1zM477 145h1v1h-1zM478 145h1v1h-1zM479 145h1v1h-1z"/><path fill="#99E550" d="M480 145h1v1h-1zM481 145h1v1h-1zM482 145h1v1h-1zM483 145h1v1h-1zM484 145h1v1h-1z"/><path fill="#6ABE30" d="M485 145h1v1h-1zM486 145h1v1h-1zM487 145h1v1h-1zM488 145h1v1h-1zM489 145h1v1h-1zM490 145h1v1h-1zM491 145h1v1h-1zM492 145h1v1h-1zM493 145h1v1h-1zM494 145h1v1h-1zM495 145h1v1h-1zM496 145h1v1h-1zM497 145h1v1h-1zM498 145h1v1h-1zM499 145h1v1h-1z"/><path fill="#4B692F" d="M445 146h1v1h-1zM446 146h1v1h-1zM447 146h1v1h-1zM448 146h1v1h-1zM449 146h1v1h-1zM450 146h1v1h-1zM451 146h1v1h-1zM452 146h1v1h-1zM453 146h1v1h-1zM454 146h1v1h-1z"/><path fill="#99E550" d="M455 146h1v1h-1zM456 146h1v1h-1zM457 146h1v1h-1zM458 146h1v1h-1zM459 146h1v1h-1zM460 146h1v1h-1zM461 146h1v1h-1zM462 146h1v1h-1zM463 146h1v1h-1zM464 146h1v1h-1z"/><path fill="#6ABE30" d="M465 146h1v1h-1zM466 146h1v1h-1zM467 146h1v1h-1zM468 146h1v1h-1zM469 146h1v1h-1zM470 146h1v1h-1zM471 146h1v1h-1zM472 146h1v1h-1zM473 146h1v1h-1zM474 146h1v1h-1zM475 146h1v1h-1zM476 146h1v1h-1zM477 146h1v1h-1zM478 146h1v1h-1zM479 146h1v1h-1z"/><path fill="#99E550" d="M480 146h1v1h-1zM481 146h1v1h-1zM482 146h1v1h-1zM483 146h1v1h-1zM484 146h1v1h-1z"/><path fill="#6ABE30" d="M485 146h1v1h-1zM486 146h1v1h-1zM487 146h1v1h-1zM488 146h1v1h-1zM489 146h1v1h-1zM490 146h1v1h-1zM491 146h1v1h-1zM492 146h1v1h-1zM493 146h1v1h-1zM494 146h1v1h-1zM495 146h1v1h-1zM496 146h1v1h-1zM497 146h1v1h-1zM498 146h1v1h-1zM499 146h1v1h-1z"/><path fill="#4B692F" d="M445 147h1v1h-1zM446 147h1v1h-1zM447 147h1v1h-1zM448 147h1v1h-1zM449 147h1v1h-1zM450 147h1v1h-1zM451 147h1v1h-1zM452 147h1v1h-1zM453 147h1v1h-1zM454 147h1v1h-1z"/><path fill="#99E550" d="M455 147h1v1h-1zM456 147h1v1h-1zM457 147h1v1h-1zM458 147h1v1h-1zM459 147h1v1h-1zM460 147h1v1h-1zM461 147h1v1h-1zM462 147h1v1h-1zM463 147h1v1h-1zM464 147h1v1h-1z"/><path fill="#6ABE30" d="M465 147h1v1h-1zM466 147h1v1h-1zM467 147h1v1h-1zM468 147h1v1h-1zM469 147h1v1h-1zM470 147h1v1h-1zM471 147h1v1h-1zM472 147h1v1h-1zM473 147h1v1h-1zM474 147h1v1h-1zM475 147h1v1h-1zM476 147h1v1h-1zM477 147h1v1h-1zM478 147h1v1h-1zM479 147h1v1h-1z"/><path fill="#99E550" d="M480 147h1v1h-1zM481 147h1v1h-1zM482 147h1v1h-1zM483 147h1v1h-1zM484 147h1v1h-1z"/><path fill="#6ABE30" d="M485 147h1v1h-1zM486 147h1v1h-1zM487 147h1v1h-1zM488 147h1v1h-1zM489 147h1v1h-1zM490 147h1v1h-1zM491 147h1v1h-1zM492 147h1v1h-1zM493 147h1v1h-1zM494 147h1v1h-1zM495 147h1v1h-1zM496 147h1v1h-1zM497 147h1v1h-1zM498 147h1v1h-1zM499 147h1v1h-1z"/><path fill="#4B692F" d="M445 148h1v1h-1zM446 148h1v1h-1zM447 148h1v1h-1zM448 148h1v1h-1zM449 148h1v1h-1zM450 148h1v1h-1zM451 148h1v1h-1zM452 148h1v1h-1zM453 148h1v1h-1zM454 148h1v1h-1z"/><path fill="#99E550" d="M455 148h1v1h-1zM456 148h1v1h-1zM457 148h1v1h-1zM458 148h1v1h-1zM459 148h1v1h-1zM460 148h1v1h-1zM461 148h1v1h-1zM462 148h1v1h-1zM463 148h1v1h-1zM464 148h1v1h-1z"/><path fill="#6ABE30" d="M465 148h1v1h-1zM466 148h1v1h-1zM467 148h1v1h-1zM468 148h1v1h-1zM469 148h1v1h-1zM470 148h1v1h-1zM471 148h1v1h-1zM472 148h1v1h-1zM473 148h1v1h-1zM474 148h1v1h-1zM475 148h1v1h-1zM476 148h1v1h-1zM477 148h1v1h-1zM478 148h1v1h-1zM479 148h1v1h-1z"/><path fill="#99E550" d="M480 148h1v1h-1zM481 148h1v1h-1zM482 148h1v1h-1zM483 148h1v1h-1zM484 148h1v1h-1z"/><path fill="#6ABE30" d="M485 148h1v1h-1zM486 148h1v1h-1zM487 148h1v1h-1zM488 148h1v1h-1zM489 148h1v1h-1zM490 148h1v1h-1zM491 148h1v1h-1zM492 148h1v1h-1zM493 148h1v1h-1zM494 148h1v1h-1zM495 148h1v1h-1zM496 148h1v1h-1zM497 148h1v1h-1zM498 148h1v1h-1zM499 148h1v1h-1z"/><path fill="#4B692F" d="M445 149h1v1h-1zM446 149h1v1h-1zM447 149h1v1h-1zM448 149h1v1h-1zM449 149h1v1h-1zM450 149h1v1h-1zM451 149h1v1h-1zM452 149h1v1h-1zM453 149h1v1h-1zM454 149h1v1h-1z"/><path fill="#99E550" d="M455 149h1v1h-1zM456 149h1v1h-1zM457 149h1v1h-1zM458 149h1v1h-1zM459 149h1v1h-1zM460 149h1v1h-1zM461 149h1v1h-1zM462 149h1v1h-1zM463 149h1v1h-1zM464 149h1v1h-1z"/><path fill="#6ABE30" d="M465 149h1v1h-1zM466 149h1v1h-1zM467 149h1v1h-1zM468 149h1v1h-1zM469 149h1v1h-1zM470 149h1v1h-1zM471 149h1v1h-1zM472 149h1v1h-1zM473 149h1v1h-1zM474 149h1v1h-1zM475 149h1v1h-1zM476 149h1v1h-1zM477 149h1v1h-1zM478 149h1v1h-1zM479 149h1v1h-1z"/><path fill="#99E550" d="M480 149h1v1h-1zM481 149h1v1h-1zM482 149h1v1h-1zM483 149h1v1h-1zM484 149h1v1h-1z"/><path fill="#6ABE30" d="M485 149h1v1h-1zM486 149h1v1h-1zM487 149h1v1h-1zM488 149h1v1h-1zM489 149h1v1h-1zM490 149h1v1h-1zM491 149h1v1h-1zM492 149h1v1h-1zM493 149h1v1h-1zM494 149h1v1h-1zM495 149h1v1h-1zM496 149h1v1h-1zM497 149h1v1h-1zM498 149h1v1h-1zM499 149h1v1h-1z"/><path fill="#4B692F" d="M450 150h1v1h-1zM451 150h1v1h-1zM452 150h1v1h-1zM453 150h1v1h-1zM454 150h1v1h-1zM455 150h1v1h-1zM456 150h1v1h-1zM457 150h1v1h-1zM458 150h1v1h-1zM459 150h1v1h-1z"/><path fill="#99E550" d="M460 150h1v1h-1zM461 150h1v1h-1zM462 150h1v1h-1zM463 150h1v1h-1zM464 150h1v1h-1zM465 150h1v1h-1zM466 150h1v1h-1zM467 150h1v1h-1zM468 150h1v1h-1zM469 150h1v1h-1zM470 150h1v1h-1zM471 150h1v1h-1zM472 150h1v1h-1zM473 150h1v1h-1zM474 150h1v1h-1zM475 150h1v1h-1zM476 150h1v1h-1zM477 150h1v1h-1zM478 150h1v1h-1zM479 150h1v1h-1zM480 150h1v1h-1zM481 150h1v1h-1zM482 150h1v1h-1zM483 150h1v1h-1zM484 150h1v1h-1z"/><path fill="#4B692F" d="M485 150h1v1h-1zM486 150h1v1h-1zM487 150h1v1h-1zM488 150h1v1h-1zM489 150h1v1h-1zM490 150h1v1h-1zM491 150h1v1h-1zM492 150h1v1h-1zM493 150h1v1h-1zM494 150h1v1h-1zM495 150h1v1h-1zM496 150h1v1h-1zM497 150h1v1h-1zM498 150h1v1h-1zM499 150h1v1h-1zM450 151h1v1h-1zM451 151h1v1h-1zM452 151h1v1h-1zM453 151h1v1h-1zM454 151h1v1h-1zM455 151h1v1h-1zM456 151h1v1h-1zM457 151h1v1h-1zM458 151h1v1h-1zM459 151h1v1h-1z"/><path fill="#99E550" d="M460 151h1v1h-1zM461 151h1v1h-1zM462 151h1v1h-1zM463 151h1v1h-1zM464 151h1v1h-1zM465 151h1v1h-1zM466 151h1v1h-1zM467 151h1v1h-1zM468 151h1v1h-1zM469 151h1v1h-1zM470 151h1v1h-1zM471 151h1v1h-1zM472 151h1v1h-1zM473 151h1v1h-1zM474 151h1v1h-1zM475 151h1v1h-1zM476 151h1v1h-1zM477 151h1v1h-1zM478 151h1v1h-1zM479 151h1v1h-1zM480 151h1v1h-1zM481 151h1v1h-1zM482 151h1v1h-1zM483 151h1v1h-1zM484 151h1v1h-1z"/><path fill="#4B692F" d="M485 151h1v1h-1zM486 151h1v1h-1zM487 151h1v1h-1zM488 151h1v1h-1zM489 151h1v1h-1zM490 151h1v1h-1zM491 151h1v1h-1zM492 151h1v1h-1zM493 151h1v1h-1zM494 151h1v1h-1zM495 151h1v1h-1zM496 151h1v1h-1zM497 151h1v1h-1zM498 151h1v1h-1zM499 151h1v1h-1zM450 152h1v1h-1zM451 152h1v1h-1zM452 152h1v1h-1zM453 152h1v1h-1zM454 152h1v1h-1zM455 152h1v1h-1zM456 152h1v1h-1zM457 152h1v1h-1zM458 152h1v1h-1zM459 152h1v1h-1z"/><path fill="#99E550" d="M460 152h1v1h-1zM461 152h1v1h-1zM462 152h1v1h-1zM463 152h1v1h-1zM464 152h1v1h-1zM465 152h1v1h-1zM466 152h1v1h-1zM467 152h1v1h-1zM468 152h1v1h-1zM469 152h1v1h-1zM470 152h1v1h-1zM471 152h1v1h-1zM472 152h1v1h-1zM473 152h1v1h-1zM474 152h1v1h-1zM475 152h1v1h-1zM476 152h1v1h-1zM477 152h1v1h-1zM478 152h1v1h-1zM479 152h1v1h-1zM480 152h1v1h-1zM481 152h1v1h-1zM482 152h1v1h-1zM483 152h1v1h-1zM484 152h1v1h-1z"/><path fill="#4B692F" d="M485 152h1v1h-1zM486 152h1v1h-1zM487 152h1v1h-1zM488 152h1v1h-1zM489 152h1v1h-1zM490 152h1v1h-1zM491 152h1v1h-1zM492 152h1v1h-1zM493 152h1v1h-1zM494 152h1v1h-1zM495 152h1v1h-1zM496 152h1v1h-1zM497 152h1v1h-1zM498 152h1v1h-1zM499 152h1v1h-1zM450 153h1v1h-1zM451 153h1v1h-1zM452 153h1v1h-1zM453 153h1v1h-1zM454 153h1v1h-1zM455 153h1v1h-1zM456 153h1v1h-1zM457 153h1v1h-1zM458 153h1v1h-1zM459 153h1v1h-1z"/><path fill="#99E550" d="M460 153h1v1h-1zM461 153h1v1h-1zM462 153h1v1h-1zM463 153h1v1h-1zM464 153h1v1h-1zM465 153h1v1h-1zM466 153h1v1h-1zM467 153h1v1h-1zM468 153h1v1h-1zM469 153h1v1h-1zM470 153h1v1h-1zM471 153h1v1h-1zM472 153h1v1h-1zM473 153h1v1h-1zM474 153h1v1h-1zM475 153h1v1h-1zM476 153h1v1h-1zM477 153h1v1h-1zM478 153h1v1h-1zM479 153h1v1h-1zM480 153h1v1h-1zM481 153h1v1h-1zM482 153h1v1h-1zM483 153h1v1h-1zM484 153h1v1h-1z"/><path fill="#4B692F" d="M485 153h1v1h-1zM486 153h1v1h-1zM487 153h1v1h-1zM488 153h1v1h-1zM489 153h1v1h-1zM490 153h1v1h-1zM491 153h1v1h-1zM492 153h1v1h-1zM493 153h1v1h-1zM494 153h1v1h-1zM495 153h1v1h-1zM496 153h1v1h-1zM497 153h1v1h-1zM498 153h1v1h-1zM499 153h1v1h-1zM450 154h1v1h-1zM451 154h1v1h-1zM452 154h1v1h-1zM453 154h1v1h-1zM454 154h1v1h-1zM455 154h1v1h-1zM456 154h1v1h-1zM457 154h1v1h-1zM458 154h1v1h-1zM459 154h1v1h-1z"/><path fill="#99E550" d="M460 154h1v1h-1zM461 154h1v1h-1zM462 154h1v1h-1zM463 154h1v1h-1zM464 154h1v1h-1zM465 154h1v1h-1zM466 154h1v1h-1zM467 154h1v1h-1zM468 154h1v1h-1zM469 154h1v1h-1zM470 154h1v1h-1zM471 154h1v1h-1zM472 154h1v1h-1zM473 154h1v1h-1zM474 154h1v1h-1zM475 154h1v1h-1zM476 154h1v1h-1zM477 154h1v1h-1zM478 154h1v1h-1zM479 154h1v1h-1zM480 154h1v1h-1zM481 154h1v1h-1zM482 154h1v1h-1zM483 154h1v1h-1zM484 154h1v1h-1z"/><path fill="#4B692F" d="M485 154h1v1h-1zM486 154h1v1h-1zM487 154h1v1h-1zM488 154h1v1h-1zM489 154h1v1h-1zM490 154h1v1h-1zM491 154h1v1h-1zM492 154h1v1h-1zM493 154h1v1h-1zM494 154h1v1h-1zM495 154h1v1h-1zM496 154h1v1h-1zM497 154h1v1h-1zM498 154h1v1h-1zM499 154h1v1h-1zM455 155h1v1h-1zM456 155h1v1h-1zM457 155h1v1h-1zM458 155h1v1h-1zM459 155h1v1h-1zM460 155h1v1h-1zM461 155h1v1h-1zM462 155h1v1h-1zM463 155h1v1h-1zM464 155h1v1h-1zM465 155h1v1h-1zM466 155h1v1h-1zM467 155h1v1h-1zM468 155h1v1h-1zM469 155h1v1h-1zM470 155h1v1h-1zM471 155h1v1h-1zM472 155h1v1h-1zM473 155h1v1h-1zM474 155h1v1h-1zM475 155h1v1h-1zM476 155h1v1h-1zM477 155h1v1h-1zM478 155h1v1h-1zM479 155h1v1h-1zM480 155h1v1h-1zM481 155h1v1h-1zM482 155h1v1h-1zM483 155h1v1h-1zM484 155h1v1h-1zM485 155h1v1h-1zM486 155h1v1h-1zM487 155h1v1h-1zM488 155h1v1h-1zM489 155h1v1h-1zM455 156h1v1h-1zM456 156h1v1h-1zM457 156h1v1h-1zM458 156h1v1h-1zM459 156h1v1h-1zM460 156h1v1h-1zM461 156h1v1h-1zM462 156h1v1h-1zM463 156h1v1h-1zM464 156h1v1h-1zM465 156h1v1h-1zM466 156h1v1h-1zM467 156h1v1h-1zM468 156h1v1h-1zM469 156h1v1h-1zM470 156h1v1h-1zM471 156h1v1h-1zM472 156h1v1h-1zM473 156h1v1h-1zM474 156h1v1h-1zM475 156h1v1h-1zM476 156h1v1h-1zM477 156h1v1h-1zM478 156h1v1h-1zM479 156h1v1h-1zM480 156h1v1h-1zM481 156h1v1h-1zM482 156h1v1h-1zM483 156h1v1h-1zM484 156h1v1h-1zM485 156h1v1h-1zM486 156h1v1h-1zM487 156h1v1h-1zM488 156h1v1h-1zM489 156h1v1h-1zM455 157h1v1h-1zM456 157h1v1h-1zM457 157h1v1h-1zM458 157h1v1h-1zM459 157h1v1h-1zM460 157h1v1h-1zM461 157h1v1h-1zM462 157h1v1h-1zM463 157h1v1h-1zM464 157h1v1h-1zM465 157h1v1h-1zM466 157h1v1h-1zM467 157h1v1h-1zM468 157h1v1h-1zM469 157h1v1h-1zM470 157h1v1h-1zM471 157h1v1h-1zM472 157h1v1h-1zM473 157h1v1h-1zM474 157h1v1h-1zM475 157h1v1h-1zM476 157h1v1h-1zM477 157h1v1h-1zM478 157h1v1h-1zM479 157h1v1h-1zM480 157h1v1h-1zM481 157h1v1h-1zM482 157h1v1h-1zM483 157h1v1h-1zM484 157h1v1h-1zM485 157h1v1h-1zM486 157h1v1h-1zM487 157h1v1h-1zM488 157h1v1h-1zM489 157h1v1h-1zM455 158h1v1h-1zM456 158h1v1h-1zM457 158h1v1h-1zM458 158h1v1h-1zM459 158h1v1h-1zM460 158h1v1h-1zM461 158h1v1h-1zM462 158h1v1h-1zM463 158h1v1h-1zM464 158h1v1h-1zM465 158h1v1h-1zM466 158h1v1h-1zM467 158h1v1h-1zM468 158h1v1h-1zM469 158h1v1h-1zM470 158h1v1h-1zM471 158h1v1h-1zM472 158h1v1h-1zM473 158h1v1h-1zM474 158h1v1h-1zM475 158h1v1h-1zM476 158h1v1h-1zM477 158h1v1h-1zM478 158h1v1h-1zM479 158h1v1h-1zM480 158h1v1h-1zM481 158h1v1h-1zM482 158h1v1h-1zM483 158h1v1h-1zM484 158h1v1h-1zM485 158h1v1h-1zM486 158h1v1h-1zM487 158h1v1h-1zM488 158h1v1h-1zM489 158h1v1h-1zM455 159h1v1h-1zM456 159h1v1h-1zM457 159h1v1h-1zM458 159h1v1h-1zM459 159h1v1h-1zM460 159h1v1h-1zM461 159h1v1h-1zM462 159h1v1h-1zM463 159h1v1h-1zM464 159h1v1h-1zM465 159h1v1h-1zM466 159h1v1h-1zM467 159h1v1h-1zM468 159h1v1h-1zM469 159h1v1h-1zM470 159h1v1h-1zM471 159h1v1h-1zM472 159h1v1h-1zM473 159h1v1h-1zM474 159h1v1h-1zM475 159h1v1h-1zM476 159h1v1h-1zM477 159h1v1h-1zM478 159h1v1h-1zM479 159h1v1h-1zM480 159h1v1h-1zM481 159h1v1h-1zM482 159h1v1h-1zM483 159h1v1h-1zM484 159h1v1h-1zM485 159h1v1h-1zM486 159h1v1h-1zM487 159h1v1h-1zM488 159h1v1h-1zM489 159h1v1h-1zM55 245h1v1h-1zM56 245h1v1h-1zM57 245h1v1h-1zM58 245h1v1h-1zM59 245h1v1h-1zM60 245h1v1h-1zM61 245h1v1h-1zM62 245h1v1h-1zM63 245h1v1h-1zM64 245h1v1h-1zM65 245h1v1h-1zM66 245h1v1h-1zM67 245h1v1h-1zM68 245h1v1h-1zM69 245h1v1h-1zM70 245h1v1h-1zM71 245h1v1h-1zM72 245h1v1h-1zM73 245h1v1h-1zM74 245h1v1h-1zM55 246h1v1h-1zM56 246h1v1h-1zM57 246h1v1h-1zM58 246h1v1h-1zM59 246h1v1h-1zM60 246h1v1h-1zM61 246h1v1h-1zM62 246h1v1h-1zM63 246h1v1h-1zM64 246h1v1h-1zM65 246h1v1h-1zM66 246h1v1h-1zM67 246h1v1h-1zM68 246h1v1h-1zM69 246h1v1h-1zM70 246h1v1h-1zM71 246h1v1h-1zM72 246h1v1h-1zM73 246h1v1h-1zM74 246h1v1h-1zM55 247h1v1h-1zM56 247h1v1h-1zM57 247h1v1h-1zM58 247h1v1h-1zM59 247h1v1h-1zM60 247h1v1h-1zM61 247h1v1h-1zM62 247h1v1h-1zM63 247h1v1h-1zM64 247h1v1h-1zM65 247h1v1h-1zM66 247h1v1h-1zM67 247h1v1h-1zM68 247h1v1h-1zM69 247h1v1h-1zM70 247h1v1h-1zM71 247h1v1h-1zM72 247h1v1h-1zM73 247h1v1h-1zM74 247h1v1h-1zM55 248h1v1h-1zM56 248h1v1h-1zM57 248h1v1h-1zM58 248h1v1h-1zM59 248h1v1h-1zM60 248h1v1h-1zM61 248h1v1h-1zM62 248h1v1h-1zM63 248h1v1h-1zM64 248h1v1h-1zM65 248h1v1h-1zM66 248h1v1h-1zM67 248h1v1h-1zM68 248h1v1h-1zM69 248h1v1h-1zM70 248h1v1h-1zM71 248h1v1h-1zM72 248h1v1h-1zM73 248h1v1h-1zM74 248h1v1h-1zM55 249h1v1h-1zM56 249h1v1h-1zM57 249h1v1h-1zM58 249h1v1h-1zM59 249h1v1h-1zM60 249h1v1h-1zM61 249h1v1h-1zM62 249h1v1h-1zM63 249h1v1h-1zM64 249h1v1h-1zM65 249h1v1h-1zM66 249h1v1h-1zM67 249h1v1h-1zM68 249h1v1h-1zM69 249h1v1h-1zM70 249h1v1h-1zM71 249h1v1h-1zM72 249h1v1h-1zM73 249h1v1h-1zM74 249h1v1h-1zM55 250h1v1h-1zM56 250h1v1h-1zM57 250h1v1h-1zM58 250h1v1h-1zM59 250h1v1h-1z"/><path fill="#99E550" d="M60 250h1v1h-1zM61 250h1v1h-1zM62 250h1v1h-1zM63 250h1v1h-1zM64 250h1v1h-1zM65 250h1v1h-1zM66 250h1v1h-1zM67 250h1v1h-1zM68 250h1v1h-1zM69 250h1v1h-1z"/><path fill="#4B692F" d="M70 250h1v1h-1zM71 250h1v1h-1zM72 250h1v1h-1zM73 250h1v1h-1zM74 250h1v1h-1zM75 250h1v1h-1zM76 250h1v1h-1zM77 250h1v1h-1zM78 250h1v1h-1zM79 250h1v1h-1zM55 251h1v1h-1zM56 251h1v1h-1zM57 251h1v1h-1zM58 251h1v1h-1zM59 251h1v1h-1z"/><path fill="#99E550" d="M60 251h1v1h-1zM61 251h1v1h-1zM62 251h1v1h-1zM63 251h1v1h-1zM64 251h1v1h-1zM65 251h1v1h-1zM66 251h1v1h-1zM67 251h1v1h-1zM68 251h1v1h-1zM69 251h1v1h-1z"/><path fill="#4B692F" d="M70 251h1v1h-1zM71 251h1v1h-1zM72 251h1v1h-1zM73 251h1v1h-1zM74 251h1v1h-1zM75 251h1v1h-1zM76 251h1v1h-1zM77 251h1v1h-1zM78 251h1v1h-1zM79 251h1v1h-1zM55 252h1v1h-1zM56 252h1v1h-1zM57 252h1v1h-1zM58 252h1v1h-1zM59 252h1v1h-1z"/><path fill="#99E550" d="M60 252h1v1h-1zM61 252h1v1h-1zM62 252h1v1h-1zM63 252h1v1h-1zM64 252h1v1h-1zM65 252h1v1h-1zM66 252h1v1h-1zM67 252h1v1h-1zM68 252h1v1h-1zM69 252h1v1h-1z"/><path fill="#4B692F" d="M70 252h1v1h-1zM71 252h1v1h-1zM72 252h1v1h-1zM73 252h1v1h-1zM74 252h1v1h-1zM75 252h1v1h-1zM76 252h1v1h-1zM77 252h1v1h-1zM78 252h1v1h-1zM79 252h1v1h-1zM55 253h1v1h-1zM56 253h1v1h-1zM57 253h1v1h-1zM58 253h1v1h-1zM59 253h1v1h-1z"/><path fill="#99E550" d="M60 253h1v1h-1zM61 253h1v1h-1zM62 253h1v1h-1zM63 253h1v1h-1zM64 253h1v1h-1zM65 253h1v1h-1zM66 253h1v1h-1zM67 253h1v1h-1zM68 253h1v1h-1zM69 253h1v1h-1z"/><path fill="#4B692F" d="M70 253h1v1h-1zM71 253h1v1h-1zM72 253h1v1h-1zM73 253h1v1h-1zM74 253h1v1h-1zM75 253h1v1h-1zM76 253h1v1h-1zM77 253h1v1h-1zM78 253h1v1h-1zM79 253h1v1h-1zM55 254h1v1h-1zM56 254h1v1h-1zM57 254h1v1h-1zM58 254h1v1h-1zM59 254h1v1h-1z"/><path fill="#99E550" d="M60 254h1v1h-1zM61 254h1v1h-1zM62 254h1v1h-1zM63 254h1v1h-1zM64 254h1v1h-1zM65 254h1v1h-1zM66 254h1v1h-1zM67 254h1v1h-1zM68 254h1v1h-1zM69 254h1v1h-1z"/><path fill="#4B692F" d="M70 254h1v1h-1zM71 254h1v1h-1zM72 254h1v1h-1zM73 254h1v1h-1zM74 254h1v1h-1zM75 254h1v1h-1zM76 254h1v1h-1zM77 254h1v1h-1zM78 254h1v1h-1zM79 254h1v1h-1z"/><path fill="#8FD032" d="M15 255h1v1h-1zM16 255h1v1h-1zM17 255h1v1h-1zM18 255h1v1h-1zM19 255h1v1h-1zM20 255h1v1h-1zM21 255h1v1h-1zM22 255h1v1h-1zM23 255h1v1h-1zM24 255h1v1h-1z"/><path fill="#4B692F" d="M60 255h1v1h-1zM61 255h1v1h-1zM62 255h1v1h-1zM63 255h1v1h-1zM64 255h1v1h-1z"/><path fill="#6ABE30" d="M65 255h1v1h-1zM66 255h1v1h-1zM67 255h1v1h-1zM68 255h1v1h-1zM69 255h1v1h-1z"/><path fill="#99E550" d="M70 255h1v1h-1zM71 255h1v1h-1zM72 255h1v1h-1zM73 255h1v1h-1zM74 255h1v1h-1z"/><path fill="#4B692F" d="M75 255h1v1h-1zM76 255h1v1h-1zM77 255h1v1h-1zM78 255h1v1h-1zM79 255h1v1h-1zM80 255h1v1h-1zM81 255h1v1h-1zM82 255h1v1h-1zM83 255h1v1h-1zM84 255h1v1h-1z"/><path fill="#99E550" d="M155 255h1v1h-1zM156 255h1v1h-1zM157 255h1v1h-1zM158 255h1v1h-1zM159 255h1v1h-1zM160 255h1v1h-1zM161 255h1v1h-1zM162 255h1v1h-1zM163 255h1v1h-1zM164 255h1v1h-1zM185 255h1v1h-1zM186 255h1v1h-1zM187 255h1v1h-1zM188 255h1v1h-1zM189 255h1v1h-1zM190 255h1v1h-1zM191 255h1v1h-1zM192 255h1v1h-1zM193 255h1v1h-1zM194 255h1v1h-1z"/><path fill="#8FD032" d="M485 255h1v1h-1zM486 255h1v1h-1zM487 255h1v1h-1zM488 255h1v1h-1zM489 255h1v1h-1zM490 255h1v1h-1zM491 255h1v1h-1zM492 255h1v1h-1zM493 255h1v1h-1zM494 255h1v1h-1zM495 255h1v1h-1zM496 255h1v1h-1zM497 255h1v1h-1zM498 255h1v1h-1zM499 255h1v1h-1zM15 256h1v1h-1zM16 256h1v1h-1zM17 256h1v1h-1zM18 256h1v1h-1zM19 256h1v1h-1zM20 256h1v1h-1zM21 256h1v1h-1zM22 256h1v1h-1zM23 256h1v1h-1zM24 256h1v1h-1z"/><path fill="#4B692F" d="M60 256h1v1h-1zM61 256h1v1h-1zM62 256h1v1h-1zM63 256h1v1h-1zM64 256h1v1h-1z"/><path fill="#6ABE30" d="M65 256h1v1h-1zM66 256h1v1h-1zM67 256h1v1h-1zM68 256h1v1h-1zM69 256h1v1h-1z"/><path fill="#99E550" d="M70 256h1v1h-1zM71 256h1v1h-1zM72 256h1v1h-1zM73 256h1v1h-1zM74 256h1v1h-1z"/><path fill="#4B692F" d="M75 256h1v1h-1zM76 256h1v1h-1zM77 256h1v1h-1zM78 256h1v1h-1zM79 256h1v1h-1zM80 256h1v1h-1zM81 256h1v1h-1zM82 256h1v1h-1zM83 256h1v1h-1zM84 256h1v1h-1z"/><path fill="#99E550" d="M155 256h1v1h-1zM156 256h1v1h-1zM157 256h1v1h-1zM158 256h1v1h-1zM159 256h1v1h-1zM160 256h1v1h-1zM161 256h1v1h-1zM162 256h1v1h-1zM163 256h1v1h-1zM164 256h1v1h-1zM185 256h1v1h-1zM186 256h1v1h-1zM187 256h1v1h-1zM188 256h1v1h-1zM189 256h1v1h-1zM190 256h1v1h-1zM191 256h1v1h-1zM192 256h1v1h-1zM193 256h1v1h-1zM194 256h1v1h-1z"/><path fill="#8FD032" d="M485 256h1v1h-1zM486 256h1v1h-1zM487 256h1v1h-1zM488 256h1v1h-1zM489 256h1v1h-1zM490 256h1v1h-1zM491 256h1v1h-1zM492 256h1v1h-1zM493 256h1v1h-1zM494 256h1v1h-1zM495 256h1v1h-1zM496 256h1v1h-1zM497 256h1v1h-1zM498 256h1v1h-1zM499 256h1v1h-1zM15 257h1v1h-1zM16 257h1v1h-1zM17 257h1v1h-1zM18 257h1v1h-1zM19 257h1v1h-1zM20 257h1v1h-1zM21 257h1v1h-1zM22 257h1v1h-1zM23 257h1v1h-1zM24 257h1v1h-1z"/><path fill="#4B692F" d="M60 257h1v1h-1zM61 257h1v1h-1zM62 257h1v1h-1zM63 257h1v1h-1zM64 257h1v1h-1z"/><path fill="#6ABE30" d="M65 257h1v1h-1zM66 257h1v1h-1zM67 257h1v1h-1zM68 257h1v1h-1zM69 257h1v1h-1z"/><path fill="#99E550" d="M70 257h1v1h-1zM71 257h1v1h-1zM72 257h1v1h-1zM73 257h1v1h-1zM74 257h1v1h-1z"/><path fill="#4B692F" d="M75 257h1v1h-1zM76 257h1v1h-1zM77 257h1v1h-1zM78 257h1v1h-1zM79 257h1v1h-1zM80 257h1v1h-1zM81 257h1v1h-1zM82 257h1v1h-1zM83 257h1v1h-1zM84 257h1v1h-1z"/><path fill="#99E550" d="M155 257h1v1h-1zM156 257h1v1h-1zM157 257h1v1h-1zM158 257h1v1h-1zM159 257h1v1h-1zM160 257h1v1h-1zM161 257h1v1h-1zM162 257h1v1h-1zM163 257h1v1h-1zM164 257h1v1h-1zM185 257h1v1h-1zM186 257h1v1h-1zM187 257h1v1h-1zM188 257h1v1h-1zM189 257h1v1h-1zM190 257h1v1h-1zM191 257h1v1h-1zM192 257h1v1h-1zM193 257h1v1h-1zM194 257h1v1h-1z"/><path fill="#8FD032" d="M485 257h1v1h-1zM486 257h1v1h-1zM487 257h1v1h-1zM488 257h1v1h-1zM489 257h1v1h-1zM490 257h1v1h-1zM491 257h1v1h-1zM492 257h1v1h-1zM493 257h1v1h-1zM494 257h1v1h-1zM495 257h1v1h-1zM496 257h1v1h-1zM497 257h1v1h-1zM498 257h1v1h-1zM499 257h1v1h-1zM15 258h1v1h-1zM16 258h1v1h-1zM17 258h1v1h-1zM18 258h1v1h-1zM19 258h1v1h-1zM20 258h1v1h-1zM21 258h1v1h-1zM22 258h1v1h-1zM23 258h1v1h-1zM24 258h1v1h-1z"/><path fill="#4B692F" d="M60 258h1v1h-1zM61 258h1v1h-1zM62 258h1v1h-1zM63 258h1v1h-1zM64 258h1v1h-1z"/><path fill="#6ABE30" d="M65 258h1v1h-1zM66 258h1v1h-1zM67 258h1v1h-1zM68 258h1v1h-1zM69 258h1v1h-1z"/><path fill="#99E550" d="M70 258h1v1h-1zM71 258h1v1h-1zM72 258h1v1h-1zM73 258h1v1h-1zM74 258h1v1h-1z"/><path fill="#4B692F" d="M75 258h1v1h-1zM76 258h1v1h-1zM77 258h1v1h-1zM78 258h1v1h-1zM79 258h1v1h-1zM80 258h1v1h-1zM81 258h1v1h-1zM82 258h1v1h-1zM83 258h1v1h-1zM84 258h1v1h-1z"/><path fill="#99E550" d="M155 258h1v1h-1zM156 258h1v1h-1zM157 258h1v1h-1zM158 258h1v1h-1zM159 258h1v1h-1zM160 258h1v1h-1zM161 258h1v1h-1zM162 258h1v1h-1zM163 258h1v1h-1zM164 258h1v1h-1zM185 258h1v1h-1zM186 258h1v1h-1zM187 258h1v1h-1zM188 258h1v1h-1zM189 258h1v1h-1zM190 258h1v1h-1zM191 258h1v1h-1zM192 258h1v1h-1zM193 258h1v1h-1zM194 258h1v1h-1z"/><path fill="#8FD032" d="M485 258h1v1h-1zM486 258h1v1h-1zM487 258h1v1h-1zM488 258h1v1h-1zM489 258h1v1h-1zM490 258h1v1h-1zM491 258h1v1h-1zM492 258h1v1h-1zM493 258h1v1h-1zM494 258h1v1h-1zM495 258h1v1h-1zM496 258h1v1h-1zM497 258h1v1h-1zM498 258h1v1h-1zM499 258h1v1h-1zM15 259h1v1h-1zM16 259h1v1h-1zM17 259h1v1h-1zM18 259h1v1h-1zM19 259h1v1h-1zM20 259h1v1h-1zM21 259h1v1h-1zM22 259h1v1h-1zM23 259h1v1h-1zM24 259h1v1h-1z"/><path fill="#4B692F" d="M60 259h1v1h-1zM61 259h1v1h-1zM62 259h1v1h-1zM63 259h1v1h-1zM64 259h1v1h-1z"/><path fill="#6ABE30" d="M65 259h1v1h-1zM66 259h1v1h-1zM67 259h1v1h-1zM68 259h1v1h-1zM69 259h1v1h-1z"/><path fill="#99E550" d="M70 259h1v1h-1zM71 259h1v1h-1zM72 259h1v1h-1zM73 259h1v1h-1zM74 259h1v1h-1z"/><path fill="#4B692F" d="M75 259h1v1h-1zM76 259h1v1h-1zM77 259h1v1h-1zM78 259h1v1h-1zM79 259h1v1h-1zM80 259h1v1h-1zM81 259h1v1h-1zM82 259h1v1h-1zM83 259h1v1h-1zM84 259h1v1h-1z"/><path fill="#99E550" d="M155 259h1v1h-1zM156 259h1v1h-1zM157 259h1v1h-1zM158 259h1v1h-1zM159 259h1v1h-1zM160 259h1v1h-1zM161 259h1v1h-1zM162 259h1v1h-1zM163 259h1v1h-1zM164 259h1v1h-1zM185 259h1v1h-1zM186 259h1v1h-1zM187 259h1v1h-1zM188 259h1v1h-1zM189 259h1v1h-1zM190 259h1v1h-1zM191 259h1v1h-1zM192 259h1v1h-1zM193 259h1v1h-1zM194 259h1v1h-1z"/><path fill="#8FD032" d="M485 259h1v1h-1zM486 259h1v1h-1zM487 259h1v1h-1zM488 259h1v1h-1zM489 259h1v1h-1zM490 259h1v1h-1zM491 259h1v1h-1zM492 259h1v1h-1zM493 259h1v1h-1zM494 259h1v1h-1zM495 259h1v1h-1zM496 259h1v1h-1zM497 259h1v1h-1zM498 259h1v1h-1zM499 259h1v1h-1zM0 260h1v1H0zM1 260h1v1H1zM2 260h1v1H2zM3 260h1v1H3zM4 260h1v1H4zM5 260h1v1H5zM6 260h1v1H6zM7 260h1v1H7zM8 260h1v1H8zM9 260h1v1H9zM10 260h1v1h-1zM11 260h1v1h-1zM12 260h1v1h-1zM13 260h1v1h-1zM14 260h1v1h-1zM15 260h1v1h-1zM16 260h1v1h-1zM17 260h1v1h-1zM18 260h1v1h-1zM19 260h1v1h-1zM20 260h1v1h-1zM21 260h1v1h-1zM22 260h1v1h-1zM23 260h1v1h-1zM24 260h1v1h-1z"/><path fill="#4B692F" d="M60 260h1v1h-1zM61 260h1v1h-1zM62 260h1v1h-1zM63 260h1v1h-1zM64 260h1v1h-1zM65 260h1v1h-1zM66 260h1v1h-1zM67 260h1v1h-1zM68 260h1v1h-1zM69 260h1v1h-1z"/><path fill="#6ABE30" d="M70 260h1v1h-1zM71 260h1v1h-1zM72 260h1v1h-1zM73 260h1v1h-1zM74 260h1v1h-1z"/><path fill="#99E550" d="M75 260h1v1h-1zM76 260h1v1h-1zM77 260h1v1h-1zM78 260h1v1h-1zM79 260h1v1h-1z"/><path fill="#4B692F" d="M80 260h1v1h-1zM81 260h1v1h-1zM82 260h1v1h-1zM83 260h1v1h-1zM84 260h1v1h-1zM85 260h1v1h-1zM86 260h1v1h-1zM87 260h1v1h-1zM88 260h1v1h-1zM89 260h1v1h-1z"/><path fill="#99E550" d="M150 260h1v1h-1zM151 260h1v1h-1zM152 260h1v1h-1zM153 260h1v1h-1zM154 260h1v1h-1zM155 260h1v1h-1zM156 260h1v1h-1zM157 260h1v1h-1zM158 260h1v1h-1zM159 260h1v1h-1zM160 260h1v1h-1zM161 260h1v1h-1zM162 260h1v1h-1zM163 260h1v1h-1zM164 260h1v1h-1zM180 260h1v1h-1zM181 260h1v1h-1zM182 260h1v1h-1zM183 260h1v1h-1zM184 260h1v1h-1zM185 260h1v1h-1zM186 260h1v1h-1zM187 260h1v1h-1zM188 260h1v1h-1zM189 260h1v1h-1zM210 260h1v1h-1zM211 260h1v1h-1zM212 260h1v1h-1zM213 260h1v1h-1zM214 260h1v1h-1zM215 260h1v1h-1zM216 260h1v1h-1zM217 260h1v1h-1zM218 260h1v1h-1zM219 260h1v1h-1zM220 260h1v1h-1zM221 260h1v1h-1zM222 260h1v1h-1zM223 260h1v1h-1zM224 260h1v1h-1z"/><path fill="#8FD032" d="M250 260h1v1h-1zM251 260h1v1h-1zM252 260h1v1h-1zM253 260h1v1h-1zM254 260h1v1h-1zM255 260h1v1h-1zM256 260h1v1h-1zM257 260h1v1h-1zM258 260h1v1h-1zM259 260h1v1h-1zM260 260h1v1h-1zM261 260h1v1h-1zM262 260h1v1h-1zM263 260h1v1h-1zM264 260h1v1h-1zM265 260h1v1h-1zM266 260h1v1h-1zM267 260h1v1h-1zM268 260h1v1h-1zM269 260h1v1h-1zM280 260h1v1h-1zM281 260h1v1h-1zM282 260h1v1h-1zM283 260h1v1h-1zM284 260h1v1h-1zM285 260h1v1h-1zM286 260h1v1h-1zM287 260h1v1h-1zM288 260h1v1h-1zM289 260h1v1h-1z"/><path fill="#99E550" d="M370 260h1v1h-1zM371 260h1v1h-1zM372 260h1v1h-1zM373 260h1v1h-1zM374 260h1v1h-1zM375 260h1v1h-1zM376 260h1v1h-1zM377 260h1v1h-1zM378 260h1v1h-1zM379 260h1v1h-1zM390 260h1v1h-1zM391 260h1v1h-1zM392 260h1v1h-1zM393 260h1v1h-1zM394 260h1v1h-1zM395 260h1v1h-1zM396 260h1v1h-1zM397 260h1v1h-1zM398 260h1v1h-1zM399 260h1v1h-1zM420 260h1v1h-1zM421 260h1v1h-1zM422 260h1v1h-1zM423 260h1v1h-1zM424 260h1v1h-1zM425 260h1v1h-1zM426 260h1v1h-1zM427 260h1v1h-1zM428 260h1v1h-1zM429 260h1v1h-1z"/><path fill="#8FD032" d="M470 260h1v1h-1zM471 260h1v1h-1zM472 260h1v1h-1zM473 260h1v1h-1zM474 260h1v1h-1zM475 260h1v1h-1zM476 260h1v1h-1zM477 260h1v1h-1zM478 260h1v1h-1zM479 260h1v1h-1zM480 260h1v1h-1zM481 260h1v1h-1zM482 260h1v1h-1zM483 260h1v1h-1zM484 260h1v1h-1zM485 260h1v1h-1zM486 260h1v1h-1zM487 260h1v1h-1zM488 260h1v1h-1zM489 260h1v1h-1zM490 260h1v1h-1zM491 260h1v1h-1zM492 260h1v1h-1zM493 260h1v1h-1zM494 260h1v1h-1zM495 260h1v1h-1zM496 260h1v1h-1zM497 260h1v1h-1zM498 260h1v1h-1zM499 260h1v1h-1zM0 261h1v1H0zM1 261h1v1H1zM2 261h1v1H2zM3 261h1v1H3zM4 261h1v1H4zM5 261h1v1H5zM6 261h1v1H6zM7 261h1v1H7zM8 261h1v1H8zM9 261h1v1H9zM10 261h1v1h-1zM11 261h1v1h-1zM12 261h1v1h-1zM13 261h1v1h-1zM14 261h1v1h-1zM15 261h1v1h-1zM16 261h1v1h-1zM17 261h1v1h-1zM18 261h1v1h-1zM19 261h1v1h-1zM20 261h1v1h-1zM21 261h1v1h-1zM22 261h1v1h-1zM23 261h1v1h-1zM24 261h1v1h-1z"/><path fill="#4B692F" d="M60 261h1v1h-1zM61 261h1v1h-1zM62 261h1v1h-1zM63 261h1v1h-1zM64 261h1v1h-1zM65 261h1v1h-1zM66 261h1v1h-1zM67 261h1v1h-1zM68 261h1v1h-1zM69 261h1v1h-1z"/><path fill="#6ABE30" d="M70 261h1v1h-1zM71 261h1v1h-1zM72 261h1v1h-1zM73 261h1v1h-1zM74 261h1v1h-1z"/><path fill="#99E550" d="M75 261h1v1h-1zM76 261h1v1h-1zM77 261h1v1h-1zM78 261h1v1h-1zM79 261h1v1h-1z"/><path fill="#4B692F" d="M80 261h1v1h-1zM81 261h1v1h-1zM82 261h1v1h-1zM83 261h1v1h-1zM84 261h1v1h-1zM85 261h1v1h-1zM86 261h1v1h-1zM87 261h1v1h-1zM88 261h1v1h-1zM89 261h1v1h-1z"/><path fill="#99E550" d="M150 261h1v1h-1zM151 261h1v1h-1zM152 261h1v1h-1zM153 261h1v1h-1zM154 261h1v1h-1zM155 261h1v1h-1zM156 261h1v1h-1zM157 261h1v1h-1zM158 261h1v1h-1zM159 261h1v1h-1zM160 261h1v1h-1zM161 261h1v1h-1zM162 261h1v1h-1zM163 261h1v1h-1zM164 261h1v1h-1zM180 261h1v1h-1zM181 261h1v1h-1zM182 261h1v1h-1zM183 261h1v1h-1zM184 261h1v1h-1zM185 261h1v1h-1zM186 261h1v1h-1zM187 261h1v1h-1zM188 261h1v1h-1zM189 261h1v1h-1zM210 261h1v1h-1zM211 261h1v1h-1zM212 261h1v1h-1zM213 261h1v1h-1zM214 261h1v1h-1zM215 261h1v1h-1zM216 261h1v1h-1zM217 261h1v1h-1zM218 261h1v1h-1zM219 261h1v1h-1zM220 261h1v1h-1zM221 261h1v1h-1zM222 261h1v1h-1zM223 261h1v1h-1zM224 261h1v1h-1z"/><path fill="#8FD032" d="M250 261h1v1h-1zM251 261h1v1h-1zM252 261h1v1h-1zM253 261h1v1h-1zM254 261h1v1h-1zM255 261h1v1h-1zM256 261h1v1h-1zM257 261h1v1h-1zM258 261h1v1h-1zM259 261h1v1h-1zM260 261h1v1h-1zM261 261h1v1h-1zM262 261h1v1h-1zM263 261h1v1h-1zM264 261h1v1h-1zM265 261h1v1h-1zM266 261h1v1h-1zM267 261h1v1h-1zM268 261h1v1h-1zM269 261h1v1h-1zM280 261h1v1h-1zM281 261h1v1h-1zM282 261h1v1h-1zM283 261h1v1h-1zM284 261h1v1h-1zM285 261h1v1h-1zM286 261h1v1h-1zM287 261h1v1h-1zM288 261h1v1h-1zM289 261h1v1h-1z"/><path fill="#99E550" d="M370 261h1v1h-1zM371 261h1v1h-1zM372 261h1v1h-1zM373 261h1v1h-1zM374 261h1v1h-1zM375 261h1v1h-1zM376 261h1v1h-1zM377 261h1v1h-1zM378 261h1v1h-1zM379 261h1v1h-1zM390 261h1v1h-1zM391 261h1v1h-1zM392 261h1v1h-1zM393 261h1v1h-1zM394 261h1v1h-1zM395 261h1v1h-1zM396 261h1v1h-1zM397 261h1v1h-1zM398 261h1v1h-1zM399 261h1v1h-1zM420 261h1v1h-1zM421 261h1v1h-1zM422 261h1v1h-1zM423 261h1v1h-1zM424 261h1v1h-1zM425 261h1v1h-1zM426 261h1v1h-1zM427 261h1v1h-1zM428 261h1v1h-1zM429 261h1v1h-1z"/><path fill="#8FD032" d="M470 261h1v1h-1zM471 261h1v1h-1zM472 261h1v1h-1zM473 261h1v1h-1zM474 261h1v1h-1zM475 261h1v1h-1zM476 261h1v1h-1zM477 261h1v1h-1zM478 261h1v1h-1zM479 261h1v1h-1zM480 261h1v1h-1zM481 261h1v1h-1zM482 261h1v1h-1zM483 261h1v1h-1zM484 261h1v1h-1zM485 261h1v1h-1zM486 261h1v1h-1zM487 261h1v1h-1zM488 261h1v1h-1zM489 261h1v1h-1zM490 261h1v1h-1zM491 261h1v1h-1zM492 261h1v1h-1zM493 261h1v1h-1zM494 261h1v1h-1zM495 261h1v1h-1zM496 261h1v1h-1zM497 261h1v1h-1zM498 261h1v1h-1zM499 261h1v1h-1zM0 262h1v1H0zM1 262h1v1H1zM2 262h1v1H2zM3 262h1v1H3zM4 262h1v1H4zM5 262h1v1H5zM6 262h1v1H6zM7 262h1v1H7zM8 262h1v1H8zM9 262h1v1H9zM10 262h1v1h-1zM11 262h1v1h-1zM12 262h1v1h-1zM13 262h1v1h-1zM14 262h1v1h-1zM15 262h1v1h-1zM16 262h1v1h-1zM17 262h1v1h-1zM18 262h1v1h-1zM19 262h1v1h-1zM20 262h1v1h-1zM21 262h1v1h-1zM22 262h1v1h-1zM23 262h1v1h-1zM24 262h1v1h-1z"/><path fill="#4B692F" d="M60 262h1v1h-1zM61 262h1v1h-1zM62 262h1v1h-1zM63 262h1v1h-1zM64 262h1v1h-1zM65 262h1v1h-1zM66 262h1v1h-1zM67 262h1v1h-1zM68 262h1v1h-1zM69 262h1v1h-1z"/><path fill="#6ABE30" d="M70 262h1v1h-1zM71 262h1v1h-1zM72 262h1v1h-1zM73 262h1v1h-1zM74 262h1v1h-1z"/><path fill="#99E550" d="M75 262h1v1h-1zM76 262h1v1h-1zM77 262h1v1h-1zM78 262h1v1h-1zM79 262h1v1h-1z"/><path fill="#4B692F" d="M80 262h1v1h-1zM81 262h1v1h-1zM82 262h1v1h-1zM83 262h1v1h-1zM84 262h1v1h-1zM85 262h1v1h-1zM86 262h1v1h-1zM87 262h1v1h-1zM88 262h1v1h-1zM89 262h1v1h-1z"/><path fill="#99E550" d="M150 262h1v1h-1zM151 262h1v1h-1zM152 262h1v1h-1zM153 262h1v1h-1zM154 262h1v1h-1zM155 262h1v1h-1zM156 262h1v1h-1zM157 262h1v1h-1zM158 262h1v1h-1zM159 262h1v1h-1zM160 262h1v1h-1zM161 262h1v1h-1zM162 262h1v1h-1zM163 262h1v1h-1zM164 262h1v1h-1zM180 262h1v1h-1zM181 262h1v1h-1zM182 262h1v1h-1zM183 262h1v1h-1zM184 262h1v1h-1zM185 262h1v1h-1zM186 262h1v1h-1zM187 262h1v1h-1zM188 262h1v1h-1zM189 262h1v1h-1zM210 262h1v1h-1zM211 262h1v1h-1zM212 262h1v1h-1zM213 262h1v1h-1zM214 262h1v1h-1zM215 262h1v1h-1zM216 262h1v1h-1zM217 262h1v1h-1zM218 262h1v1h-1zM219 262h1v1h-1zM220 262h1v1h-1zM221 262h1v1h-1zM222 262h1v1h-1zM223 262h1v1h-1zM224 262h1v1h-1z"/><path fill="#8FD032" d="M250 262h1v1h-1zM251 262h1v1h-1zM252 262h1v1h-1zM253 262h1v1h-1zM254 262h1v1h-1zM255 262h1v1h-1zM256 262h1v1h-1zM257 262h1v1h-1zM258 262h1v1h-1zM259 262h1v1h-1zM260 262h1v1h-1zM261 262h1v1h-1zM262 262h1v1h-1zM263 262h1v1h-1zM264 262h1v1h-1zM265 262h1v1h-1zM266 262h1v1h-1zM267 262h1v1h-1zM268 262h1v1h-1zM269 262h1v1h-1zM280 262h1v1h-1zM281 262h1v1h-1zM282 262h1v1h-1zM283 262h1v1h-1zM284 262h1v1h-1zM285 262h1v1h-1zM286 262h1v1h-1zM287 262h1v1h-1zM288 262h1v1h-1zM289 262h1v1h-1z"/><path fill="#99E550" d="M370 262h1v1h-1zM371 262h1v1h-1zM372 262h1v1h-1zM373 262h1v1h-1zM374 262h1v1h-1zM375 262h1v1h-1zM376 262h1v1h-1zM377 262h1v1h-1zM378 262h1v1h-1zM379 262h1v1h-1zM390 262h1v1h-1zM391 262h1v1h-1zM392 262h1v1h-1zM393 262h1v1h-1zM394 262h1v1h-1zM395 262h1v1h-1zM396 262h1v1h-1zM397 262h1v1h-1zM398 262h1v1h-1zM399 262h1v1h-1zM420 262h1v1h-1zM421 262h1v1h-1zM422 262h1v1h-1zM423 262h1v1h-1zM424 262h1v1h-1zM425 262h1v1h-1zM426 262h1v1h-1zM427 262h1v1h-1zM428 262h1v1h-1zM429 262h1v1h-1z"/><path fill="#8FD032" d="M470 262h1v1h-1zM471 262h1v1h-1zM472 262h1v1h-1zM473 262h1v1h-1zM474 262h1v1h-1zM475 262h1v1h-1zM476 262h1v1h-1zM477 262h1v1h-1zM478 262h1v1h-1zM479 262h1v1h-1zM480 262h1v1h-1zM481 262h1v1h-1zM482 262h1v1h-1zM483 262h1v1h-1zM484 262h1v1h-1zM485 262h1v1h-1zM486 262h1v1h-1zM487 262h1v1h-1zM488 262h1v1h-1zM489 262h1v1h-1zM490 262h1v1h-1zM491 262h1v1h-1zM492 262h1v1h-1zM493 262h1v1h-1zM494 262h1v1h-1zM495 262h1v1h-1zM496 262h1v1h-1zM497 262h1v1h-1zM498 262h1v1h-1zM499 262h1v1h-1zM0 263h1v1H0zM1 263h1v1H1zM2 263h1v1H2zM3 263h1v1H3zM4 263h1v1H4zM5 263h1v1H5zM6 263h1v1H6zM7 263h1v1H7zM8 263h1v1H8zM9 263h1v1H9zM10 263h1v1h-1zM11 263h1v1h-1zM12 263h1v1h-1zM13 263h1v1h-1zM14 263h1v1h-1zM15 263h1v1h-1zM16 263h1v1h-1zM17 263h1v1h-1zM18 263h1v1h-1zM19 263h1v1h-1zM20 263h1v1h-1zM21 263h1v1h-1zM22 263h1v1h-1zM23 263h1v1h-1zM24 263h1v1h-1z"/><path fill="#4B692F" d="M60 263h1v1h-1zM61 263h1v1h-1zM62 263h1v1h-1zM63 263h1v1h-1zM64 263h1v1h-1zM65 263h1v1h-1zM66 263h1v1h-1zM67 263h1v1h-1zM68 263h1v1h-1zM69 263h1v1h-1z"/><path fill="#6ABE30" d="M70 263h1v1h-1zM71 263h1v1h-1zM72 263h1v1h-1zM73 263h1v1h-1zM74 263h1v1h-1z"/><path fill="#99E550" d="M75 263h1v1h-1zM76 263h1v1h-1zM77 263h1v1h-1zM78 263h1v1h-1zM79 263h1v1h-1z"/><path fill="#4B692F" d="M80 263h1v1h-1zM81 263h1v1h-1zM82 263h1v1h-1zM83 263h1v1h-1zM84 263h1v1h-1zM85 263h1v1h-1zM86 263h1v1h-1zM87 263h1v1h-1zM88 263h1v1h-1zM89 263h1v1h-1z"/><path fill="#99E550" d="M150 263h1v1h-1zM151 263h1v1h-1zM152 263h1v1h-1zM153 263h1v1h-1zM154 263h1v1h-1zM155 263h1v1h-1zM156 263h1v1h-1zM157 263h1v1h-1zM158 263h1v1h-1zM159 263h1v1h-1zM160 263h1v1h-1zM161 263h1v1h-1zM162 263h1v1h-1zM163 263h1v1h-1zM164 263h1v1h-1zM180 263h1v1h-1zM181 263h1v1h-1zM182 263h1v1h-1zM183 263h1v1h-1zM184 263h1v1h-1zM185 263h1v1h-1zM186 263h1v1h-1zM187 263h1v1h-1zM188 263h1v1h-1zM189 263h1v1h-1zM210 263h1v1h-1zM211 263h1v1h-1zM212 263h1v1h-1zM213 263h1v1h-1zM214 263h1v1h-1zM215 263h1v1h-1zM216 263h1v1h-1zM217 263h1v1h-1zM218 263h1v1h-1zM219 263h1v1h-1zM220 263h1v1h-1zM221 263h1v1h-1zM222 263h1v1h-1zM223 263h1v1h-1zM224 263h1v1h-1z"/><path fill="#8FD032" d="M250 263h1v1h-1zM251 263h1v1h-1zM252 263h1v1h-1zM253 263h1v1h-1zM254 263h1v1h-1zM255 263h1v1h-1zM256 263h1v1h-1zM257 263h1v1h-1zM258 263h1v1h-1zM259 263h1v1h-1zM260 263h1v1h-1zM261 263h1v1h-1zM262 263h1v1h-1zM263 263h1v1h-1zM264 263h1v1h-1zM265 263h1v1h-1zM266 263h1v1h-1zM267 263h1v1h-1zM268 263h1v1h-1zM269 263h1v1h-1zM280 263h1v1h-1zM281 263h1v1h-1zM282 263h1v1h-1zM283 263h1v1h-1zM284 263h1v1h-1zM285 263h1v1h-1zM286 263h1v1h-1zM287 263h1v1h-1zM288 263h1v1h-1zM289 263h1v1h-1z"/><path fill="#99E550" d="M370 263h1v1h-1zM371 263h1v1h-1zM372 263h1v1h-1zM373 263h1v1h-1zM374 263h1v1h-1zM375 263h1v1h-1zM376 263h1v1h-1zM377 263h1v1h-1zM378 263h1v1h-1zM379 263h1v1h-1zM390 263h1v1h-1zM391 263h1v1h-1zM392 263h1v1h-1zM393 263h1v1h-1zM394 263h1v1h-1zM395 263h1v1h-1zM396 263h1v1h-1zM397 263h1v1h-1zM398 263h1v1h-1zM399 263h1v1h-1zM420 263h1v1h-1zM421 263h1v1h-1zM422 263h1v1h-1zM423 263h1v1h-1zM424 263h1v1h-1zM425 263h1v1h-1zM426 263h1v1h-1zM427 263h1v1h-1zM428 263h1v1h-1zM429 263h1v1h-1z"/><path fill="#8FD032" d="M470 263h1v1h-1zM471 263h1v1h-1zM472 263h1v1h-1zM473 263h1v1h-1zM474 263h1v1h-1zM475 263h1v1h-1zM476 263h1v1h-1zM477 263h1v1h-1zM478 263h1v1h-1zM479 263h1v1h-1zM480 263h1v1h-1zM481 263h1v1h-1zM482 263h1v1h-1zM483 263h1v1h-1zM484 263h1v1h-1zM485 263h1v1h-1zM486 263h1v1h-1zM487 263h1v1h-1zM488 263h1v1h-1zM489 263h1v1h-1zM490 263h1v1h-1zM491 263h1v1h-1zM492 263h1v1h-1zM493 263h1v1h-1zM494 263h1v1h-1zM495 263h1v1h-1zM496 263h1v1h-1zM497 263h1v1h-1zM498 263h1v1h-1zM499 263h1v1h-1zM0 264h1v1H0zM1 264h1v1H1zM2 264h1v1H2zM3 264h1v1H3zM4 264h1v1H4zM5 264h1v1H5zM6 264h1v1H6zM7 264h1v1H7zM8 264h1v1H8zM9 264h1v1H9zM10 264h1v1h-1zM11 264h1v1h-1zM12 264h1v1h-1zM13 264h1v1h-1zM14 264h1v1h-1zM15 264h1v1h-1zM16 264h1v1h-1zM17 264h1v1h-1zM18 264h1v1h-1zM19 264h1v1h-1zM20 264h1v1h-1zM21 264h1v1h-1zM22 264h1v1h-1zM23 264h1v1h-1zM24 264h1v1h-1z"/><path fill="#4B692F" d="M60 264h1v1h-1zM61 264h1v1h-1zM62 264h1v1h-1zM63 264h1v1h-1zM64 264h1v1h-1zM65 264h1v1h-1zM66 264h1v1h-1zM67 264h1v1h-1zM68 264h1v1h-1zM69 264h1v1h-1z"/><path fill="#6ABE30" d="M70 264h1v1h-1zM71 264h1v1h-1zM72 264h1v1h-1zM73 264h1v1h-1zM74 264h1v1h-1z"/><path fill="#99E550" d="M75 264h1v1h-1zM76 264h1v1h-1zM77 264h1v1h-1zM78 264h1v1h-1zM79 264h1v1h-1z"/><path fill="#4B692F" d="M80 264h1v1h-1zM81 264h1v1h-1zM82 264h1v1h-1zM83 264h1v1h-1zM84 264h1v1h-1zM85 264h1v1h-1zM86 264h1v1h-1zM87 264h1v1h-1zM88 264h1v1h-1zM89 264h1v1h-1z"/><path fill="#99E550" d="M150 264h1v1h-1zM151 264h1v1h-1zM152 264h1v1h-1zM153 264h1v1h-1zM154 264h1v1h-1zM155 264h1v1h-1zM156 264h1v1h-1zM157 264h1v1h-1zM158 264h1v1h-1zM159 264h1v1h-1zM160 264h1v1h-1zM161 264h1v1h-1zM162 264h1v1h-1zM163 264h1v1h-1zM164 264h1v1h-1zM180 264h1v1h-1zM181 264h1v1h-1zM182 264h1v1h-1zM183 264h1v1h-1zM184 264h1v1h-1zM185 264h1v1h-1zM186 264h1v1h-1zM187 264h1v1h-1zM188 264h1v1h-1zM189 264h1v1h-1zM210 264h1v1h-1zM211 264h1v1h-1zM212 264h1v1h-1zM213 264h1v1h-1zM214 264h1v1h-1zM215 264h1v1h-1zM216 264h1v1h-1zM217 264h1v1h-1zM218 264h1v1h-1zM219 264h1v1h-1zM220 264h1v1h-1zM221 264h1v1h-1zM222 264h1v1h-1zM223 264h1v1h-1zM224 264h1v1h-1z"/><path fill="#8FD032" d="M250 264h1v1h-1zM251 264h1v1h-1zM252 264h1v1h-1zM253 264h1v1h-1zM254 264h1v1h-1zM255 264h1v1h-1zM256 264h1v1h-1zM257 264h1v1h-1zM258 264h1v1h-1zM259 264h1v1h-1zM260 264h1v1h-1zM261 264h1v1h-1zM262 264h1v1h-1zM263 264h1v1h-1zM264 264h1v1h-1zM265 264h1v1h-1zM266 264h1v1h-1zM267 264h1v1h-1zM268 264h1v1h-1zM269 264h1v1h-1zM280 264h1v1h-1zM281 264h1v1h-1zM282 264h1v1h-1zM283 264h1v1h-1zM284 264h1v1h-1zM285 264h1v1h-1zM286 264h1v1h-1zM287 264h1v1h-1zM288 264h1v1h-1zM289 264h1v1h-1z"/><path fill="#99E550" d="M370 264h1v1h-1zM371 264h1v1h-1zM372 264h1v1h-1zM373 264h1v1h-1zM374 264h1v1h-1zM375 264h1v1h-1zM376 264h1v1h-1zM377 264h1v1h-1zM378 264h1v1h-1zM379 264h1v1h-1zM390 264h1v1h-1zM391 264h1v1h-1zM392 264h1v1h-1zM393 264h1v1h-1zM394 264h1v1h-1zM395 264h1v1h-1zM396 264h1v1h-1zM397 264h1v1h-1zM398 264h1v1h-1zM399 264h1v1h-1zM420 264h1v1h-1zM421 264h1v1h-1zM422 264h1v1h-1zM423 264h1v1h-1zM424 264h1v1h-1zM425 264h1v1h-1zM426 264h1v1h-1zM427 264h1v1h-1zM428 264h1v1h-1zM429 264h1v1h-1z"/><path fill="#8FD032" d="M470 264h1v1h-1zM471 264h1v1h-1zM472 264h1v1h-1zM473 264h1v1h-1zM474 264h1v1h-1zM475 264h1v1h-1zM476 264h1v1h-1zM477 264h1v1h-1zM478 264h1v1h-1zM479 264h1v1h-1zM480 264h1v1h-1zM481 264h1v1h-1zM482 264h1v1h-1zM483 264h1v1h-1zM484 264h1v1h-1zM485 264h1v1h-1zM486 264h1v1h-1zM487 264h1v1h-1zM488 264h1v1h-1zM489 264h1v1h-1zM490 264h1v1h-1zM491 264h1v1h-1zM492 264h1v1h-1zM493 264h1v1h-1zM494 264h1v1h-1zM495 264h1v1h-1zM496 264h1v1h-1zM497 264h1v1h-1zM498 264h1v1h-1zM499 264h1v1h-1z"/></svg>