<?xml version="1.0" encoding="UTF-8" ?>
<svg version="1.1" width="16" height="16" xmlns="http://www.w3.org/2000/svg" shape-rendering="crispEdges">
<rect x="5" y="4" width="1" height="1" fill="#222034" />
<rect x="9" y="4" width="1" height="1" fill="#222034" />
<rect x="5" y="5" width="1" height="1" fill="#222034" />
<rect x="9" y="5" width="1" height="1" fill="#222034" />
<rect x="5" y="6" width="1" height="1" fill="#222034" />
<rect x="9" y="6" width="1" height="1" fill="#222034" />
<rect x="5" y="7" width="1" height="1" fill="#222034" />
<rect x="9" y="7" width="1" height="1" fill="#222034" />
<rect x="5" y="8" width="1" height="1" fill="#222034" />
<rect x="6" y="8" width="1" height="1" fill="#222034" />
<rect x="7" y="8" width="1" height="1" fill="#222034" />
<rect x="8" y="8" width="1" height="1" fill="#222034" />
<rect x="9" y="8" width="1" height="1" fill="#222034" />
<rect x="10" y="8" width="1" height="1" fill="#222034" />
<rect x="9" y="9" width="1" height="1" fill="#222034" />
<rect x="9" y="10" width="1" height="1" fill="#222034" />
<rect x="9" y="11" width="1" height="1" fill="#222034" />
<rect x="9" y="12" width="1" height="1" fill="#222034" />
</svg>