<?xml version="1.0" encoding="UTF-8" ?>
<svg version="1.1" width="65" height="13" xmlns="http://www.w3.org/2000/svg" shape-rendering="crispEdges">
<rect x="54" y="0" width="1" height="1" fill="#B9D0FF" />
<rect x="55" y="0" width="1" height="1" fill="#B9D0FF" />
<rect x="56" y="0" width="1" height="1" fill="#B9D0FF" />
<rect x="57" y="0" width="1" height="1" fill="#B9D0FF" />
<rect x="58" y="0" width="1" height="1" fill="#B9D0FF" />
<rect x="10" y="1" width="1" height="1" fill="#B9D0FF" />
<rect x="11" y="1" width="1" height="1" fill="#B9D0FF" />
<rect x="12" y="1" width="1" height="1" fill="#B9D0FF" />
<rect x="13" y="1" width="1" height="1" fill="#B9D0FF" />
<rect x="14" y="1" width="1" height="1" fill="#B9D0FF" />
<rect x="53" y="1" width="1" height="1" fill="#B9D0FF" />
<rect x="54" y="1" width="1" height="1" fill="#FFFFFF" />
<rect x="55" y="1" width="1" height="1" fill="#FFFFFF" />
<rect x="56" y="1" width="1" height="1" fill="#FFFFFF" />
<rect x="57" y="1" width="1" height="1" fill="#FFFFFF" />
<rect x="58" y="1" width="1" height="1" fill="#FFFFFF" />
<rect x="59" y="1" width="1" height="1" fill="#B9D0FF" />
<rect x="9" y="2" width="1" height="1" fill="#B9D0FF" />
<rect x="10" y="2" width="1" height="1" fill="#FFFFFF" />
<rect x="11" y="2" width="1" height="1" fill="#FFFFFF" />
<rect x="12" y="2" width="1" height="1" fill="#FFFFFF" />
<rect x="13" y="2" width="1" height="1" fill="#FFFFFF" />
<rect x="14" y="2" width="1" height="1" fill="#FFFFFF" />
<rect x="15" y="2" width="1" height="1" fill="#B9D0FF" />
<rect x="32" y="2" width="1" height="1" fill="#B9D0FF" />
<rect x="33" y="2" width="1" height="1" fill="#B9D0FF" />
<rect x="34" y="2" width="1" height="1" fill="#B9D0FF" />
<rect x="35" y="2" width="1" height="1" fill="#B9D0FF" />
<rect x="36" y="2" width="1" height="1" fill="#B9D0FF" />
<rect x="52" y="2" width="1" height="1" fill="#B9D0FF" />
<rect x="53" y="2" width="1" height="1" fill="#FFFFFF" />
<rect x="54" y="2" width="1" height="1" fill="#FFFFFF" />
<rect x="55" y="2" width="1" height="1" fill="#FFFFFF" />
<rect x="56" y="2" width="1" height="1" fill="#FFFFFF" />
<rect x="57" y="2" width="1" height="1" fill="#FFFFFF" />
<rect x="58" y="2" width="1" height="1" fill="#FFFFFF" />
<rect x="59" y="2" width="1" height="1" fill="#E1EBFF" />
<rect x="60" y="2" width="1" height="1" fill="#B9D0FF" />
<rect x="8" y="3" width="1" height="1" fill="#B9D0FF" />
<rect x="9" y="3" width="1" height="1" fill="#FFFFFF" />
<rect x="10" y="3" width="1" height="1" fill="#FFFFFF" />
<rect x="11" y="3" width="1" height="1" fill="#FFFFFF" />
<rect x="12" y="3" width="1" height="1" fill="#FFFFFF" />
<rect x="13" y="3" width="1" height="1" fill="#FFFFFF" />
<rect x="14" y="3" width="1" height="1" fill="#FFFFFF" />
<rect x="15" y="3" width="1" height="1" fill="#E1EBFF" />
<rect x="16" y="3" width="1" height="1" fill="#B9D0FF" />
<rect x="31" y="3" width="1" height="1" fill="#B9D0FF" />
<rect x="32" y="3" width="1" height="1" fill="#FFFFFF" />
<rect x="33" y="3" width="1" height="1" fill="#FFFFFF" />
<rect x="34" y="3" width="1" height="1" fill="#FFFFFF" />
<rect x="35" y="3" width="1" height="1" fill="#FFFFFF" />
<rect x="36" y="3" width="1" height="1" fill="#FFFFFF" />
<rect x="37" y="3" width="1" height="1" fill="#B9D0FF" />
<rect x="51" y="3" width="1" height="1" fill="#B9D0FF" />
<rect x="52" y="3" width="1" height="1" fill="#FFFFFF" />
<rect x="53" y="3" width="1" height="1" fill="#FFFFFF" />
<rect x="54" y="3" width="1" height="1" fill="#FFFFFF" />
<rect x="55" y="3" width="1" height="1" fill="#FFFFFF" />
<rect x="56" y="3" width="1" height="1" fill="#FFFFFF" />
<rect x="57" y="3" width="1" height="1" fill="#FFFFFF" />
<rect x="58" y="3" width="1" height="1" fill="#FFFFFF" />
<rect x="59" y="3" width="1" height="1" fill="#FFFFFF" />
<rect x="60" y="3" width="1" height="1" fill="#B9D0FF" />
<rect x="7" y="4" width="1" height="1" fill="#B9D0FF" />
<rect x="8" y="4" width="1" height="1" fill="#FFFFFF" />
<rect x="9" y="4" width="1" height="1" fill="#FFFFFF" />
<rect x="10" y="4" width="1" height="1" fill="#FFFFFF" />
<rect x="11" y="4" width="1" height="1" fill="#FFFFFF" />
<rect x="12" y="4" width="1" height="1" fill="#FFFFFF" />
<rect x="13" y="4" width="1" height="1" fill="#FFFFFF" />
<rect x="14" y="4" width="1" height="1" fill="#FFFFFF" />
<rect x="15" y="4" width="1" height="1" fill="#FFFFFF" />
<rect x="16" y="4" width="1" height="1" fill="#B9D0FF" />
<rect x="30" y="4" width="1" height="1" fill="#B9D0FF" />
<rect x="31" y="4" width="1" height="1" fill="#FFFFFF" />
<rect x="32" y="4" width="1" height="1" fill="#FFFFFF" />
<rect x="33" y="4" width="1" height="1" fill="#FFFFFF" />
<rect x="34" y="4" width="1" height="1" fill="#FFFFFF" />
<rect x="35" y="4" width="1" height="1" fill="#FFFFFF" />
<rect x="36" y="4" width="1" height="1" fill="#FFFFFF" />
<rect x="37" y="4" width="1" height="1" fill="#E1EBFF" />
<rect x="38" y="4" width="1" height="1" fill="#B9D0FF" />
<rect x="49" y="4" width="1" height="1" fill="#B9D0FF" />
<rect x="50" y="4" width="1" height="1" fill="#B9D0FF" />
<rect x="51" y="4" width="1" height="1" fill="#E1EBFF" />
<rect x="52" y="4" width="1" height="1" fill="#FFFFFF" />
<rect x="53" y="4" width="1" height="1" fill="#FFFFFF" />
<rect x="54" y="4" width="1" height="1" fill="#FFFFFF" />
<rect x="55" y="4" width="1" height="1" fill="#FFFFFF" />
<rect x="56" y="4" width="1" height="1" fill="#FFFFFF" />
<rect x="57" y="4" width="1" height="1" fill="#FFFFFF" />
<rect x="58" y="4" width="1" height="1" fill="#FFFFFF" />
<rect x="59" y="4" width="1" height="1" fill="#E1EBFF" />
<rect x="60" y="4" width="1" height="1" fill="#E1EBFF" />
<rect x="61" y="4" width="1" height="1" fill="#B9D0FF" />
<rect x="62" y="4" width="1" height="1" fill="#B9D0FF" />
<rect x="5" y="5" width="1" height="1" fill="#B9D0FF" />
<rect x="6" y="5" width="1" height="1" fill="#B9D0FF" />
<rect x="7" y="5" width="1" height="1" fill="#E1EBFF" />
<rect x="8" y="5" width="1" height="1" fill="#FFFFFF" />
<rect x="9" y="5" width="1" height="1" fill="#FFFFFF" />
<rect x="10" y="5" width="1" height="1" fill="#FFFFFF" />
<rect x="11" y="5" width="1" height="1" fill="#FFFFFF" />
<rect x="12" y="5" width="1" height="1" fill="#FFFFFF" />
<rect x="13" y="5" width="1" height="1" fill="#FFFFFF" />
<rect x="14" y="5" width="1" height="1" fill="#FFFFFF" />
<rect x="15" y="5" width="1" height="1" fill="#E1EBFF" />
<rect x="16" y="5" width="1" height="1" fill="#E1EBFF" />
<rect x="17" y="5" width="1" height="1" fill="#B9D0FF" />
<rect x="18" y="5" width="1" height="1" fill="#B9D0FF" />
<rect x="29" y="5" width="1" height="1" fill="#B9D0FF" />
<rect x="30" y="5" width="1" height="1" fill="#FFFFFF" />
<rect x="31" y="5" width="1" height="1" fill="#FFFFFF" />
<rect x="32" y="5" width="1" height="1" fill="#FFFFFF" />
<rect x="33" y="5" width="1" height="1" fill="#FFFFFF" />
<rect x="34" y="5" width="1" height="1" fill="#FFFFFF" />
<rect x="35" y="5" width="1" height="1" fill="#FFFFFF" />
<rect x="36" y="5" width="1" height="1" fill="#FFFFFF" />
<rect x="37" y="5" width="1" height="1" fill="#FFFFFF" />
<rect x="38" y="5" width="1" height="1" fill="#B9D0FF" />
<rect x="46" y="5" width="1" height="1" fill="#B9D0FF" />
<rect x="47" y="5" width="1" height="1" fill="#B9D0FF" />
<rect x="48" y="5" width="1" height="1" fill="#B9D0FF" />
<rect x="49" y="5" width="1" height="1" fill="#FFFFFF" />
<rect x="50" y="5" width="1" height="1" fill="#FFFFFF" />
<rect x="51" y="5" width="1" height="1" fill="#FFFFFF" />
<rect x="52" y="5" width="1" height="1" fill="#E1EBFF" />
<rect x="53" y="5" width="1" height="1" fill="#FFFFFF" />
<rect x="54" y="5" width="1" height="1" fill="#FFFFFF" />
<rect x="55" y="5" width="1" height="1" fill="#FFFFFF" />
<rect x="56" y="5" width="1" height="1" fill="#FFFFFF" />
<rect x="57" y="5" width="1" height="1" fill="#FFFFFF" />
<rect x="58" y="5" width="1" height="1" fill="#E1EBFF" />
<rect x="59" y="5" width="1" height="1" fill="#FFFFFF" />
<rect x="60" y="5" width="1" height="1" fill="#FFFFFF" />
<rect x="61" y="5" width="1" height="1" fill="#FFFFFF" />
<rect x="62" y="5" width="1" height="1" fill="#E1EBFF" />
<rect x="63" y="5" width="1" height="1" fill="#B9D0FF" />
<rect x="2" y="6" width="1" height="1" fill="#B9D0FF" />
<rect x="3" y="6" width="1" height="1" fill="#B9D0FF" />
<rect x="4" y="6" width="1" height="1" fill="#B9D0FF" />
<rect x="5" y="6" width="1" height="1" fill="#FFFFFF" />
<rect x="6" y="6" width="1" height="1" fill="#FFFFFF" />
<rect x="7" y="6" width="1" height="1" fill="#FFFFFF" />
<rect x="8" y="6" width="1" height="1" fill="#E1EBFF" />
<rect x="9" y="6" width="1" height="1" fill="#FFFFFF" />
<rect x="10" y="6" width="1" height="1" fill="#FFFFFF" />
<rect x="11" y="6" width="1" height="1" fill="#FFFFFF" />
<rect x="12" y="6" width="1" height="1" fill="#FFFFFF" />
<rect x="13" y="6" width="1" height="1" fill="#FFFFFF" />
<rect x="14" y="6" width="1" height="1" fill="#E1EBFF" />
<rect x="15" y="6" width="1" height="1" fill="#FFFFFF" />
<rect x="16" y="6" width="1" height="1" fill="#FFFFFF" />
<rect x="17" y="6" width="1" height="1" fill="#FFFFFF" />
<rect x="18" y="6" width="1" height="1" fill="#E1EBFF" />
<rect x="19" y="6" width="1" height="1" fill="#B9D0FF" />
<rect x="27" y="6" width="1" height="1" fill="#B9D0FF" />
<rect x="28" y="6" width="1" height="1" fill="#B9D0FF" />
<rect x="29" y="6" width="1" height="1" fill="#E1EBFF" />
<rect x="30" y="6" width="1" height="1" fill="#FFFFFF" />
<rect x="31" y="6" width="1" height="1" fill="#FFFFFF" />
<rect x="32" y="6" width="1" height="1" fill="#FFFFFF" />
<rect x="33" y="6" width="1" height="1" fill="#FFFFFF" />
<rect x="34" y="6" width="1" height="1" fill="#FFFFFF" />
<rect x="35" y="6" width="1" height="1" fill="#FFFFFF" />
<rect x="36" y="6" width="1" height="1" fill="#FFFFFF" />
<rect x="37" y="6" width="1" height="1" fill="#E1EBFF" />
<rect x="38" y="6" width="1" height="1" fill="#E1EBFF" />
<rect x="39" y="6" width="1" height="1" fill="#B9D0FF" />
<rect x="40" y="6" width="1" height="1" fill="#B9D0FF" />
<rect x="45" y="6" width="1" height="1" fill="#B9D0FF" />
<rect x="46" y="6" width="1" height="1" fill="#E1EBFF" />
<rect x="47" y="6" width="1" height="1" fill="#FFFFFF" />
<rect x="48" y="6" width="1" height="1" fill="#FFFFFF" />
<rect x="49" y="6" width="1" height="1" fill="#FFFFFF" />
<rect x="50" y="6" width="1" height="1" fill="#FFFFFF" />
<rect x="51" y="6" width="1" height="1" fill="#FFFFFF" />
<rect x="52" y="6" width="1" height="1" fill="#FFFFFF" />
<rect x="53" y="6" width="1" height="1" fill="#E1EBFF" />
<rect x="54" y="6" width="1" height="1" fill="#FFFFFF" />
<rect x="55" y="6" width="1" height="1" fill="#FFFFFF" />
<rect x="56" y="6" width="1" height="1" fill="#FFFFFF" />
<rect x="57" y="6" width="1" height="1" fill="#FFFFFF" />
<rect x="58" y="6" width="1" height="1" fill="#E1EBFF" />
<rect x="59" y="6" width="1" height="1" fill="#FFFFFF" />
<rect x="60" y="6" width="1" height="1" fill="#FFFFFF" />
<rect x="61" y="6" width="1" height="1" fill="#FFFFFF" />
<rect x="62" y="6" width="1" height="1" fill="#FFFFFF" />
<rect x="63" y="6" width="1" height="1" fill="#E1EBFF" />
<rect x="64" y="6" width="1" height="1" fill="#B9D0FF" />
<rect x="1" y="7" width="1" height="1" fill="#B9D0FF" />
<rect x="2" y="7" width="1" height="1" fill="#E1EBFF" />
<rect x="3" y="7" width="1" height="1" fill="#FFFFFF" />
<rect x="4" y="7" width="1" height="1" fill="#FFFFFF" />
<rect x="5" y="7" width="1" height="1" fill="#FFFFFF" />
<rect x="6" y="7" width="1" height="1" fill="#FFFFFF" />
<rect x="7" y="7" width="1" height="1" fill="#FFFFFF" />
<rect x="8" y="7" width="1" height="1" fill="#FFFFFF" />
<rect x="9" y="7" width="1" height="1" fill="#E1EBFF" />
<rect x="10" y="7" width="1" height="1" fill="#FFFFFF" />
<rect x="11" y="7" width="1" height="1" fill="#FFFFFF" />
<rect x="12" y="7" width="1" height="1" fill="#FFFFFF" />
<rect x="13" y="7" width="1" height="1" fill="#FFFFFF" />
<rect x="14" y="7" width="1" height="1" fill="#E1EBFF" />
<rect x="15" y="7" width="1" height="1" fill="#FFFFFF" />
<rect x="16" y="7" width="1" height="1" fill="#FFFFFF" />
<rect x="17" y="7" width="1" height="1" fill="#FFFFFF" />
<rect x="18" y="7" width="1" height="1" fill="#FFFFFF" />
<rect x="19" y="7" width="1" height="1" fill="#E1EBFF" />
<rect x="20" y="7" width="1" height="1" fill="#B9D0FF" />
<rect x="24" y="7" width="1" height="1" fill="#B9D0FF" />
<rect x="25" y="7" width="1" height="1" fill="#B9D0FF" />
<rect x="26" y="7" width="1" height="1" fill="#B9D0FF" />
<rect x="27" y="7" width="1" height="1" fill="#FFFFFF" />
<rect x="28" y="7" width="1" height="1" fill="#FFFFFF" />
<rect x="29" y="7" width="1" height="1" fill="#FFFFFF" />
<rect x="30" y="7" width="1" height="1" fill="#E1EBFF" />
<rect x="31" y="7" width="1" height="1" fill="#FFFFFF" />
<rect x="32" y="7" width="1" height="1" fill="#FFFFFF" />
<rect x="33" y="7" width="1" height="1" fill="#FFFFFF" />
<rect x="34" y="7" width="1" height="1" fill="#FFFFFF" />
<rect x="35" y="7" width="1" height="1" fill="#FFFFFF" />
<rect x="36" y="7" width="1" height="1" fill="#E1EBFF" />
<rect x="37" y="7" width="1" height="1" fill="#FFFFFF" />
<rect x="38" y="7" width="1" height="1" fill="#FFFFFF" />
<rect x="39" y="7" width="1" height="1" fill="#FFFFFF" />
<rect x="40" y="7" width="1" height="1" fill="#E1EBFF" />
<rect x="41" y="7" width="1" height="1" fill="#B9D0FF" />
<rect x="45" y="7" width="1" height="1" fill="#B9D0FF" />
<rect x="46" y="7" width="1" height="1" fill="#E1EBFF" />
<rect x="47" y="7" width="1" height="1" fill="#E1EBFF" />
<rect x="48" y="7" width="1" height="1" fill="#FFFFFF" />
<rect x="49" y="7" width="1" height="1" fill="#FFFFFF" />
<rect x="50" y="7" width="1" height="1" fill="#FFFFFF" />
<rect x="51" y="7" width="1" height="1" fill="#FFFFFF" />
<rect x="52" y="7" width="1" height="1" fill="#E1EBFF" />
<rect x="53" y="7" width="1" height="1" fill="#E1EBFF" />
<rect x="54" y="7" width="1" height="1" fill="#E1EBFF" />
<rect x="55" y="7" width="1" height="1" fill="#E1EBFF" />
<rect x="56" y="7" width="1" height="1" fill="#E1EBFF" />
<rect x="57" y="7" width="1" height="1" fill="#E1EBFF" />
<rect x="58" y="7" width="1" height="1" fill="#FFFFFF" />
<rect x="59" y="7" width="1" height="1" fill="#FFFFFF" />
<rect x="60" y="7" width="1" height="1" fill="#FFFFFF" />
<rect x="61" y="7" width="1" height="1" fill="#FFFFFF" />
<rect x="62" y="7" width="1" height="1" fill="#FFFFFF" />
<rect x="63" y="7" width="1" height="1" fill="#E1EBFF" />
<rect x="64" y="7" width="1" height="1" fill="#B9D0FF" />
<rect x="1" y="8" width="1" height="1" fill="#B9D0FF" />
<rect x="2" y="8" width="1" height="1" fill="#E1EBFF" />
<rect x="3" y="8" width="1" height="1" fill="#E1EBFF" />
<rect x="4" y="8" width="1" height="1" fill="#FFFFFF" />
<rect x="5" y="8" width="1" height="1" fill="#FFFFFF" />
<rect x="6" y="8" width="1" height="1" fill="#FFFFFF" />
<rect x="7" y="8" width="1" height="1" fill="#FFFFFF" />
<rect x="8" y="8" width="1" height="1" fill="#E1EBFF" />
<rect x="9" y="8" width="1" height="1" fill="#E1EBFF" />
<rect x="10" y="8" width="1" height="1" fill="#E1EBFF" />
<rect x="11" y="8" width="1" height="1" fill="#E1EBFF" />
<rect x="12" y="8" width="1" height="1" fill="#E1EBFF" />
<rect x="13" y="8" width="1" height="1" fill="#E1EBFF" />
<rect x="14" y="8" width="1" height="1" fill="#FFFFFF" />
<rect x="15" y="8" width="1" height="1" fill="#FFFFFF" />
<rect x="16" y="8" width="1" height="1" fill="#FFFFFF" />
<rect x="17" y="8" width="1" height="1" fill="#FFFFFF" />
<rect x="18" y="8" width="1" height="1" fill="#FFFFFF" />
<rect x="19" y="8" width="1" height="1" fill="#E1EBFF" />
<rect x="20" y="8" width="1" height="1" fill="#B9D0FF" />
<rect x="23" y="8" width="1" height="1" fill="#B9D0FF" />
<rect x="24" y="8" width="1" height="1" fill="#E1EBFF" />
<rect x="25" y="8" width="1" height="1" fill="#FFFFFF" />
<rect x="26" y="8" width="1" height="1" fill="#FFFFFF" />
<rect x="27" y="8" width="1" height="1" fill="#FFFFFF" />
<rect x="28" y="8" width="1" height="1" fill="#FFFFFF" />
<rect x="29" y="8" width="1" height="1" fill="#FFFFFF" />
<rect x="30" y="8" width="1" height="1" fill="#FFFFFF" />
<rect x="31" y="8" width="1" height="1" fill="#E1EBFF" />
<rect x="32" y="8" width="1" height="1" fill="#FFFFFF" />
<rect x="33" y="8" width="1" height="1" fill="#FFFFFF" />
<rect x="34" y="8" width="1" height="1" fill="#FFFFFF" />
<rect x="35" y="8" width="1" height="1" fill="#FFFFFF" />
<rect x="36" y="8" width="1" height="1" fill="#E1EBFF" />
<rect x="37" y="8" width="1" height="1" fill="#FFFFFF" />
<rect x="38" y="8" width="1" height="1" fill="#FFFFFF" />
<rect x="39" y="8" width="1" height="1" fill="#FFFFFF" />
<rect x="40" y="8" width="1" height="1" fill="#FFFFFF" />
<rect x="41" y="8" width="1" height="1" fill="#E1EBFF" />
<rect x="42" y="8" width="1" height="1" fill="#B9D0FF" />
<rect x="46" y="8" width="1" height="1" fill="#B9D0FF" />
<rect x="47" y="8" width="1" height="1" fill="#E1EBFF" />
<rect x="48" y="8" width="1" height="1" fill="#E1EBFF" />
<rect x="49" y="8" width="1" height="1" fill="#E1EBFF" />
<rect x="50" y="8" width="1" height="1" fill="#E1EBFF" />
<rect x="51" y="8" width="1" height="1" fill="#E1EBFF" />
<rect x="52" y="8" width="1" height="1" fill="#E1EBFF" />
<rect x="53" y="8" width="1" height="1" fill="#E1EBFF" />
<rect x="54" y="8" width="1" height="1" fill="#E1EBFF" />
<rect x="55" y="8" width="1" height="1" fill="#E1EBFF" />
<rect x="56" y="8" width="1" height="1" fill="#E1EBFF" />
<rect x="57" y="8" width="1" height="1" fill="#E1EBFF" />
<rect x="58" y="8" width="1" height="1" fill="#E1EBFF" />
<rect x="59" y="8" width="1" height="1" fill="#E1EBFF" />
<rect x="60" y="8" width="1" height="1" fill="#E1EBFF" />
<rect x="61" y="8" width="1" height="1" fill="#E1EBFF" />
<rect x="62" y="8" width="1" height="1" fill="#E1EBFF" />
<rect x="63" y="8" width="1" height="1" fill="#E1EBFF" />
<rect x="64" y="8" width="1" height="1" fill="#B9D0FF" />
<rect x="2" y="9" width="1" height="1" fill="#B9D0FF" />
<rect x="3" y="9" width="1" height="1" fill="#E1EBFF" />
<rect x="4" y="9" width="1" height="1" fill="#E1EBFF" />
<rect x="5" y="9" width="1" height="1" fill="#E1EBFF" />
<rect x="6" y="9" width="1" height="1" fill="#E1EBFF" />
<rect x="7" y="9" width="1" height="1" fill="#E1EBFF" />
<rect x="8" y="9" width="1" height="1" fill="#E1EBFF" />
<rect x="9" y="9" width="1" height="1" fill="#E1EBFF" />
<rect x="10" y="9" width="1" height="1" fill="#E1EBFF" />
<rect x="11" y="9" width="1" height="1" fill="#E1EBFF" />
<rect x="12" y="9" width="1" height="1" fill="#E1EBFF" />
<rect x="13" y="9" width="1" height="1" fill="#E1EBFF" />
<rect x="14" y="9" width="1" height="1" fill="#E1EBFF" />
<rect x="15" y="9" width="1" height="1" fill="#E1EBFF" />
<rect x="16" y="9" width="1" height="1" fill="#E1EBFF" />
<rect x="17" y="9" width="1" height="1" fill="#E1EBFF" />
<rect x="18" y="9" width="1" height="1" fill="#E1EBFF" />
<rect x="19" y="9" width="1" height="1" fill="#E1EBFF" />
<rect x="20" y="9" width="1" height="1" fill="#B9D0FF" />
<rect x="23" y="9" width="1" height="1" fill="#B9D0FF" />
<rect x="24" y="9" width="1" height="1" fill="#E1EBFF" />
<rect x="25" y="9" width="1" height="1" fill="#E1EBFF" />
<rect x="26" y="9" width="1" height="1" fill="#FFFFFF" />
<rect x="27" y="9" width="1" height="1" fill="#FFFFFF" />
<rect x="28" y="9" width="1" height="1" fill="#FFFFFF" />
<rect x="29" y="9" width="1" height="1" fill="#FFFFFF" />
<rect x="30" y="9" width="1" height="1" fill="#E1EBFF" />
<rect x="31" y="9" width="1" height="1" fill="#E1EBFF" />
<rect x="32" y="9" width="1" height="1" fill="#E1EBFF" />
<rect x="33" y="9" width="1" height="1" fill="#E1EBFF" />
<rect x="34" y="9" width="1" height="1" fill="#E1EBFF" />
<rect x="35" y="9" width="1" height="1" fill="#E1EBFF" />
<rect x="36" y="9" width="1" height="1" fill="#FFFFFF" />
<rect x="37" y="9" width="1" height="1" fill="#FFFFFF" />
<rect x="38" y="9" width="1" height="1" fill="#FFFFFF" />
<rect x="39" y="9" width="1" height="1" fill="#FFFFFF" />
<rect x="40" y="9" width="1" height="1" fill="#FFFFFF" />
<rect x="41" y="9" width="1" height="1" fill="#E1EBFF" />
<rect x="42" y="9" width="1" height="1" fill="#B9D0FF" />
<rect x="47" y="9" width="1" height="1" fill="#B9D0FF" />
<rect x="48" y="9" width="1" height="1" fill="#B9D0FF" />
<rect x="49" y="9" width="1" height="1" fill="#B9D0FF" />
<rect x="50" y="9" width="1" height="1" fill="#B9D0FF" />
<rect x="51" y="9" width="1" height="1" fill="#B9D0FF" />
<rect x="52" y="9" width="1" height="1" fill="#B9D0FF" />
<rect x="53" y="9" width="1" height="1" fill="#B9D0FF" />
<rect x="54" y="9" width="1" height="1" fill="#B9D0FF" />
<rect x="55" y="9" width="1" height="1" fill="#B9D0FF" />
<rect x="56" y="9" width="1" height="1" fill="#B9D0FF" />
<rect x="57" y="9" width="1" height="1" fill="#B9D0FF" />
<rect x="58" y="9" width="1" height="1" fill="#B9D0FF" />
<rect x="59" y="9" width="1" height="1" fill="#B9D0FF" />
<rect x="60" y="9" width="1" height="1" fill="#B9D0FF" />
<rect x="61" y="9" width="1" height="1" fill="#B9D0FF" />
<rect x="62" y="9" width="1" height="1" fill="#B9D0FF" />
<rect x="63" y="9" width="1" height="1" fill="#B9D0FF" />
<rect x="3" y="10" width="1" height="1" fill="#B9D0FF" />
<rect x="4" y="10" width="1" height="1" fill="#B9D0FF" />
<rect x="5" y="10" width="1" height="1" fill="#B9D0FF" />
<rect x="6" y="10" width="1" height="1" fill="#B9D0FF" />
<rect x="7" y="10" width="1" height="1" fill="#B9D0FF" />
<rect x="8" y="10" width="1" height="1" fill="#B9D0FF" />
<rect x="9" y="10" width="1" height="1" fill="#B9D0FF" />
<rect x="10" y="10" width="1" height="1" fill="#B9D0FF" />
<rect x="11" y="10" width="1" height="1" fill="#B9D0FF" />
<rect x="12" y="10" width="1" height="1" fill="#B9D0FF" />
<rect x="13" y="10" width="1" height="1" fill="#B9D0FF" />
<rect x="14" y="10" width="1" height="1" fill="#B9D0FF" />
<rect x="15" y="10" width="1" height="1" fill="#B9D0FF" />
<rect x="16" y="10" width="1" height="1" fill="#B9D0FF" />
<rect x="17" y="10" width="1" height="1" fill="#B9D0FF" />
<rect x="18" y="10" width="1" height="1" fill="#B9D0FF" />
<rect x="19" y="10" width="1" height="1" fill="#B9D0FF" />
<rect x="24" y="10" width="1" height="1" fill="#B9D0FF" />
<rect x="25" y="10" width="1" height="1" fill="#E1EBFF" />
<rect x="26" y="10" width="1" height="1" fill="#E1EBFF" />
<rect x="27" y="10" width="1" height="1" fill="#E1EBFF" />
<rect x="28" y="10" width="1" height="1" fill="#E1EBFF" />
<rect x="29" y="10" width="1" height="1" fill="#E1EBFF" />
<rect x="30" y="10" width="1" height="1" fill="#E1EBFF" />
<rect x="31" y="10" width="1" height="1" fill="#E1EBFF" />
<rect x="32" y="10" width="1" height="1" fill="#E1EBFF" />
<rect x="33" y="10" width="1" height="1" fill="#E1EBFF" />
<rect x="34" y="10" width="1" height="1" fill="#E1EBFF" />
<rect x="35" y="10" width="1" height="1" fill="#E1EBFF" />
<rect x="36" y="10" width="1" height="1" fill="#E1EBFF" />
<rect x="37" y="10" width="1" height="1" fill="#E1EBFF" />
<rect x="38" y="10" width="1" height="1" fill="#E1EBFF" />
<rect x="39" y="10" width="1" height="1" fill="#E1EBFF" />
<rect x="40" y="10" width="1" height="1" fill="#E1EBFF" />
<rect x="41" y="10" width="1" height="1" fill="#E1EBFF" />
<rect x="42" y="10" width="1" height="1" fill="#B9D0FF" />
<rect x="25" y="11" width="1" height="1" fill="#B9D0FF" />
<rect x="26" y="11" width="1" height="1" fill="#B9D0FF" />
<rect x="27" y="11" width="1" height="1" fill="#B9D0FF" />
<rect x="28" y="11" width="1" height="1" fill="#B9D0FF" />
<rect x="29" y="11" width="1" height="1" fill="#B9D0FF" />
<rect x="30" y="11" width="1" height="1" fill="#B9D0FF" />
<rect x="31" y="11" width="1" height="1" fill="#B9D0FF" />
<rect x="32" y="11" width="1" height="1" fill="#B9D0FF" />
<rect x="33" y="11" width="1" height="1" fill="#B9D0FF" />
<rect x="34" y="11" width="1" height="1" fill="#B9D0FF" />
<rect x="35" y="11" width="1" height="1" fill="#B9D0FF" />
<rect x="36" y="11" width="1" height="1" fill="#B9D0FF" />
<rect x="37" y="11" width="1" height="1" fill="#B9D0FF" />
<rect x="38" y="11" width="1" height="1" fill="#B9D0FF" />
<rect x="39" y="11" width="1" height="1" fill="#B9D0FF" />
<rect x="40" y="11" width="1" height="1" fill="#B9D0FF" />
<rect x="41" y="11" width="1" height="1" fill="#B9D0FF" />
</svg>