<?xml version="1.0" encoding="UTF-8" ?>
<svg version="1.1" width="100" height="60" xmlns="http://www.w3.org/2000/svg" shape-rendering="crispEdges">
<rect x="21" y="0" width="1" height="1" fill="#4B692F" />
<rect x="22" y="0" width="1" height="1" fill="#99E550" />
<rect x="23" y="0" width="1" height="1" fill="#99E550" />
<rect x="24" y="0" width="1" height="1" fill="#99E550" />
<rect x="25" y="0" width="1" height="1" fill="#99E550" />
<rect x="26" y="0" width="1" height="1" fill="#99E550" />
<rect x="27" y="0" width="1" height="1" fill="#99E550" />
<rect x="28" y="0" width="1" height="1" fill="#4B692F" />
<rect x="29" y="0" width="1" height="1" fill="#4B692F" />
<rect x="30" y="0" width="1" height="1" fill="#4B692F" />
<rect x="31" y="0" width="1" height="1" fill="#4B692F" />
<rect x="32" y="0" width="1" height="1" fill="#6ABE30" />
<rect x="33" y="0" width="1" height="1" fill="#6ABE30" />
<rect x="34" y="0" width="1" height="1" fill="#99E550" />
<rect x="35" y="0" width="1" height="1" fill="#99E550" />
<rect x="36" y="0" width="1" height="1" fill="#4B692F" />
<rect x="37" y="0" width="1" height="1" fill="#6ABE30" />
<rect x="38" y="0" width="1" height="1" fill="#99E550" />
<rect x="39" y="0" width="1" height="1" fill="#4B692F" />
<rect x="21" y="1" width="1" height="1" fill="#4B692F" />
<rect x="22" y="1" width="1" height="1" fill="#4B692F" />
<rect x="23" y="1" width="1" height="1" fill="#99E550" />
<rect x="24" y="1" width="1" height="1" fill="#99E550" />
<rect x="25" y="1" width="1" height="1" fill="#99E550" />
<rect x="26" y="1" width="1" height="1" fill="#99E550" />
<rect x="27" y="1" width="1" height="1" fill="#99E550" />
<rect x="28" y="1" width="1" height="1" fill="#4B692F" />
<rect x="29" y="1" width="1" height="1" fill="#6ABE30" />
<rect x="30" y="1" width="1" height="1" fill="#6ABE30" />
<rect x="31" y="1" width="1" height="1" fill="#4B692F" />
<rect x="32" y="1" width="1" height="1" fill="#4B692F" />
<rect x="33" y="1" width="1" height="1" fill="#4B692F" />
<rect x="34" y="1" width="1" height="1" fill="#99E550" />
<rect x="35" y="1" width="1" height="1" fill="#4B692F" />
<rect x="36" y="1" width="1" height="1" fill="#99E550" />
<rect x="37" y="1" width="1" height="1" fill="#99E550" />
<rect x="38" y="1" width="1" height="1" fill="#99E550" />
<rect x="39" y="1" width="1" height="1" fill="#4B692F" />
<rect x="22" y="2" width="1" height="1" fill="#4B692F" />
<rect x="23" y="2" width="1" height="1" fill="#4B692F" />
<rect x="24" y="2" width="1" height="1" fill="#99E550" />
<rect x="25" y="2" width="1" height="1" fill="#99E550" />
<rect x="26" y="2" width="1" height="1" fill="#99E550" />
<rect x="27" y="2" width="1" height="1" fill="#99E550" />
<rect x="28" y="2" width="1" height="1" fill="#4B692F" />
<rect x="29" y="2" width="1" height="1" fill="#4B692F" />
<rect x="30" y="2" width="1" height="1" fill="#6ABE30" />
<rect x="31" y="2" width="1" height="1" fill="#6ABE30" />
<rect x="32" y="2" width="1" height="1" fill="#6ABE30" />
<rect x="33" y="2" width="1" height="1" fill="#4B692F" />
<rect x="34" y="2" width="1" height="1" fill="#4B692F" />
<rect x="35" y="2" width="1" height="1" fill="#99E550" />
<rect x="36" y="2" width="1" height="1" fill="#99E550" />
<rect x="37" y="2" width="1" height="1" fill="#99E550" />
<rect x="38" y="2" width="1" height="1" fill="#4B692F" />
<rect x="39" y="2" width="1" height="1" fill="#4B692F" />
<rect x="23" y="3" width="1" height="1" fill="#4B692F" />
<rect x="24" y="3" width="1" height="1" fill="#4B692F" />
<rect x="25" y="3" width="1" height="1" fill="#99E550" />
<rect x="26" y="3" width="1" height="1" fill="#99E550" />
<rect x="27" y="3" width="1" height="1" fill="#99E550" />
<rect x="28" y="3" width="1" height="1" fill="#4B692F" />
<rect x="29" y="3" width="1" height="1" fill="#4B692F" />
<rect x="30" y="3" width="1" height="1" fill="#99E550" />
<rect x="31" y="3" width="1" height="1" fill="#99E550" />
<rect x="32" y="3" width="1" height="1" fill="#6ABE30" />
<rect x="33" y="3" width="1" height="1" fill="#6ABE30" />
<rect x="34" y="3" width="1" height="1" fill="#4B692F" />
<rect x="35" y="3" width="1" height="1" fill="#99E550" />
<rect x="36" y="3" width="1" height="1" fill="#99E550" />
<rect x="37" y="3" width="1" height="1" fill="#4B692F" />
<rect x="38" y="3" width="1" height="1" fill="#4B692F" />
<rect x="25" y="4" width="1" height="1" fill="#4B692F" />
<rect x="26" y="4" width="1" height="1" fill="#4B692F" />
<rect x="27" y="4" width="1" height="1" fill="#4B692F" />
<rect x="28" y="4" width="1" height="1" fill="#4B692F" />
<rect x="29" y="4" width="1" height="1" fill="#4B692F" />
<rect x="30" y="4" width="1" height="1" fill="#4B692F" />
<rect x="31" y="4" width="1" height="1" fill="#99E550" />
<rect x="32" y="4" width="1" height="1" fill="#99E550" />
<rect x="33" y="4" width="1" height="1" fill="#99E550" />
<rect x="34" y="4" width="1" height="1" fill="#6ABE30" />
<rect x="35" y="4" width="1" height="1" fill="#6ABE30" />
<rect x="36" y="4" width="1" height="1" fill="#4B692F" />
<rect x="37" y="4" width="1" height="1" fill="#4B692F" />
<rect x="30" y="5" width="1" height="1" fill="#4B692F" />
<rect x="31" y="5" width="1" height="1" fill="#99E550" />
<rect x="32" y="5" width="1" height="1" fill="#99E550" />
<rect x="33" y="5" width="1" height="1" fill="#6ABE30" />
<rect x="34" y="5" width="1" height="1" fill="#6ABE30" />
<rect x="35" y="5" width="1" height="1" fill="#4B692F" />
<rect x="31" y="6" width="1" height="1" fill="#4B692F" />
<rect x="32" y="6" width="1" height="1" fill="#99E550" />
<rect x="33" y="6" width="1" height="1" fill="#99E550" />
<rect x="34" y="6" width="1" height="1" fill="#6ABE30" />
<rect x="35" y="6" width="1" height="1" fill="#4B692F" />
<rect x="31" y="7" width="1" height="1" fill="#4B692F" />
<rect x="32" y="7" width="1" height="1" fill="#99E550" />
<rect x="33" y="7" width="1" height="1" fill="#99E550" />
<rect x="34" y="7" width="1" height="1" fill="#6ABE30" />
<rect x="35" y="7" width="1" height="1" fill="#4B692F" />
<rect x="36" y="7" width="1" height="1" fill="#4B692F" />
<rect x="32" y="8" width="1" height="1" fill="#4B692F" />
<rect x="33" y="8" width="1" height="1" fill="#99E550" />
<rect x="34" y="8" width="1" height="1" fill="#99E550" />
<rect x="35" y="8" width="1" height="1" fill="#99E550" />
<rect x="36" y="8" width="1" height="1" fill="#4B692F" />
<rect x="37" y="8" width="1" height="1" fill="#4B692F" />
<rect x="32" y="9" width="1" height="1" fill="#4B692F" />
<rect x="33" y="9" width="1" height="1" fill="#6ABE30" />
<rect x="34" y="9" width="1" height="1" fill="#99E550" />
<rect x="35" y="9" width="1" height="1" fill="#99E550" />
<rect x="36" y="9" width="1" height="1" fill="#4B692F" />
<rect x="31" y="10" width="1" height="1" fill="#4B692F" />
<rect x="32" y="10" width="1" height="1" fill="#4B692F" />
<rect x="33" y="10" width="1" height="1" fill="#6ABE30" />
<rect x="34" y="10" width="1" height="1" fill="#99E550" />
<rect x="35" y="10" width="1" height="1" fill="#99E550" />
<rect x="36" y="10" width="1" height="1" fill="#4B692F" />
<rect x="31" y="11" width="1" height="1" fill="#4B692F" />
<rect x="32" y="11" width="1" height="1" fill="#99E550" />
<rect x="33" y="11" width="1" height="1" fill="#99E550" />
<rect x="34" y="11" width="1" height="1" fill="#99E550" />
<rect x="35" y="11" width="1" height="1" fill="#4B692F" />
<rect x="31" y="12" width="1" height="1" fill="#4B692F" />
<rect x="32" y="12" width="1" height="1" fill="#99E550" />
<rect x="33" y="12" width="1" height="1" fill="#6ABE30" />
<rect x="34" y="12" width="1" height="1" fill="#4B692F" />
<rect x="38" y="12" width="1" height="1" fill="#4B692F" />
<rect x="39" y="12" width="1" height="1" fill="#4B692F" />
<rect x="40" y="12" width="1" height="1" fill="#4B692F" />
<rect x="41" y="12" width="1" height="1" fill="#4B692F" />
<rect x="42" y="12" width="1" height="1" fill="#4B692F" />
<rect x="31" y="13" width="1" height="1" fill="#4B692F" />
<rect x="32" y="13" width="1" height="1" fill="#99E550" />
<rect x="33" y="13" width="1" height="1" fill="#6ABE30" />
<rect x="34" y="13" width="1" height="1" fill="#4B692F" />
<rect x="38" y="13" width="1" height="1" fill="#4B692F" />
<rect x="39" y="13" width="1" height="1" fill="#6ABE30" />
<rect x="40" y="13" width="1" height="1" fill="#99E550" />
<rect x="41" y="13" width="1" height="1" fill="#99E550" />
<rect x="42" y="13" width="1" height="1" fill="#4B692F" />
<rect x="31" y="14" width="1" height="1" fill="#4B692F" />
<rect x="32" y="14" width="1" height="1" fill="#99E550" />
<rect x="33" y="14" width="1" height="1" fill="#6ABE30" />
<rect x="34" y="14" width="1" height="1" fill="#4B692F" />
<rect x="38" y="14" width="1" height="1" fill="#4B692F" />
<rect x="39" y="14" width="1" height="1" fill="#6ABE30" />
<rect x="40" y="14" width="1" height="1" fill="#99E550" />
<rect x="41" y="14" width="1" height="1" fill="#99E550" />
<rect x="42" y="14" width="1" height="1" fill="#4B692F" />
<rect x="31" y="15" width="1" height="1" fill="#4B692F" />
<rect x="32" y="15" width="1" height="1" fill="#99E550" />
<rect x="33" y="15" width="1" height="1" fill="#99E550" />
<rect x="34" y="15" width="1" height="1" fill="#6ABE30" />
<rect x="35" y="15" width="1" height="1" fill="#4B692F" />
<rect x="39" y="15" width="1" height="1" fill="#4B692F" />
<rect x="40" y="15" width="1" height="1" fill="#99E550" />
<rect x="41" y="15" width="1" height="1" fill="#99E550" />
<rect x="42" y="15" width="1" height="1" fill="#4B692F" />
<rect x="31" y="16" width="1" height="1" fill="#4B692F" />
<rect x="32" y="16" width="1" height="1" fill="#4B692F" />
<rect x="33" y="16" width="1" height="1" fill="#99E550" />
<rect x="34" y="16" width="1" height="1" fill="#6ABE30" />
<rect x="35" y="16" width="1" height="1" fill="#4B692F" />
<rect x="36" y="16" width="1" height="1" fill="#4B692F" />
<rect x="39" y="16" width="1" height="1" fill="#4B692F" />
<rect x="40" y="16" width="1" height="1" fill="#99E550" />
<rect x="41" y="16" width="1" height="1" fill="#99E550" />
<rect x="42" y="16" width="1" height="1" fill="#4B692F" />
<rect x="32" y="17" width="1" height="1" fill="#4B692F" />
<rect x="33" y="17" width="1" height="1" fill="#4B692F" />
<rect x="34" y="17" width="1" height="1" fill="#99E550" />
<rect x="35" y="17" width="1" height="1" fill="#6ABE30" />
<rect x="36" y="17" width="1" height="1" fill="#4B692F" />
<rect x="37" y="17" width="1" height="1" fill="#4B692F" />
<rect x="38" y="17" width="1" height="1" fill="#4B692F" />
<rect x="39" y="17" width="1" height="1" fill="#99E550" />
<rect x="40" y="17" width="1" height="1" fill="#99E550" />
<rect x="41" y="17" width="1" height="1" fill="#99E550" />
<rect x="42" y="17" width="1" height="1" fill="#4B692F" />
<rect x="33" y="18" width="1" height="1" fill="#4B692F" />
<rect x="34" y="18" width="1" height="1" fill="#4B692F" />
<rect x="35" y="18" width="1" height="1" fill="#99E550" />
<rect x="36" y="18" width="1" height="1" fill="#99E550" />
<rect x="37" y="18" width="1" height="1" fill="#99E550" />
<rect x="38" y="18" width="1" height="1" fill="#99E550" />
<rect x="39" y="18" width="1" height="1" fill="#99E550" />
<rect x="40" y="18" width="1" height="1" fill="#99E550" />
<rect x="41" y="18" width="1" height="1" fill="#4B692F" />
<rect x="42" y="18" width="1" height="1" fill="#4B692F" />
<rect x="34" y="19" width="1" height="1" fill="#4B692F" />
<rect x="35" y="19" width="1" height="1" fill="#4B692F" />
<rect x="36" y="19" width="1" height="1" fill="#4B692F" />
<rect x="37" y="19" width="1" height="1" fill="#4B692F" />
<rect x="38" y="19" width="1" height="1" fill="#4B692F" />
<rect x="39" y="19" width="1" height="1" fill="#4B692F" />
<rect x="40" y="19" width="1" height="1" fill="#4B692F" />
<rect x="41" y="19" width="1" height="1" fill="#4B692F" />
<rect x="96" y="31" width="1" height="1" fill="#4B692F" />
<rect x="97" y="31" width="1" height="1" fill="#4B692F" />
<rect x="98" y="31" width="1" height="1" fill="#4B692F" />
<rect x="99" y="31" width="1" height="1" fill="#4B692F" />
<rect x="81" y="32" width="1" height="1" fill="#4B692F" />
<rect x="82" y="32" width="1" height="1" fill="#4B692F" />
<rect x="83" y="32" width="1" height="1" fill="#4B692F" />
<rect x="84" y="32" width="1" height="1" fill="#4B692F" />
<rect x="85" y="32" width="1" height="1" fill="#4B692F" />
<rect x="86" y="32" width="1" height="1" fill="#4B692F" />
<rect x="87" y="32" width="1" height="1" fill="#4B692F" />
<rect x="95" y="32" width="1" height="1" fill="#4B692F" />
<rect x="96" y="32" width="1" height="1" fill="#4B692F" />
<rect x="97" y="32" width="1" height="1" fill="#99E550" />
<rect x="98" y="32" width="1" height="1" fill="#99E550" />
<rect x="99" y="32" width="1" height="1" fill="#99E550" />
<rect x="80" y="33" width="1" height="1" fill="#4B692F" />
<rect x="81" y="33" width="1" height="1" fill="#4B692F" />
<rect x="82" y="33" width="1" height="1" fill="#99E550" />
<rect x="83" y="33" width="1" height="1" fill="#99E550" />
<rect x="84" y="33" width="1" height="1" fill="#99E550" />
<rect x="85" y="33" width="1" height="1" fill="#99E550" />
<rect x="86" y="33" width="1" height="1" fill="#99E550" />
<rect x="87" y="33" width="1" height="1" fill="#4B692F" />
<rect x="94" y="33" width="1" height="1" fill="#4B692F" />
<rect x="95" y="33" width="1" height="1" fill="#4B692F" />
<rect x="96" y="33" width="1" height="1" fill="#99E550" />
<rect x="97" y="33" width="1" height="1" fill="#99E550" />
<rect x="98" y="33" width="1" height="1" fill="#6ABE30" />
<rect x="99" y="33" width="1" height="1" fill="#99E550" />
<rect x="80" y="34" width="1" height="1" fill="#4B692F" />
<rect x="81" y="34" width="1" height="1" fill="#99E550" />
<rect x="82" y="34" width="1" height="1" fill="#99E550" />
<rect x="83" y="34" width="1" height="1" fill="#99E550" />
<rect x="84" y="34" width="1" height="1" fill="#99E550" />
<rect x="85" y="34" width="1" height="1" fill="#99E550" />
<rect x="86" y="34" width="1" height="1" fill="#99E550" />
<rect x="87" y="34" width="1" height="1" fill="#4B692F" />
<rect x="94" y="34" width="1" height="1" fill="#4B692F" />
<rect x="95" y="34" width="1" height="1" fill="#99E550" />
<rect x="96" y="34" width="1" height="1" fill="#99E550" />
<rect x="97" y="34" width="1" height="1" fill="#99E550" />
<rect x="98" y="34" width="1" height="1" fill="#4B692F" />
<rect x="99" y="34" width="1" height="1" fill="#99E550" />
<rect x="80" y="35" width="1" height="1" fill="#4B692F" />
<rect x="81" y="35" width="1" height="1" fill="#99E550" />
<rect x="82" y="35" width="1" height="1" fill="#99E550" />
<rect x="83" y="35" width="1" height="1" fill="#4B692F" />
<rect x="84" y="35" width="1" height="1" fill="#4B692F" />
<rect x="85" y="35" width="1" height="1" fill="#6ABE30" />
<rect x="86" y="35" width="1" height="1" fill="#6ABE30" />
<rect x="87" y="35" width="1" height="1" fill="#4B692F" />
<rect x="93" y="35" width="1" height="1" fill="#4B692F" />
<rect x="94" y="35" width="1" height="1" fill="#6ABE30" />
<rect x="95" y="35" width="1" height="1" fill="#99E550" />
<rect x="96" y="35" width="1" height="1" fill="#99E550" />
<rect x="97" y="35" width="1" height="1" fill="#4B692F" />
<rect x="98" y="35" width="1" height="1" fill="#99E550" />
<rect x="99" y="35" width="1" height="1" fill="#99E550" />
<rect x="80" y="36" width="1" height="1" fill="#4B692F" />
<rect x="81" y="36" width="1" height="1" fill="#99E550" />
<rect x="82" y="36" width="1" height="1" fill="#4B692F" />
<rect x="85" y="36" width="1" height="1" fill="#4B692F" />
<rect x="86" y="36" width="1" height="1" fill="#4B692F" />
<rect x="87" y="36" width="1" height="1" fill="#4B692F" />
<rect x="91" y="36" width="1" height="1" fill="#4B692F" />
<rect x="92" y="36" width="1" height="1" fill="#4B692F" />
<rect x="93" y="36" width="1" height="1" fill="#99E550" />
<rect x="94" y="36" width="1" height="1" fill="#6ABE30" />
<rect x="95" y="36" width="1" height="1" fill="#4B692F" />
<rect x="96" y="36" width="1" height="1" fill="#4B692F" />
<rect x="97" y="36" width="1" height="1" fill="#99E550" />
<rect x="98" y="36" width="1" height="1" fill="#99E550" />
<rect x="99" y="36" width="1" height="1" fill="#6ABE30" />
<rect x="9" y="37" width="1" height="1" fill="#4B692F" />
<rect x="10" y="37" width="1" height="1" fill="#4B692F" />
<rect x="11" y="37" width="1" height="1" fill="#4B692F" />
<rect x="12" y="37" width="1" height="1" fill="#4B692F" />
<rect x="13" y="37" width="1" height="1" fill="#4B692F" />
<rect x="14" y="37" width="1" height="1" fill="#4B692F" />
<rect x="15" y="37" width="1" height="1" fill="#4B692F" />
<rect x="16" y="37" width="1" height="1" fill="#4B692F" />
<rect x="80" y="37" width="1" height="1" fill="#4B692F" />
<rect x="81" y="37" width="1" height="1" fill="#99E550" />
<rect x="82" y="37" width="1" height="1" fill="#4B692F" />
<rect x="90" y="37" width="1" height="1" fill="#4B692F" />
<rect x="91" y="37" width="1" height="1" fill="#99E550" />
<rect x="92" y="37" width="1" height="1" fill="#99E550" />
<rect x="93" y="37" width="1" height="1" fill="#99E550" />
<rect x="94" y="37" width="1" height="1" fill="#99E550" />
<rect x="95" y="37" width="1" height="1" fill="#6ABE30" />
<rect x="96" y="37" width="1" height="1" fill="#4B692F" />
<rect x="97" y="37" width="1" height="1" fill="#4B692F" />
<rect x="98" y="37" width="1" height="1" fill="#6ABE30" />
<rect x="99" y="37" width="1" height="1" fill="#6ABE30" />
<rect x="8" y="38" width="1" height="1" fill="#4B692F" />
<rect x="9" y="38" width="1" height="1" fill="#4B692F" />
<rect x="10" y="38" width="1" height="1" fill="#99E550" />
<rect x="11" y="38" width="1" height="1" fill="#99E550" />
<rect x="12" y="38" width="1" height="1" fill="#99E550" />
<rect x="13" y="38" width="1" height="1" fill="#99E550" />
<rect x="14" y="38" width="1" height="1" fill="#99E550" />
<rect x="15" y="38" width="1" height="1" fill="#99E550" />
<rect x="16" y="38" width="1" height="1" fill="#4B692F" />
<rect x="17" y="38" width="1" height="1" fill="#4B692F" />
<rect x="80" y="38" width="1" height="1" fill="#4B692F" />
<rect x="81" y="38" width="1" height="1" fill="#99E550" />
<rect x="82" y="38" width="1" height="1" fill="#4B692F" />
<rect x="83" y="38" width="1" height="1" fill="#4B692F" />
<rect x="89" y="38" width="1" height="1" fill="#4B692F" />
<rect x="90" y="38" width="1" height="1" fill="#99E550" />
<rect x="91" y="38" width="1" height="1" fill="#99E550" />
<rect x="92" y="38" width="1" height="1" fill="#99E550" />
<rect x="93" y="38" width="1" height="1" fill="#6ABE30" />
<rect x="94" y="38" width="1" height="1" fill="#99E550" />
<rect x="95" y="38" width="1" height="1" fill="#6ABE30" />
<rect x="96" y="38" width="1" height="1" fill="#6ABE30" />
<rect x="97" y="38" width="1" height="1" fill="#4B692F" />
<rect x="98" y="38" width="1" height="1" fill="#6ABE30" />
<rect x="99" y="38" width="1" height="1" fill="#4B692F" />
<rect x="8" y="39" width="1" height="1" fill="#4B692F" />
<rect x="9" y="39" width="1" height="1" fill="#99E550" />
<rect x="10" y="39" width="1" height="1" fill="#99E550" />
<rect x="11" y="39" width="1" height="1" fill="#99E550" />
<rect x="12" y="39" width="1" height="1" fill="#4B692F" />
<rect x="13" y="39" width="1" height="1" fill="#4B692F" />
<rect x="14" y="39" width="1" height="1" fill="#4B692F" />
<rect x="15" y="39" width="1" height="1" fill="#6ABE30" />
<rect x="16" y="39" width="1" height="1" fill="#99E550" />
<rect x="17" y="39" width="1" height="1" fill="#4B692F" />
<rect x="18" y="39" width="1" height="1" fill="#4B692F" />
<rect x="80" y="39" width="1" height="1" fill="#4B692F" />
<rect x="81" y="39" width="1" height="1" fill="#99E550" />
<rect x="82" y="39" width="1" height="1" fill="#6ABE30" />
<rect x="83" y="39" width="1" height="1" fill="#4B692F" />
<rect x="84" y="39" width="1" height="1" fill="#4B692F" />
<rect x="88" y="39" width="1" height="1" fill="#4B692F" />
<rect x="89" y="39" width="1" height="1" fill="#99E550" />
<rect x="90" y="39" width="1" height="1" fill="#99E550" />
<rect x="91" y="39" width="1" height="1" fill="#6ABE30" />
<rect x="92" y="39" width="1" height="1" fill="#6ABE30" />
<rect x="93" y="39" width="1" height="1" fill="#6ABE30" />
<rect x="94" y="39" width="1" height="1" fill="#99E550" />
<rect x="95" y="39" width="1" height="1" fill="#99E550" />
<rect x="96" y="39" width="1" height="1" fill="#6ABE30" />
<rect x="97" y="39" width="1" height="1" fill="#4B692F" />
<rect x="98" y="39" width="1" height="1" fill="#4B692F" />
<rect x="99" y="39" width="1" height="1" fill="#4B692F" />
<rect x="8" y="40" width="1" height="1" fill="#4B692F" />
<rect x="9" y="40" width="1" height="1" fill="#99E550" />
<rect x="10" y="40" width="1" height="1" fill="#99E550" />
<rect x="11" y="40" width="1" height="1" fill="#4B692F" />
<rect x="14" y="40" width="1" height="1" fill="#4B692F" />
<rect x="15" y="40" width="1" height="1" fill="#4B692F" />
<rect x="16" y="40" width="1" height="1" fill="#6ABE30" />
<rect x="17" y="40" width="1" height="1" fill="#99E550" />
<rect x="18" y="40" width="1" height="1" fill="#4B692F" />
<rect x="19" y="40" width="1" height="1" fill="#4B692F" />
<rect x="80" y="40" width="1" height="1" fill="#4B692F" />
<rect x="81" y="40" width="1" height="1" fill="#4B692F" />
<rect x="82" y="40" width="1" height="1" fill="#99E550" />
<rect x="83" y="40" width="1" height="1" fill="#6ABE30" />
<rect x="84" y="40" width="1" height="1" fill="#6ABE30" />
<rect x="85" y="40" width="1" height="1" fill="#4B692F" />
<rect x="86" y="40" width="1" height="1" fill="#4B692F" />
<rect x="87" y="40" width="1" height="1" fill="#4B692F" />
<rect x="88" y="40" width="1" height="1" fill="#99E550" />
<rect x="89" y="40" width="1" height="1" fill="#99E550" />
<rect x="90" y="40" width="1" height="1" fill="#99E550" />
<rect x="91" y="40" width="1" height="1" fill="#4B692F" />
<rect x="92" y="40" width="1" height="1" fill="#4B692F" />
<rect x="93" y="40" width="1" height="1" fill="#4B692F" />
<rect x="94" y="40" width="1" height="1" fill="#4B692F" />
<rect x="95" y="40" width="1" height="1" fill="#99E550" />
<rect x="96" y="40" width="1" height="1" fill="#6ABE30" />
<rect x="97" y="40" width="1" height="1" fill="#6ABE30" />
<rect x="98" y="40" width="1" height="1" fill="#4B692F" />
<rect x="99" y="40" width="1" height="1" fill="#6ABE30" />
<rect x="8" y="41" width="1" height="1" fill="#4B692F" />
<rect x="9" y="41" width="1" height="1" fill="#99E550" />
<rect x="10" y="41" width="1" height="1" fill="#99E550" />
<rect x="11" y="41" width="1" height="1" fill="#4B692F" />
<rect x="15" y="41" width="1" height="1" fill="#4B692F" />
<rect x="16" y="41" width="1" height="1" fill="#6ABE30" />
<rect x="17" y="41" width="1" height="1" fill="#99E550" />
<rect x="18" y="41" width="1" height="1" fill="#99E550" />
<rect x="19" y="41" width="1" height="1" fill="#4B692F" />
<rect x="81" y="41" width="1" height="1" fill="#4B692F" />
<rect x="82" y="41" width="1" height="1" fill="#4B692F" />
<rect x="83" y="41" width="1" height="1" fill="#99E550" />
<rect x="84" y="41" width="1" height="1" fill="#99E550" />
<rect x="85" y="41" width="1" height="1" fill="#6ABE30" />
<rect x="86" y="41" width="1" height="1" fill="#6ABE30" />
<rect x="87" y="41" width="1" height="1" fill="#6ABE30" />
<rect x="88" y="41" width="1" height="1" fill="#99E550" />
<rect x="89" y="41" width="1" height="1" fill="#6ABE30" />
<rect x="90" y="41" width="1" height="1" fill="#4B692F" />
<rect x="91" y="41" width="1" height="1" fill="#4B692F" />
<rect x="94" y="41" width="1" height="1" fill="#4B692F" />
<rect x="95" y="41" width="1" height="1" fill="#4B692F" />
<rect x="96" y="41" width="1" height="1" fill="#4B692F" />
<rect x="97" y="41" width="1" height="1" fill="#6ABE30" />
<rect x="98" y="41" width="1" height="1" fill="#4B692F" />
<rect x="99" y="41" width="1" height="1" fill="#99E550" />
<rect x="8" y="42" width="1" height="1" fill="#4B692F" />
<rect x="9" y="42" width="1" height="1" fill="#99E550" />
<rect x="10" y="42" width="1" height="1" fill="#99E550" />
<rect x="11" y="42" width="1" height="1" fill="#6ABE30" />
<rect x="12" y="42" width="1" height="1" fill="#4B692F" />
<rect x="16" y="42" width="1" height="1" fill="#4B692F" />
<rect x="17" y="42" width="1" height="1" fill="#6ABE30" />
<rect x="18" y="42" width="1" height="1" fill="#99E550" />
<rect x="19" y="42" width="1" height="1" fill="#4B692F" />
<rect x="82" y="42" width="1" height="1" fill="#4B692F" />
<rect x="83" y="42" width="1" height="1" fill="#4B692F" />
<rect x="84" y="42" width="1" height="1" fill="#99E550" />
<rect x="85" y="42" width="1" height="1" fill="#99E550" />
<rect x="86" y="42" width="1" height="1" fill="#99E550" />
<rect x="87" y="42" width="1" height="1" fill="#99E550" />
<rect x="88" y="42" width="1" height="1" fill="#99E550" />
<rect x="89" y="42" width="1" height="1" fill="#4B692F" />
<rect x="90" y="42" width="1" height="1" fill="#4B692F" />
<rect x="91" y="42" width="1" height="1" fill="#4B692F" />
<rect x="94" y="42" width="1" height="1" fill="#4B692F" />
<rect x="95" y="42" width="1" height="1" fill="#4B692F" />
<rect x="96" y="42" width="1" height="1" fill="#4B692F" />
<rect x="97" y="42" width="1" height="1" fill="#4B692F" />
<rect x="98" y="42" width="1" height="1" fill="#4B692F" />
<rect x="99" y="42" width="1" height="1" fill="#4B692F" />
<rect x="8" y="43" width="1" height="1" fill="#4B692F" />
<rect x="9" y="43" width="1" height="1" fill="#99E550" />
<rect x="10" y="43" width="1" height="1" fill="#99E550" />
<rect x="11" y="43" width="1" height="1" fill="#6ABE30" />
<rect x="12" y="43" width="1" height="1" fill="#4B692F" />
<rect x="16" y="43" width="1" height="1" fill="#4B692F" />
<rect x="17" y="43" width="1" height="1" fill="#6ABE30" />
<rect x="18" y="43" width="1" height="1" fill="#99E550" />
<rect x="19" y="43" width="1" height="1" fill="#4B692F" />
<rect x="83" y="43" width="1" height="1" fill="#4B692F" />
<rect x="84" y="43" width="1" height="1" fill="#4B692F" />
<rect x="85" y="43" width="1" height="1" fill="#4B692F" />
<rect x="86" y="43" width="1" height="1" fill="#4B692F" />
<rect x="87" y="43" width="1" height="1" fill="#4B692F" />
<rect x="88" y="43" width="1" height="1" fill="#4B692F" />
<rect x="89" y="43" width="1" height="1" fill="#4B692F" />
<rect x="94" y="43" width="1" height="1" fill="#4B692F" />
<rect x="95" y="43" width="1" height="1" fill="#99E550" />
<rect x="96" y="43" width="1" height="1" fill="#99E550" />
<rect x="97" y="43" width="1" height="1" fill="#99E550" />
<rect x="98" y="43" width="1" height="1" fill="#99E550" />
<rect x="99" y="43" width="1" height="1" fill="#4B692F" />
<rect x="8" y="44" width="1" height="1" fill="#4B692F" />
<rect x="9" y="44" width="1" height="1" fill="#4B692F" />
<rect x="10" y="44" width="1" height="1" fill="#4B692F" />
<rect x="11" y="44" width="1" height="1" fill="#4B692F" />
<rect x="12" y="44" width="1" height="1" fill="#4B692F" />
<rect x="16" y="44" width="1" height="1" fill="#4B692F" />
<rect x="17" y="44" width="1" height="1" fill="#6ABE30" />
<rect x="18" y="44" width="1" height="1" fill="#99E550" />
<rect x="19" y="44" width="1" height="1" fill="#4B692F" />
<rect x="94" y="44" width="1" height="1" fill="#4B692F" />
<rect x="95" y="44" width="1" height="1" fill="#99E550" />
<rect x="96" y="44" width="1" height="1" fill="#99E550" />
<rect x="97" y="44" width="1" height="1" fill="#99E550" />
<rect x="98" y="44" width="1" height="1" fill="#99E550" />
<rect x="99" y="44" width="1" height="1" fill="#4B692F" />
<rect x="15" y="45" width="1" height="1" fill="#4B692F" />
<rect x="16" y="45" width="1" height="1" fill="#99E550" />
<rect x="17" y="45" width="1" height="1" fill="#99E550" />
<rect x="18" y="45" width="1" height="1" fill="#99E550" />
<rect x="19" y="45" width="1" height="1" fill="#4B692F" />
<rect x="94" y="45" width="1" height="1" fill="#4B692F" />
<rect x="95" y="45" width="1" height="1" fill="#99E550" />
<rect x="96" y="45" width="1" height="1" fill="#99E550" />
<rect x="97" y="45" width="1" height="1" fill="#99E550" />
<rect x="98" y="45" width="1" height="1" fill="#99E550" />
<rect x="99" y="45" width="1" height="1" fill="#99E550" />
<rect x="14" y="46" width="1" height="1" fill="#4B692F" />
<rect x="15" y="46" width="1" height="1" fill="#99E550" />
<rect x="16" y="46" width="1" height="1" fill="#99E550" />
<rect x="17" y="46" width="1" height="1" fill="#6ABE30" />
<rect x="18" y="46" width="1" height="1" fill="#4B692F" />
<rect x="19" y="46" width="1" height="1" fill="#4B692F" />
<rect x="95" y="46" width="1" height="1" fill="#4B692F" />
<rect x="96" y="46" width="1" height="1" fill="#99E550" />
<rect x="97" y="46" width="1" height="1" fill="#99E550" />
<rect x="98" y="46" width="1" height="1" fill="#99E550" />
<rect x="99" y="46" width="1" height="1" fill="#99E550" />
<rect x="14" y="47" width="1" height="1" fill="#4B692F" />
<rect x="15" y="47" width="1" height="1" fill="#99E550" />
<rect x="16" y="47" width="1" height="1" fill="#99E550" />
<rect x="17" y="47" width="1" height="1" fill="#99E550" />
<rect x="18" y="47" width="1" height="1" fill="#4B692F" />
<rect x="95" y="47" width="1" height="1" fill="#4B692F" />
<rect x="96" y="47" width="1" height="1" fill="#4B692F" />
<rect x="97" y="47" width="1" height="1" fill="#99E550" />
<rect x="98" y="47" width="1" height="1" fill="#99E550" />
<rect x="99" y="47" width="1" height="1" fill="#99E550" />
<rect x="13" y="48" width="1" height="1" fill="#4B692F" />
<rect x="14" y="48" width="1" height="1" fill="#99E550" />
<rect x="15" y="48" width="1" height="1" fill="#99E550" />
<rect x="16" y="48" width="1" height="1" fill="#6ABE30" />
<rect x="17" y="48" width="1" height="1" fill="#4B692F" />
<rect x="18" y="48" width="1" height="1" fill="#4B692F" />
<rect x="96" y="48" width="1" height="1" fill="#4B692F" />
<rect x="97" y="48" width="1" height="1" fill="#4B692F" />
<rect x="98" y="48" width="1" height="1" fill="#99E550" />
<rect x="99" y="48" width="1" height="1" fill="#99E550" />
<rect x="12" y="49" width="1" height="1" fill="#4B692F" />
<rect x="13" y="49" width="1" height="1" fill="#4B692F" />
<rect x="14" y="49" width="1" height="1" fill="#99E550" />
<rect x="15" y="49" width="1" height="1" fill="#99E550" />
<rect x="16" y="49" width="1" height="1" fill="#6ABE30" />
<rect x="17" y="49" width="1" height="1" fill="#4B692F" />
<rect x="18" y="49" width="1" height="1" fill="#4B692F" />
<rect x="97" y="49" width="1" height="1" fill="#4B692F" />
<rect x="98" y="49" width="1" height="1" fill="#4B692F" />
<rect x="99" y="49" width="1" height="1" fill="#4B692F" />
<rect x="12" y="50" width="1" height="1" fill="#4B692F" />
<rect x="13" y="50" width="1" height="1" fill="#99E550" />
<rect x="14" y="50" width="1" height="1" fill="#99E550" />
<rect x="15" y="50" width="1" height="1" fill="#6ABE30" />
<rect x="16" y="50" width="1" height="1" fill="#6ABE30" />
<rect x="17" y="50" width="1" height="1" fill="#4B692F" />
<rect x="11" y="51" width="1" height="1" fill="#4B692F" />
<rect x="12" y="51" width="1" height="1" fill="#4B692F" />
<rect x="13" y="51" width="1" height="1" fill="#99E550" />
<rect x="14" y="51" width="1" height="1" fill="#99E550" />
<rect x="15" y="51" width="1" height="1" fill="#6ABE30" />
<rect x="16" y="51" width="1" height="1" fill="#4B692F" />
<rect x="17" y="51" width="1" height="1" fill="#4B692F" />
<rect x="7" y="52" width="1" height="1" fill="#4B692F" />
<rect x="8" y="52" width="1" height="1" fill="#4B692F" />
<rect x="9" y="52" width="1" height="1" fill="#4B692F" />
<rect x="10" y="52" width="1" height="1" fill="#4B692F" />
<rect x="11" y="52" width="1" height="1" fill="#4B692F" />
<rect x="12" y="52" width="1" height="1" fill="#4B692F" />
<rect x="13" y="52" width="1" height="1" fill="#99E550" />
<rect x="14" y="52" width="1" height="1" fill="#99E550" />
<rect x="15" y="52" width="1" height="1" fill="#99E550" />
<rect x="16" y="52" width="1" height="1" fill="#6ABE30" />
<rect x="17" y="52" width="1" height="1" fill="#6ABE30" />
<rect x="18" y="52" width="1" height="1" fill="#4B692F" />
<rect x="19" y="52" width="1" height="1" fill="#4B692F" />
<rect x="5" y="53" width="1" height="1" fill="#4B692F" />
<rect x="6" y="53" width="1" height="1" fill="#4B692F" />
<rect x="7" y="53" width="1" height="1" fill="#99E550" />
<rect x="8" y="53" width="1" height="1" fill="#99E550" />
<rect x="9" y="53" width="1" height="1" fill="#99E550" />
<rect x="10" y="53" width="1" height="1" fill="#4B692F" />
<rect x="11" y="53" width="1" height="1" fill="#4B692F" />
<rect x="12" y="53" width="1" height="1" fill="#99E550" />
<rect x="13" y="53" width="1" height="1" fill="#99E550" />
<rect x="14" y="53" width="1" height="1" fill="#6ABE30" />
<rect x="15" y="53" width="1" height="1" fill="#6ABE30" />
<rect x="16" y="53" width="1" height="1" fill="#4B692F" />
<rect x="17" y="53" width="1" height="1" fill="#99E550" />
<rect x="18" y="53" width="1" height="1" fill="#99E550" />
<rect x="19" y="53" width="1" height="1" fill="#4B692F" />
<rect x="20" y="53" width="1" height="1" fill="#4B692F" />
<rect x="4" y="54" width="1" height="1" fill="#4B692F" />
<rect x="5" y="54" width="1" height="1" fill="#4B692F" />
<rect x="6" y="54" width="1" height="1" fill="#99E550" />
<rect x="7" y="54" width="1" height="1" fill="#99E550" />
<rect x="8" y="54" width="1" height="1" fill="#99E550" />
<rect x="9" y="54" width="1" height="1" fill="#99E550" />
<rect x="10" y="54" width="1" height="1" fill="#4B692F" />
<rect x="11" y="54" width="1" height="1" fill="#4B692F" />
<rect x="12" y="54" width="1" height="1" fill="#6ABE30" />
<rect x="13" y="54" width="1" height="1" fill="#6ABE30" />
<rect x="14" y="54" width="1" height="1" fill="#6ABE30" />
<rect x="15" y="54" width="1" height="1" fill="#4B692F" />
<rect x="16" y="54" width="1" height="1" fill="#4B692F" />
<rect x="17" y="54" width="1" height="1" fill="#99E550" />
<rect x="18" y="54" width="1" height="1" fill="#99E550" />
<rect x="19" y="54" width="1" height="1" fill="#99E550" />
<rect x="20" y="54" width="1" height="1" fill="#4B692F" />
<rect x="21" y="54" width="1" height="1" fill="#4B692F" />
<rect x="3" y="55" width="1" height="1" fill="#4B692F" />
<rect x="4" y="55" width="1" height="1" fill="#4B692F" />
<rect x="5" y="55" width="1" height="1" fill="#99E550" />
<rect x="6" y="55" width="1" height="1" fill="#99E550" />
<rect x="7" y="55" width="1" height="1" fill="#99E550" />
<rect x="8" y="55" width="1" height="1" fill="#99E550" />
<rect x="9" y="55" width="1" height="1" fill="#99E550" />
<rect x="10" y="55" width="1" height="1" fill="#4B692F" />
<rect x="11" y="55" width="1" height="1" fill="#6ABE30" />
<rect x="12" y="55" width="1" height="1" fill="#6ABE30" />
<rect x="13" y="55" width="1" height="1" fill="#4B692F" />
<rect x="14" y="55" width="1" height="1" fill="#4B692F" />
<rect x="15" y="55" width="1" height="1" fill="#4B692F" />
<rect x="16" y="55" width="1" height="1" fill="#99E550" />
<rect x="17" y="55" width="1" height="1" fill="#4B692F" />
<rect x="18" y="55" width="1" height="1" fill="#99E550" />
<rect x="19" y="55" width="1" height="1" fill="#99E550" />
<rect x="20" y="55" width="1" height="1" fill="#99E550" />
<rect x="21" y="55" width="1" height="1" fill="#4B692F" />
<rect x="3" y="56" width="1" height="1" fill="#8FD032" />
<rect x="4" y="56" width="1" height="1" fill="#8FD032" />
<rect x="5" y="56" width="1" height="1" fill="#99E550" />
<rect x="6" y="56" width="1" height="1" fill="#99E550" />
<rect x="7" y="56" width="1" height="1" fill="#99E550" />
<rect x="8" y="56" width="1" height="1" fill="#99E550" />
<rect x="9" y="56" width="1" height="1" fill="#99E550" />
<rect x="10" y="56" width="1" height="1" fill="#4B692F" />
<rect x="11" y="56" width="1" height="1" fill="#4B692F" />
<rect x="12" y="56" width="1" height="1" fill="#4B692F" />
<rect x="13" y="56" width="1" height="1" fill="#4B692F" />
<rect x="14" y="56" width="1" height="1" fill="#6ABE30" />
<rect x="15" y="56" width="1" height="1" fill="#6ABE30" />
<rect x="16" y="56" width="1" height="1" fill="#99E550" />
<rect x="17" y="56" width="1" height="1" fill="#99E550" />
<rect x="18" y="56" width="1" height="1" fill="#4B692F" />
<rect x="19" y="56" width="1" height="1" fill="#6ABE30" />
<rect x="20" y="56" width="1" height="1" fill="#99E550" />
<rect x="21" y="56" width="1" height="1" fill="#4B692F" />
<rect x="31" y="56" width="1" height="1" fill="#99E550" />
<rect x="32" y="56" width="1" height="1" fill="#99E550" />
<rect x="37" y="56" width="1" height="1" fill="#99E550" />
<rect x="38" y="56" width="1" height="1" fill="#99E550" />
<rect x="97" y="56" width="1" height="1" fill="#8FD032" />
<rect x="98" y="56" width="1" height="1" fill="#8FD032" />
<rect x="99" y="56" width="1" height="1" fill="#8FD032" />
<rect x="0" y="57" width="1" height="1" fill="#8FD032" />
<rect x="1" y="57" width="1" height="1" fill="#8FD032" />
<rect x="2" y="57" width="1" height="1" fill="#8FD032" />
<rect x="3" y="57" width="1" height="1" fill="#8FD032" />
<rect x="4" y="57" width="1" height="1" fill="#8FD032" />
<rect x="5" y="57" width="1" height="1" fill="#99E550" />
<rect x="6" y="57" width="1" height="1" fill="#99E550" />
<rect x="7" y="57" width="1" height="1" fill="#99E550" />
<rect x="8" y="57" width="1" height="1" fill="#4B692F" />
<rect x="9" y="57" width="1" height="1" fill="#4B692F" />
<rect x="10" y="57" width="1" height="1" fill="#4B692F" />
<rect x="11" y="57" width="1" height="1" fill="#99E550" />
<rect x="12" y="57" width="1" height="1" fill="#6ABE30" />
<rect x="13" y="57" width="1" height="1" fill="#4B692F" />
<rect x="14" y="57" width="1" height="1" fill="#4B692F" />
<rect x="15" y="57" width="1" height="1" fill="#6ABE30" />
<rect x="16" y="57" width="1" height="1" fill="#6ABE30" />
<rect x="17" y="57" width="1" height="1" fill="#99E550" />
<rect x="18" y="57" width="1" height="1" fill="#99E550" />
<rect x="19" y="57" width="1" height="1" fill="#99E550" />
<rect x="20" y="57" width="1" height="1" fill="#99E550" />
<rect x="21" y="57" width="1" height="1" fill="#4B692F" />
<rect x="30" y="57" width="1" height="1" fill="#99E550" />
<rect x="31" y="57" width="1" height="1" fill="#99E550" />
<rect x="32" y="57" width="1" height="1" fill="#99E550" />
<rect x="36" y="57" width="1" height="1" fill="#99E550" />
<rect x="37" y="57" width="1" height="1" fill="#99E550" />
<rect x="42" y="57" width="1" height="1" fill="#99E550" />
<rect x="43" y="57" width="1" height="1" fill="#99E550" />
<rect x="44" y="57" width="1" height="1" fill="#99E550" />
<rect x="50" y="57" width="1" height="1" fill="#8FD032" />
<rect x="51" y="57" width="1" height="1" fill="#8FD032" />
<rect x="52" y="57" width="1" height="1" fill="#8FD032" />
<rect x="53" y="57" width="1" height="1" fill="#8FD032" />
<rect x="56" y="57" width="1" height="1" fill="#8FD032" />
<rect x="57" y="57" width="1" height="1" fill="#8FD032" />
<rect x="74" y="57" width="1" height="1" fill="#99E550" />
<rect x="75" y="57" width="1" height="1" fill="#99E550" />
<rect x="78" y="57" width="1" height="1" fill="#99E550" />
<rect x="79" y="57" width="1" height="1" fill="#99E550" />
<rect x="84" y="57" width="1" height="1" fill="#99E550" />
<rect x="85" y="57" width="1" height="1" fill="#99E550" />
<rect x="94" y="57" width="1" height="1" fill="#8FD032" />
<rect x="95" y="57" width="1" height="1" fill="#8FD032" />
<rect x="96" y="57" width="1" height="1" fill="#8FD032" />
<rect x="97" y="57" width="1" height="1" fill="#8FD032" />
<rect x="98" y="57" width="1" height="1" fill="#8FD032" />
<rect x="99" y="57" width="1" height="1" fill="#8FD032" />
<rect x="0" y="58" width="1" height="1" fill="#61A53F" />
<rect x="1" y="58" width="1" height="1" fill="#8FD032" />
<rect x="2" y="58" width="1" height="1" fill="#8FD032" />
<rect x="3" y="58" width="1" height="1" fill="#8FD032" />
<rect x="4" y="58" width="1" height="1" fill="#8FD032" />
<rect x="5" y="58" width="1" height="1" fill="#8FD032" />
<rect x="6" y="58" width="1" height="1" fill="#99E550" />
<rect x="7" y="58" width="1" height="1" fill="#99E550" />
<rect x="8" y="58" width="1" height="1" fill="#99E550" />
<rect x="9" y="58" width="1" height="1" fill="#99E550" />
<rect x="10" y="58" width="1" height="1" fill="#99E550" />
<rect x="11" y="58" width="1" height="1" fill="#99E550" />
<rect x="12" y="58" width="1" height="1" fill="#6ABE30" />
<rect x="13" y="58" width="1" height="1" fill="#6ABE30" />
<rect x="14" y="58" width="1" height="1" fill="#4B692F" />
<rect x="15" y="58" width="1" height="1" fill="#4B692F" />
<rect x="16" y="58" width="1" height="1" fill="#6ABE30" />
<rect x="17" y="58" width="1" height="1" fill="#6ABE30" />
<rect x="18" y="58" width="1" height="1" fill="#99E550" />
<rect x="19" y="58" width="1" height="1" fill="#99E550" />
<rect x="20" y="58" width="1" height="1" fill="#99E550" />
<rect x="21" y="58" width="1" height="1" fill="#99E550" />
<rect x="22" y="58" width="1" height="1" fill="#4B692F" />
<rect x="28" y="58" width="1" height="1" fill="#61A53F" />
<rect x="29" y="58" width="1" height="1" fill="#61A53F" />
<rect x="30" y="58" width="1" height="1" fill="#99E550" />
<rect x="31" y="58" width="1" height="1" fill="#8FD032" />
<rect x="32" y="58" width="1" height="1" fill="#99E550" />
<rect x="33" y="58" width="1" height="1" fill="#61A53F" />
<rect x="36" y="58" width="1" height="1" fill="#99E550" />
<rect x="37" y="58" width="1" height="1" fill="#8FD032" />
<rect x="38" y="58" width="1" height="1" fill="#61A53F" />
<rect x="39" y="58" width="1" height="1" fill="#61A53F" />
<rect x="41" y="58" width="1" height="1" fill="#99E550" />
<rect x="42" y="58" width="1" height="1" fill="#99E550" />
<rect x="43" y="58" width="1" height="1" fill="#99E550" />
<rect x="44" y="58" width="1" height="1" fill="#8FD032" />
<rect x="45" y="58" width="1" height="1" fill="#61A53F" />
<rect x="47" y="58" width="1" height="1" fill="#8FD032" />
<rect x="48" y="58" width="1" height="1" fill="#8FD032" />
<rect x="49" y="58" width="1" height="1" fill="#8FD032" />
<rect x="50" y="58" width="1" height="1" fill="#8FD032" />
<rect x="51" y="58" width="1" height="1" fill="#8FD032" />
<rect x="52" y="58" width="1" height="1" fill="#8FD032" />
<rect x="55" y="58" width="1" height="1" fill="#8FD032" />
<rect x="56" y="58" width="1" height="1" fill="#8FD032" />
<rect x="67" y="58" width="1" height="1" fill="#99E550" />
<rect x="68" y="58" width="1" height="1" fill="#99E550" />
<rect x="73" y="58" width="1" height="1" fill="#99E550" />
<rect x="74" y="58" width="1" height="1" fill="#99E550" />
<rect x="77" y="58" width="1" height="1" fill="#99E550" />
<rect x="78" y="58" width="1" height="1" fill="#99E550" />
<rect x="79" y="58" width="1" height="1" fill="#99E550" />
<rect x="83" y="58" width="1" height="1" fill="#99E550" />
<rect x="84" y="58" width="1" height="1" fill="#99E550" />
<rect x="89" y="58" width="1" height="1" fill="#99E550" />
<rect x="90" y="58" width="1" height="1" fill="#99E550" />
<rect x="91" y="58" width="1" height="1" fill="#99E550" />
<rect x="93" y="58" width="1" height="1" fill="#61A53F" />
<rect x="94" y="58" width="1" height="1" fill="#61A53F" />
<rect x="95" y="58" width="1" height="1" fill="#8FD032" />
<rect x="96" y="58" width="1" height="1" fill="#8FD032" />
<rect x="97" y="58" width="1" height="1" fill="#8FD032" />
<rect x="98" y="58" width="1" height="1" fill="#8FD032" />
<rect x="99" y="58" width="1" height="1" fill="#8FD032" />
<rect x="0" y="59" width="1" height="1" fill="#61A53F" />
<rect x="1" y="59" width="1" height="1" fill="#61A53F" />
<rect x="2" y="59" width="1" height="1" fill="#8FD032" />
<rect x="3" y="59" width="1" height="1" fill="#61A53F" />
<rect x="4" y="59" width="1" height="1" fill="#8FD032" />
<rect x="5" y="59" width="1" height="1" fill="#61A53F" />
<rect x="6" y="59" width="1" height="1" fill="#61A53F" />
<rect x="7" y="59" width="1" height="1" fill="#99E550" />
<rect x="8" y="59" width="1" height="1" fill="#99E550" />
<rect x="9" y="59" width="1" height="1" fill="#99E550" />
<rect x="10" y="59" width="1" height="1" fill="#99E550" />
<rect x="11" y="59" width="1" height="1" fill="#6ABE30" />
<rect x="12" y="59" width="1" height="1" fill="#6ABE30" />
<rect x="13" y="59" width="1" height="1" fill="#4B692F" />
<rect x="14" y="59" width="1" height="1" fill="#4B692F" />
<rect x="15" y="59" width="1" height="1" fill="#4B692F" />
<rect x="16" y="59" width="1" height="1" fill="#4B692F" />
<rect x="17" y="59" width="1" height="1" fill="#4B692F" />
<rect x="18" y="59" width="1" height="1" fill="#4B692F" />
<rect x="19" y="59" width="1" height="1" fill="#4B692F" />
<rect x="20" y="59" width="1" height="1" fill="#4B692F" />
<rect x="21" y="59" width="1" height="1" fill="#4B692F" />
<rect x="22" y="59" width="1" height="1" fill="#4B692F" />
<rect x="28" y="59" width="1" height="1" fill="#61A53F" />
<rect x="29" y="59" width="1" height="1" fill="#8FD032" />
<rect x="30" y="59" width="1" height="1" fill="#99E550" />
<rect x="31" y="59" width="1" height="1" fill="#99E550" />
<rect x="32" y="59" width="1" height="1" fill="#99E550" />
<rect x="33" y="59" width="1" height="1" fill="#99E550" />
<rect x="34" y="59" width="1" height="1" fill="#8FD032" />
<rect x="36" y="59" width="1" height="1" fill="#8FD032" />
<rect x="37" y="59" width="1" height="1" fill="#99E550" />
<rect x="38" y="59" width="1" height="1" fill="#99E550" />
<rect x="39" y="59" width="1" height="1" fill="#8FD032" />
<rect x="40" y="59" width="1" height="1" fill="#8FD032" />
<rect x="41" y="59" width="1" height="1" fill="#99E550" />
<rect x="42" y="59" width="1" height="1" fill="#8FD032" />
<rect x="43" y="59" width="1" height="1" fill="#61A53F" />
<rect x="44" y="59" width="1" height="1" fill="#61A53F" />
<rect x="45" y="59" width="1" height="1" fill="#6ABE30" />
<rect x="46" y="59" width="1" height="1" fill="#61A53F" />
<rect x="47" y="59" width="1" height="1" fill="#61A53F" />
<rect x="48" y="59" width="1" height="1" fill="#8FD032" />
<rect x="49" y="59" width="1" height="1" fill="#8FD032" />
<rect x="50" y="59" width="1" height="1" fill="#8FD032" />
<rect x="51" y="59" width="1" height="1" fill="#8FD032" />
<rect x="52" y="59" width="1" height="1" fill="#8FD032" />
<rect x="53" y="59" width="1" height="1" fill="#61A53F" />
<rect x="54" y="59" width="1" height="1" fill="#61A53F" />
<rect x="55" y="59" width="1" height="1" fill="#8FD032" />
<rect x="56" y="59" width="1" height="1" fill="#8FD032" />
<rect x="57" y="59" width="1" height="1" fill="#61A53F" />
<rect x="58" y="59" width="1" height="1" fill="#61A53F" />
<rect x="59" y="59" width="1" height="1" fill="#61A53F" />
<rect x="62" y="59" width="1" height="1" fill="#99E550" />
<rect x="63" y="59" width="1" height="1" fill="#99E550" />
<rect x="64" y="59" width="1" height="1" fill="#99E550" />
<rect x="65" y="59" width="1" height="1" fill="#99E550" />
<rect x="66" y="59" width="1" height="1" fill="#99E550" />
<rect x="67" y="59" width="1" height="1" fill="#99E550" />
<rect x="68" y="59" width="1" height="1" fill="#99E550" />
<rect x="69" y="59" width="1" height="1" fill="#99E550" />
<rect x="70" y="59" width="1" height="1" fill="#99E550" />
<rect x="73" y="59" width="1" height="1" fill="#99E550" />
<rect x="74" y="59" width="1" height="1" fill="#8FD032" />
<rect x="75" y="59" width="1" height="1" fill="#61A53F" />
<rect x="76" y="59" width="1" height="1" fill="#61A53F" />
<rect x="77" y="59" width="1" height="1" fill="#99E550" />
<rect x="78" y="59" width="1" height="1" fill="#8FD032" />
<rect x="79" y="59" width="1" height="1" fill="#99E550" />
<rect x="80" y="59" width="1" height="1" fill="#61A53F" />
<rect x="83" y="59" width="1" height="1" fill="#99E550" />
<rect x="84" y="59" width="1" height="1" fill="#8FD032" />
<rect x="85" y="59" width="1" height="1" fill="#61A53F" />
<rect x="86" y="59" width="1" height="1" fill="#61A53F" />
<rect x="88" y="59" width="1" height="1" fill="#99E550" />
<rect x="89" y="59" width="1" height="1" fill="#99E550" />
<rect x="90" y="59" width="1" height="1" fill="#99E550" />
<rect x="91" y="59" width="1" height="1" fill="#8FD032" />
<rect x="92" y="59" width="1" height="1" fill="#61A53F" />
<rect x="93" y="59" width="1" height="1" fill="#8FD032" />
<rect x="94" y="59" width="1" height="1" fill="#61A53F" />
<rect x="95" y="59" width="1" height="1" fill="#61A53F" />
<rect x="96" y="59" width="1" height="1" fill="#8FD032" />
<rect x="97" y="59" width="1" height="1" fill="#61A53F" />
<rect x="98" y="59" width="1" height="1" fill="#8FD032" />
<rect x="99" y="59" width="1" height="1" fill="#61A53F" />
</svg>