<?xml version="1.0" encoding="UTF-8" ?>
<svg version="1.1" width="72" height="60" xmlns="http://www.w3.org/2000/svg" shape-rendering="crispEdges">
<rect x="3" y="55" width="1" height="1" fill="#99E550" />
<rect x="4" y="55" width="1" height="1" fill="#99E550" />
<rect x="9" y="55" width="1" height="1" fill="#99E550" />
<rect x="10" y="55" width="1" height="1" fill="#99E550" />
<rect x="69" y="55" width="1" height="1" fill="#8FD032" />
<rect x="70" y="55" width="1" height="1" fill="#8FD032" />
<rect x="71" y="55" width="1" height="1" fill="#8FD032" />
<rect x="2" y="56" width="1" height="1" fill="#99E550" />
<rect x="3" y="56" width="1" height="1" fill="#99E550" />
<rect x="4" y="56" width="1" height="1" fill="#99E550" />
<rect x="8" y="56" width="1" height="1" fill="#99E550" />
<rect x="9" y="56" width="1" height="1" fill="#99E550" />
<rect x="14" y="56" width="1" height="1" fill="#99E550" />
<rect x="15" y="56" width="1" height="1" fill="#99E550" />
<rect x="16" y="56" width="1" height="1" fill="#99E550" />
<rect x="22" y="56" width="1" height="1" fill="#8FD032" />
<rect x="23" y="56" width="1" height="1" fill="#8FD032" />
<rect x="24" y="56" width="1" height="1" fill="#8FD032" />
<rect x="25" y="56" width="1" height="1" fill="#8FD032" />
<rect x="28" y="56" width="1" height="1" fill="#8FD032" />
<rect x="29" y="56" width="1" height="1" fill="#8FD032" />
<rect x="46" y="56" width="1" height="1" fill="#99E550" />
<rect x="47" y="56" width="1" height="1" fill="#99E550" />
<rect x="50" y="56" width="1" height="1" fill="#99E550" />
<rect x="51" y="56" width="1" height="1" fill="#99E550" />
<rect x="56" y="56" width="1" height="1" fill="#99E550" />
<rect x="57" y="56" width="1" height="1" fill="#99E550" />
<rect x="66" y="56" width="1" height="1" fill="#8FD032" />
<rect x="67" y="56" width="1" height="1" fill="#8FD032" />
<rect x="68" y="56" width="1" height="1" fill="#8FD032" />
<rect x="69" y="56" width="1" height="1" fill="#8FD032" />
<rect x="70" y="56" width="1" height="1" fill="#8FD032" />
<rect x="71" y="56" width="1" height="1" fill="#8FD032" />
<rect x="0" y="57" width="1" height="1" fill="#61A53F" />
<rect x="1" y="57" width="1" height="1" fill="#61A53F" />
<rect x="2" y="57" width="1" height="1" fill="#99E550" />
<rect x="3" y="57" width="1" height="1" fill="#8FD032" />
<rect x="4" y="57" width="1" height="1" fill="#99E550" />
<rect x="5" y="57" width="1" height="1" fill="#61A53F" />
<rect x="8" y="57" width="1" height="1" fill="#99E550" />
<rect x="9" y="57" width="1" height="1" fill="#8FD032" />
<rect x="10" y="57" width="1" height="1" fill="#61A53F" />
<rect x="11" y="57" width="1" height="1" fill="#61A53F" />
<rect x="13" y="57" width="1" height="1" fill="#99E550" />
<rect x="14" y="57" width="1" height="1" fill="#99E550" />
<rect x="15" y="57" width="1" height="1" fill="#99E550" />
<rect x="16" y="57" width="1" height="1" fill="#8FD032" />
<rect x="17" y="57" width="1" height="1" fill="#61A53F" />
<rect x="19" y="57" width="1" height="1" fill="#8FD032" />
<rect x="20" y="57" width="1" height="1" fill="#8FD032" />
<rect x="21" y="57" width="1" height="1" fill="#8FD032" />
<rect x="22" y="57" width="1" height="1" fill="#8FD032" />
<rect x="23" y="57" width="1" height="1" fill="#8FD032" />
<rect x="24" y="57" width="1" height="1" fill="#8FD032" />
<rect x="27" y="57" width="1" height="1" fill="#8FD032" />
<rect x="28" y="57" width="1" height="1" fill="#8FD032" />
<rect x="39" y="57" width="1" height="1" fill="#99E550" />
<rect x="40" y="57" width="1" height="1" fill="#99E550" />
<rect x="45" y="57" width="1" height="1" fill="#99E550" />
<rect x="46" y="57" width="1" height="1" fill="#99E550" />
<rect x="49" y="57" width="1" height="1" fill="#99E550" />
<rect x="50" y="57" width="1" height="1" fill="#99E550" />
<rect x="51" y="57" width="1" height="1" fill="#99E550" />
<rect x="55" y="57" width="1" height="1" fill="#99E550" />
<rect x="56" y="57" width="1" height="1" fill="#99E550" />
<rect x="61" y="57" width="1" height="1" fill="#99E550" />
<rect x="62" y="57" width="1" height="1" fill="#99E550" />
<rect x="63" y="57" width="1" height="1" fill="#99E550" />
<rect x="65" y="57" width="1" height="1" fill="#61A53F" />
<rect x="66" y="57" width="1" height="1" fill="#61A53F" />
<rect x="67" y="57" width="1" height="1" fill="#8FD032" />
<rect x="68" y="57" width="1" height="1" fill="#8FD032" />
<rect x="69" y="57" width="1" height="1" fill="#8FD032" />
<rect x="70" y="57" width="1" height="1" fill="#8FD032" />
<rect x="71" y="57" width="1" height="1" fill="#8FD032" />
<rect x="0" y="58" width="1" height="1" fill="#61A53F" />
<rect x="1" y="58" width="1" height="1" fill="#8FD032" />
<rect x="2" y="58" width="1" height="1" fill="#99E550" />
<rect x="3" y="58" width="1" height="1" fill="#99E550" />
<rect x="4" y="58" width="1" height="1" fill="#99E550" />
<rect x="5" y="58" width="1" height="1" fill="#99E550" />
<rect x="6" y="58" width="1" height="1" fill="#8FD032" />
<rect x="8" y="58" width="1" height="1" fill="#8FD032" />
<rect x="9" y="58" width="1" height="1" fill="#99E550" />
<rect x="10" y="58" width="1" height="1" fill="#99E550" />
<rect x="11" y="58" width="1" height="1" fill="#8FD032" />
<rect x="12" y="58" width="1" height="1" fill="#8FD032" />
<rect x="13" y="58" width="1" height="1" fill="#99E550" />
<rect x="14" y="58" width="1" height="1" fill="#8FD032" />
<rect x="15" y="58" width="1" height="1" fill="#61A53F" />
<rect x="16" y="58" width="1" height="1" fill="#61A53F" />
<rect x="17" y="58" width="1" height="1" fill="#6ABE30" />
<rect x="18" y="58" width="1" height="1" fill="#61A53F" />
<rect x="19" y="58" width="1" height="1" fill="#61A53F" />
<rect x="20" y="58" width="1" height="1" fill="#8FD032" />
<rect x="21" y="58" width="1" height="1" fill="#8FD032" />
<rect x="22" y="58" width="1" height="1" fill="#8FD032" />
<rect x="23" y="58" width="1" height="1" fill="#8FD032" />
<rect x="24" y="58" width="1" height="1" fill="#8FD032" />
<rect x="25" y="58" width="1" height="1" fill="#61A53F" />
<rect x="26" y="58" width="1" height="1" fill="#61A53F" />
<rect x="27" y="58" width="1" height="1" fill="#8FD032" />
<rect x="28" y="58" width="1" height="1" fill="#8FD032" />
<rect x="29" y="58" width="1" height="1" fill="#61A53F" />
<rect x="30" y="58" width="1" height="1" fill="#61A53F" />
<rect x="31" y="58" width="1" height="1" fill="#61A53F" />
<rect x="34" y="58" width="1" height="1" fill="#99E550" />
<rect x="35" y="58" width="1" height="1" fill="#99E550" />
<rect x="36" y="58" width="1" height="1" fill="#99E550" />
<rect x="37" y="58" width="1" height="1" fill="#99E550" />
<rect x="38" y="58" width="1" height="1" fill="#99E550" />
<rect x="39" y="58" width="1" height="1" fill="#99E550" />
<rect x="40" y="58" width="1" height="1" fill="#99E550" />
<rect x="41" y="58" width="1" height="1" fill="#99E550" />
<rect x="42" y="58" width="1" height="1" fill="#99E550" />
<rect x="45" y="58" width="1" height="1" fill="#99E550" />
<rect x="46" y="58" width="1" height="1" fill="#8FD032" />
<rect x="47" y="58" width="1" height="1" fill="#61A53F" />
<rect x="48" y="58" width="1" height="1" fill="#61A53F" />
<rect x="49" y="58" width="1" height="1" fill="#99E550" />
<rect x="50" y="58" width="1" height="1" fill="#8FD032" />
<rect x="51" y="58" width="1" height="1" fill="#99E550" />
<rect x="52" y="58" width="1" height="1" fill="#61A53F" />
<rect x="55" y="58" width="1" height="1" fill="#99E550" />
<rect x="56" y="58" width="1" height="1" fill="#8FD032" />
<rect x="57" y="58" width="1" height="1" fill="#61A53F" />
<rect x="58" y="58" width="1" height="1" fill="#61A53F" />
<rect x="60" y="58" width="1" height="1" fill="#99E550" />
<rect x="61" y="58" width="1" height="1" fill="#99E550" />
<rect x="62" y="58" width="1" height="1" fill="#99E550" />
<rect x="63" y="58" width="1" height="1" fill="#8FD032" />
<rect x="64" y="58" width="1" height="1" fill="#61A53F" />
<rect x="65" y="58" width="1" height="1" fill="#8FD032" />
<rect x="66" y="58" width="1" height="1" fill="#61A53F" />
<rect x="67" y="58" width="1" height="1" fill="#61A53F" />
<rect x="68" y="58" width="1" height="1" fill="#8FD032" />
<rect x="69" y="58" width="1" height="1" fill="#61A53F" />
<rect x="70" y="58" width="1" height="1" fill="#8FD032" />
<rect x="71" y="58" width="1" height="1" fill="#61A53F" />
<rect x="0" y="59" width="1" height="1" fill="#8FD032" />
<rect x="1" y="59" width="1" height="1" fill="#61A53F" />
<rect x="2" y="59" width="1" height="1" fill="#8FD032" />
<rect x="3" y="59" width="1" height="1" fill="#99E550" />
<rect x="4" y="59" width="1" height="1" fill="#99E550" />
<rect x="5" y="59" width="1" height="1" fill="#8FD032" />
<rect x="6" y="59" width="1" height="1" fill="#61A53F" />
<rect x="8" y="59" width="1" height="1" fill="#99E550" />
<rect x="9" y="59" width="1" height="1" fill="#99E550" />
<rect x="10" y="59" width="1" height="1" fill="#8FD032" />
<rect x="11" y="59" width="1" height="1" fill="#61A53F" />
<rect x="13" y="59" width="1" height="1" fill="#8FD032" />
<rect x="14" y="59" width="1" height="1" fill="#61A53F" />
<rect x="15" y="59" width="1" height="1" fill="#61A53F" />
<rect x="16" y="59" width="1" height="1" fill="#6ABE30" />
<rect x="17" y="59" width="1" height="1" fill="#6ABE30" />
<rect x="18" y="59" width="1" height="1" fill="#8FD032" />
<rect x="19" y="59" width="1" height="1" fill="#61A53F" />
<rect x="20" y="59" width="1" height="1" fill="#61A53F" />
<rect x="21" y="59" width="1" height="1" fill="#8FD032" />
<rect x="22" y="59" width="1" height="1" fill="#61A53F" />
<rect x="23" y="59" width="1" height="1" fill="#8FD032" />
<rect x="24" y="59" width="1" height="1" fill="#61A53F" />
<rect x="25" y="59" width="1" height="1" fill="#61A53F" />
<rect x="26" y="59" width="1" height="1" fill="#8FD032" />
<rect x="27" y="59" width="1" height="1" fill="#8FD032" />
<rect x="28" y="59" width="1" height="1" fill="#61A53F" />
<rect x="29" y="59" width="1" height="1" fill="#61A53F" />
<rect x="30" y="59" width="1" height="1" fill="#8FD032" />
<rect x="31" y="59" width="1" height="1" fill="#8FD032" />
<rect x="33" y="59" width="1" height="1" fill="#61A53F" />
<rect x="34" y="59" width="1" height="1" fill="#8FD032" />
<rect x="35" y="59" width="1" height="1" fill="#99E550" />
<rect x="36" y="59" width="1" height="1" fill="#99E550" />
<rect x="37" y="59" width="1" height="1" fill="#8FD032" />
<rect x="38" y="59" width="1" height="1" fill="#99E550" />
<rect x="39" y="59" width="1" height="1" fill="#8FD032" />
<rect x="40" y="59" width="1" height="1" fill="#61A53F" />
<rect x="41" y="59" width="1" height="1" fill="#61A53F" />
<rect x="42" y="59" width="1" height="1" fill="#61A53F" />
<rect x="43" y="59" width="1" height="1" fill="#61A53F" />
<rect x="44" y="59" width="1" height="1" fill="#99E550" />
<rect x="45" y="59" width="1" height="1" fill="#8FD032" />
<rect x="46" y="59" width="1" height="1" fill="#61A53F" />
<rect x="47" y="59" width="1" height="1" fill="#61A53F" />
<rect x="48" y="59" width="1" height="1" fill="#8FD032" />
<rect x="49" y="59" width="1" height="1" fill="#99E550" />
<rect x="50" y="59" width="1" height="1" fill="#99E550" />
<rect x="51" y="59" width="1" height="1" fill="#99E550" />
<rect x="52" y="59" width="1" height="1" fill="#99E550" />
<rect x="53" y="59" width="1" height="1" fill="#8FD032" />
<rect x="55" y="59" width="1" height="1" fill="#8FD032" />
<rect x="56" y="59" width="1" height="1" fill="#99E550" />
<rect x="57" y="59" width="1" height="1" fill="#99E550" />
<rect x="58" y="59" width="1" height="1" fill="#8FD032" />
<rect x="59" y="59" width="1" height="1" fill="#8FD032" />
<rect x="60" y="59" width="1" height="1" fill="#99E550" />
<rect x="61" y="59" width="1" height="1" fill="#8FD032" />
<rect x="62" y="59" width="1" height="1" fill="#61A53F" />
<rect x="63" y="59" width="1" height="1" fill="#61A53F" />
<rect x="64" y="59" width="1" height="1" fill="#6ABE30" />
<rect x="65" y="59" width="1" height="1" fill="#8FD032" />
<rect x="66" y="59" width="1" height="1" fill="#8FD032" />
<rect x="67" y="59" width="1" height="1" fill="#61A53F" />
<rect x="68" y="59" width="1" height="1" fill="#8FD032" />
<rect x="69" y="59" width="1" height="1" fill="#61A53F" />
<rect x="70" y="59" width="1" height="1" fill="#8FD032" />
<rect x="71" y="59" width="1" height="1" fill="#61A53F" />
</svg>